<?xml version="1.0" encoding="utf-8"?>
<!-- Generator: Adobe Illustrator 17.0.0, SVG Export Plug-In . SVG Version: 6.00 Build 0)  -->
<!DOCTYPE svg PUBLIC "-//W3C//DTD SVG 1.1//EN" "http://www.w3.org/Graphics/SVG/1.1/DTD/svg11.dtd">
<svg version="1.1" id="Слой_1" xmlns="http://www.w3.org/2000/svg" xmlns:xlink="http://www.w3.org/1999/xlink" x="0px" y="0px"
	 width="19.109px" height="16.708px" viewBox="0 0 19.109 16.708" enable-background="new 0 0 19.109 16.708" xml:space="preserve">
<path id="Icon_15_" fill="#009999" d="M15.555,1.627c-2.357-1.632-5.376-1.833-8.139-1.479C2.613,0.764-1.565,5.586,0.575,10.493
	c1.919,4.402,6.553,5.262,10.872,4.662c0.059-0.008,7.621,1.552,7.621,1.552c-0.462-1.108-1.662-4.567-1.628-4.608
	C20.431,8.528,19.156,4.121,15.555,1.627z M3.935,9.156c-2.533,0-2.533-3.44,0-3.44S6.468,9.156,3.935,9.156z M9.615,9.156
	c-2.533,0-2.533-3.44,0-3.44S12.148,9.156,9.615,9.156z M15.159,9.021c-2.533,0-2.533-3.44,0-3.44S17.693,9.021,15.159,9.021z"/>
</svg>
