<?xml version="1.0" encoding="utf-8"?>
<!-- Generator: Adobe Illustrator 17.0.0, SVG Export Plug-In . SVG Version: 6.00 Build 0)  -->
<!DOCTYPE svg PUBLIC "-//W3C//DTD SVG 1.1//EN" "http://www.w3.org/Graphics/SVG/1.1/DTD/svg11.dtd">
<svg version="1.1" id="Слой_1" xmlns="http://www.w3.org/2000/svg" xmlns:xlink="http://www.w3.org/1999/xlink" x="0px" y="0px"
	 width="16.4px" height="16.85px" viewBox="0 0 16.4 16.85" enable-background="new 0 0 16.4 16.85" xml:space="preserve">
<path fill="#009999" d="M16.21,0H0.19C0.085,0,0,0.088,0,0.195v16.46c0,0.107,0.085,0.195,0.19,0.195h16.02
	c0.105,0,0.19-0.087,0.19-0.195V0.195C16.4,0.088,16.315,0,16.21,0z M4.187,14.35c0,0.055-0.039,0.1-0.087,0.1H2.181
	c-0.048,0-0.087-0.045-0.087-0.1v-2.2c0-0.055,0.039-0.1,0.087-0.1H4.1c0.048,0,0.087,0.045,0.087,0.1V14.35z M4.187,9.55
	c0,0.055-0.039,0.1-0.087,0.1H2.181c-0.048,0-0.087-0.045-0.087-0.1v-2.2c0-0.055,0.039-0.1,0.087-0.1H4.1
	c0.048,0,0.087,0.045,0.087,0.1V9.55z M4.187,4.75c0,0.055-0.039,0.1-0.087,0.1H2.181c-0.048,0-0.087-0.045-0.087-0.1v-2.2
	c0-0.055,0.039-0.1,0.087-0.1H4.1c0.048,0,0.087,0.045,0.087,0.1V4.75z M14.306,14.35c0,0.055-0.03,0.1-0.067,0.1H6.347
	c-0.037,0-0.067-0.045-0.067-0.1v-2.2c0-0.055,0.03-0.1,0.067-0.1h7.892c0.037,0,0.067,0.045,0.067,0.1V14.35z M14.306,9.55
	c0,0.055-0.03,0.1-0.067,0.1H6.347c-0.037,0-0.067-0.045-0.067-0.1v-2.2c0-0.055,0.03-0.1,0.067-0.1h7.892
	c0.037,0,0.067,0.045,0.067,0.1V9.55z M14.306,4.75c0,0.055-0.03,0.1-0.067,0.1H6.347c-0.037,0-0.067-0.045-0.067-0.1v-2.2
	c0-0.055,0.03-0.1,0.067-0.1h7.892c0.037,0,0.067,0.045,0.067,0.1V4.75z"/>
</svg>
