<?xml version="1.0" encoding="utf-8"?>
<!-- Generator: Adobe Illustrator 17.0.0, SVG Export Plug-In . SVG Version: 6.00 Build 0)  -->
<!DOCTYPE svg PUBLIC "-//W3C//DTD SVG 1.1//EN" "http://www.w3.org/Graphics/SVG/1.1/DTD/svg11.dtd">
<svg version="1.1" id="Слой_1" xmlns="http://www.w3.org/2000/svg"  x="0px" y="0px"
	 width="36.619px" height="30px" viewBox="0 0 36.619 30" enable-background="new 0 0 36.619 30" xml:space="preserve">
<path id="Icon_5_" fill="#707070" d="M36.619,17.625c0-2.423-1.536-4.529-3.634-5.337l-1.861-8.654C30.641,1.37,28.535,0,25.629,0
	H10.911C8.084,0,5.899,1.457,5.416,3.634l-1.781,8.654C1.536,13.175,0,15.202,0,17.625v1.053c0,1.291,0.404,2.423,1.132,3.397H1.053
	v5.74C1.053,29.026,2.106,30,3.397,30h2.827c1.291,0,2.344-0.974,2.344-2.185v-3.397h19.485v3.397c0,1.211,1.053,2.185,2.344,2.185
	h2.827c1.291,0,2.344-0.974,2.344-2.185v-5.819c0.649-0.974,1.053-2.098,1.053-3.317L36.619,17.625L36.619,17.625z M30.554,17.142
	c0.974,0,1.861,0.808,1.861,1.861s-0.808,1.861-1.861,1.861s-1.861-0.808-1.861-1.861S29.588,17.142,30.554,17.142z M30.475,14.719
	c-0.245,0.245-0.562,0.562-2.51,0.562H10.182c-1.94,0-2.344-0.245-2.51-0.562l-0.974-1.211h24.173c0.158,0,0.325,0,0.562,0.079
	L30.475,14.719z M7.918,18.923c0,0.974-0.808,1.861-1.861,1.861s-1.861-0.808-1.861-1.861c0-1.053,0.808-1.861,1.861-1.861
	S7.918,17.949,7.918,18.923z M22.146,11.884c0.649-1.053,1.781-1.781,3.072-1.781s2.423,0.649,3.072,1.781H22.146z M7.031,3.967
	c0.404-1.781,2.344-2.423,3.88-2.423h14.798c1.536,0,3.476,0.649,3.88,2.423l1.694,7.926c-0.158,0-0.245-0.079-0.404-0.079H30.15
	v-0.079c-0.808-2.019-2.747-3.23-4.854-3.23s-4.046,1.291-4.854,3.23v0.079H5.899c-0.158,0-0.325,0-0.404,0.079L7.031,3.967z
	 M1.615,17.625c0-1.94,1.378-3.555,3.151-4.046l1.457,1.861c-0.079,0-0.079,0-0.158,0c-1.861,0-3.476,1.536-3.476,3.476
	s1.536,3.476,3.476,3.476s3.476-1.536,3.476-3.476c0-0.808-0.325-1.536-0.728-2.098c0.404,0.079,0.887,0.079,1.378,0.079h17.704
	c-0.404,0.562-0.728,1.291-0.728,2.019c0,1.861,1.536,3.476,3.476,3.476s3.476-1.536,3.476-3.476c0-1.457-0.974-2.747-2.264-3.23
	l0,0l1.211-1.615c1.211,0.728,2.019,2.019,2.019,3.555v1.053c0,2.264-1.861,4.125-4.125,4.125H5.899
	c-2.264,0-4.125-1.861-4.125-4.125v-1.053H1.615z M6.952,27.894c0,0.325-0.325,0.562-0.728,0.562H3.397
	c-0.404,0-0.728-0.245-0.728-0.562V23.61c0.887,0.562,1.94,0.887,3.072,0.887h1.211L6.952,27.894z M33.222,28.464h-2.827
	c-0.404,0-0.728-0.245-0.728-0.562v-3.397h1.211c1.132,0,2.185-0.325,3.072-0.887v4.283C33.951,28.219,33.626,28.464,33.222,28.464z
	"/>
</svg>
