<?xml version="1.0" encoding="utf-8"?>
<!-- Generator: Adobe Illustrator 17.0.0, SVG Export Plug-In . SVG Version: 6.00 Build 0)  -->
<!DOCTYPE svg PUBLIC "-//W3C//DTD SVG 1.1//EN" "http://www.w3.org/Graphics/SVG/1.1/DTD/svg11.dtd">
<svg version="1.1" id="Слой_1" xmlns="http://www.w3.org/2000/svg" xmlns:xlink="http://www.w3.org/1999/xlink" x="0px" y="0px"
	 width="54.929px" height="45px" viewBox="0 0 54.929 45" enable-background="new 0 0 54.929 45" xml:space="preserve">
<path id="Icon_5_" fill="#009999" d="M54.929,26.437c0-3.634-2.304-6.793-5.451-8.005L46.686,5.451C45.962,2.055,42.803,0,38.444,0
	H16.366c-4.24,0-7.518,2.185-8.242,5.451L5.451,18.432C2.304,19.762,0,22.803,0,26.437v1.58c0,1.936,0.606,3.634,1.698,5.095H1.58
	v8.61C1.58,43.539,3.159,45,5.095,45h4.24c1.936,0,3.515-1.461,3.515-3.278v-5.095h29.228v5.095c0,1.817,1.58,3.278,3.515,3.278
	h4.24c1.936,0,3.515-1.461,3.515-3.278v-8.729c0.974-1.461,1.58-3.147,1.58-4.976L54.929,26.437L54.929,26.437z M45.831,25.713
	c1.461,0,2.791,1.211,2.791,2.791s-1.211,2.791-2.791,2.791s-2.791-1.211-2.791-2.791S44.382,25.713,45.831,25.713z M45.713,22.078
	c-0.368,0.368-0.843,0.843-3.765,0.843H15.273c-2.91,0-3.515-0.368-3.765-0.843l-1.461-1.817h36.259c0.238,0,0.487,0,0.843,0.119
	L45.713,22.078z M11.876,28.385c0,1.461-1.211,2.791-2.791,2.791s-2.791-1.211-2.791-2.791s1.211-2.791,2.791-2.791
	S11.876,26.924,11.876,28.385z M33.219,17.827c0.974-1.58,2.672-2.672,4.608-2.672s3.634,0.974,4.608,2.672H33.219z M10.546,5.95
	c0.606-2.672,3.515-3.634,5.819-3.634h22.197c2.304,0,5.214,0.974,5.819,3.634l2.542,11.888c-0.238,0-0.368-0.119-0.606-0.119
	h-1.093V17.6c-1.211-3.029-4.121-4.846-7.28-4.846s-6.069,1.936-7.28,4.846v0.119H8.848c-0.238,0-0.487,0-0.606,0.119L10.546,5.95z
	 M2.423,26.437c0-2.91,2.067-5.333,4.727-6.069l2.185,2.791c-0.119,0-0.119,0-0.238,0c-2.791,0-5.214,2.304-5.214,5.214
	s2.304,5.214,5.214,5.214s5.214-2.304,5.214-5.214c0-1.211-0.487-2.304-1.093-3.147c0.606,0.119,1.33,0.119,2.067,0.119h26.556
	c-0.606,0.843-1.093,1.936-1.093,3.029c0,2.791,2.304,5.214,5.214,5.214s5.214-2.304,5.214-5.214c0-2.185-1.461-4.121-3.397-4.846
	l0,0l1.817-2.423c1.817,1.093,3.029,3.029,3.029,5.333v1.58c0,3.397-2.791,6.188-6.188,6.188H8.848
	c-3.397,0-6.188-2.791-6.188-6.188v-1.58H2.423V26.437z M10.428,41.841c0,0.487-0.487,0.843-1.093,0.843h-4.24
	c-0.606,0-1.093-0.368-1.093-0.843v-6.425c1.33,0.843,2.91,1.33,4.608,1.33h1.817L10.428,41.841z M49.834,42.696h-4.24
	c-0.606,0-1.093-0.368-1.093-0.843v-5.095h1.817c1.698,0,3.278-0.487,4.608-1.33v6.425C50.926,42.328,50.439,42.696,49.834,42.696z"
	/>
</svg>
