<?xml version="1.0" encoding="utf-8"?>
<!-- Generator: Adobe Illustrator 17.0.0, SVG Export Plug-In . SVG Version: 6.00 Build 0)  -->
<!DOCTYPE svg PUBLIC "-//W3C//DTD SVG 1.1//EN" "http://www.w3.org/Graphics/SVG/1.1/DTD/svg11.dtd">
<svg version="1.1" id="Слой_1" xmlns="http://www.w3.org/2000/svg" xmlns:xlink="http://www.w3.org/1999/xlink" x="0px" y="0px"
	 width="56.307px" height="45px" viewBox="0 0 56.307 45" enable-background="new 0 0 56.307 45" xml:space="preserve">
<g id="Icon_17_">
	<path id="_x34__7_" fill="#009999" d="M30.219,32.798H14.375c-0.37,0-0.848,0.239-1.098,0.609c-0.239,0.37-0.239,0.848,0,1.218
		c1.707,3.415,5.241,5.48,9.026,5.48s7.188-2.077,9.026-5.48c0.239-0.37,0.119-0.848,0-1.218
		C31.079,33.037,30.708,32.798,30.219,32.798z M22.422,37.669c-2.197,0-4.143-0.848-5.612-2.436h11.092
		C26.565,36.821,24.488,37.669,22.422,37.669z"/>
	<circle id="_x33__14_" fill="#009999" cx="14.375" cy="24.261" r="2.806"/>
	<circle id="_x32__8_" fill="#009999" cx="31.198" cy="24.261" r="2.806"/>
	<path id="_x31__8_" fill="#009999" d="M55.089,15.366H43.878C40.833,6.471,32.416,0,22.542,0C12.429,0,3.773,6.71,0.967,15.975
		c-0.119,0.119-0.119,0.239-0.119,0.37C0.239,18.291,0,20.369,0,22.446C0,34.875,10.113,45,22.554,45s22.542-10.125,22.542-22.566
		c0-1.707-0.239-3.295-0.49-4.752h10.483c0.728,0,1.218-0.49,1.218-1.218C56.307,15.736,55.817,15.366,55.089,15.366z
		 M41.311,15.366h-8.776c-0.848-5.241-2.436-9.384-4.513-12.071C34.123,5.003,38.994,9.516,41.311,15.366z M22.542,2.567
		c3.164,0,6.22,5.241,7.438,12.56H15.103C16.321,7.808,19.366,2.567,22.542,2.567z M17.05,3.295
		c-2.077,2.686-3.653,6.949-4.513,12.071H3.761C6.077,9.516,10.96,5.003,17.05,3.295z M42.66,22.685
		c0,11.092-9.026,20.118-20.118,20.118S2.424,33.777,2.424,22.685c0-1.707,0.239-3.295,0.609-4.752h39.006
		C42.409,19.39,42.66,20.978,42.66,22.685z"/>
</g>
</svg>
