<?xml version="1.0" encoding="utf-8"?>
<!-- Generator: Adobe Illustrator 17.0.0, SVG Export Plug-In . SVG Version: 6.00 Build 0)  -->
<!DOCTYPE svg PUBLIC "-//W3C//DTD SVG 1.1//EN" "http://www.w3.org/Graphics/SVG/1.1/DTD/svg11.dtd">
<svg version="1.1" id="Слой_1" xmlns="http://www.w3.org/2000/svg" xmlns:xlink="http://www.w3.org/1999/xlink" x="0px" y="0px"
	 width="37.538px" height="30px" viewBox="0 0 37.538 30" enable-background="new 0 0 37.538 30" xml:space="preserve">
<g id="Icon_17_">
	<path id="_x34__7_" fill="#666666" d="M20.146,21.865H9.583c-0.247,0-0.565,0.159-0.732,0.406c-0.159,0.247-0.159,0.565,0,0.812
		c1.138,2.276,3.494,3.653,6.018,3.653s4.792-1.385,6.018-3.653c0.159-0.247,0.08-0.565,0-0.812
		C20.719,22.024,20.472,21.865,20.146,21.865z M14.948,25.113c-1.465,0-2.762-0.565-3.741-1.624h7.395
		C17.71,24.548,16.325,25.113,14.948,25.113z"/>
	<circle id="_x33__14_" fill="#666666" cx="9.583" cy="16.174" r="1.871"/>
	<circle id="_x32__8_" fill="#666666" cx="20.799" cy="16.174" r="1.871"/>
	<path id="_x31__8_" fill="#666666" d="M36.726,10.244h-7.474C27.222,4.314,21.611,0,15.028,0C8.286,0,2.515,4.473,0.645,10.65
		c-0.08,0.08-0.08,0.159-0.08,0.247C0.159,12.194,0,13.579,0,14.964C0,23.25,6.742,30,15.036,30s15.028-6.75,15.028-15.044
		c0-1.138-0.159-2.197-0.326-3.168h6.989c0.486,0,0.812-0.326,0.812-0.812S37.211,10.244,36.726,10.244z M27.54,10.244h-5.85
		c-0.565-3.494-1.624-6.256-3.009-8.047C22.749,3.335,25.996,6.344,27.54,10.244z M15.028,1.711c2.109,0,4.147,3.494,4.959,8.374
		h-9.918C10.881,5.206,12.911,1.711,15.028,1.711z M11.366,2.197c-1.385,1.791-2.436,4.633-3.009,8.047h-5.85
		C4.051,6.344,7.307,3.335,11.366,2.197z M28.44,15.123c0,7.395-6.018,13.412-13.412,13.412S1.616,22.518,1.616,15.123
		c0-1.138,0.159-2.197,0.406-3.168h26.004C28.273,12.927,28.44,13.985,28.44,15.123z"/>
</g>
</svg>
