<?xml version="1.0" encoding="utf-8"?>
<!-- Generator: Adobe Illustrator 17.0.0, SVG Export Plug-In . SVG Version: 6.00 Build 0)  -->
<!DOCTYPE svg PUBLIC "-//W3C//DTD SVG 1.1//EN" "http://www.w3.org/Graphics/SVG/1.1/DTD/svg11.dtd">
<svg version="1.1" id="Layer_1" xmlns="http://www.w3.org/2000/svg" xmlns:xlink="http://www.w3.org/1999/xlink" x="0px" y="0px"
	 width="36.227px" height="30px" viewBox="462.226 265.435 36.227 30" enable-background="new 462.226 265.435 36.227 30"
	 xml:space="preserve">
<path id="_x31__5_" fill="#707070" d="M498.453,287.617L498.453,287.617v-11.646c0-2.632-2.156-4.788-4.788-4.788h-3.991v-0.961
	c0-2.632-2.156-4.788-4.788-4.788h-7.1c-2.632,0-4.788,2.156-4.788,4.788v0.961h-5.983c-2.632,0-4.788,2.156-4.788,4.788v14.676
	c0,2.632,2.156,4.788,4.788,4.788h26.634c2.632,0,4.788-2.156,4.788-4.788v-3.031h0.017V287.617z M466.952,272.699h6.858
	c0.476,0,0.797-0.321,0.797-0.797v-1.757c0-1.757,1.438-3.186,3.186-3.186h7.022c1.757,0,3.186,1.438,3.186,3.186v1.757
	c0,0.476,0.321,0.797,0.797,0.797h4.788c1.757,0,3.186,1.438,3.186,3.186v10.849h-7.655c0.554-1.117,0.875-2.39,0.875-3.749
	c0-4.866-3.991-8.849-8.849-8.849s-8.849,3.983-8.849,8.849c0,1.359,0.321,2.632,0.875,3.749h-9.405v-10.763
	C463.765,274.214,465.194,272.699,466.952,272.699z M473.974,283.071c0-3.991,3.273-7.256,7.256-7.256s7.256,3.273,7.256,7.256
	c0,3.983-3.273,7.256-7.256,7.256S473.974,287.054,473.974,283.071z M493.672,293.834h-26.721c-1.757,0-3.186-1.438-3.186-3.186
	v-2.234h10.451c1.593,2.156,4.148,3.507,7.022,3.507s5.421-1.359,7.022-3.507h8.615v2.234
	C496.859,292.397,495.422,293.834,493.672,293.834z"/>
</svg>
