<?xml version="1.0" encoding="utf-8"?>
<!-- Generator: Adobe Illustrator 17.0.0, SVG Export Plug-In . SVG Version: 6.00 Build 0)  -->
<!DOCTYPE svg PUBLIC "-//W3C//DTD SVG 1.1//EN" "http://www.w3.org/Graphics/SVG/1.1/DTD/svg11.dtd">
<svg version="1.1" id="Слой_1" xmlns="http://www.w3.org/2000/svg" xmlns:xlink="http://www.w3.org/1999/xlink" x="0px" y="0px"
	 width="54.34px" height="45px" viewBox="0 0 54.34 45" enable-background="new 0 0 54.34 45" xml:space="preserve">
<path id="_x31__5_" fill="#009999" d="M54.34,33.274L54.34,33.274v-17.47c0-3.948-3.234-7.182-7.182-7.182h-5.987v-1.44
	C41.171,3.234,37.937,0,33.989,0h-10.65c-3.948,0-7.182,3.234-7.182,7.182v1.441H7.182C3.234,8.623,0,11.856,0,15.804v22.014
	C0,41.766,3.234,45,7.182,45h39.951c3.948,0,7.182-3.234,7.182-7.182v-4.546h0.025V33.274z M7.088,10.896h10.287
	c0.714,0,1.195-0.481,1.195-1.195V7.066c0-2.636,2.156-4.78,4.78-4.78h10.533c2.636,0,4.78,2.156,4.78,4.78v2.636
	c0,0.714,0.481,1.195,1.195,1.195h7.182c2.636,0,4.78,2.156,4.78,4.78V31.95H40.336c0.832-1.676,1.312-3.585,1.312-5.624
	c0-7.299-5.987-13.274-13.274-13.274S15.1,19.026,15.1,26.326c0,2.039,0.481,3.948,1.312,5.624H2.307V15.806
	C2.308,13.169,4.452,10.896,7.088,10.896z M17.621,26.455c0-5.987,4.91-10.884,10.884-10.884s10.884,4.91,10.884,10.884
	s-4.91,10.884-10.884,10.884S17.621,32.429,17.621,26.455z M47.169,42.599H7.088c-2.636,0-4.78-2.156-4.78-4.78v-3.351h15.676
	c2.39,3.234,6.222,5.26,10.533,5.26s8.131-2.039,10.533-5.26h12.923v3.351C51.948,40.444,49.794,42.599,47.169,42.599z"/>
</svg>
