<?xml version="1.0" encoding="utf-8"?>
<!-- Generator: Adobe Illustrator 17.0.0, SVG Export Plug-In . SVG Version: 6.00 Build 0)  -->
<!DOCTYPE svg PUBLIC "-//W3C//DTD SVG 1.1//EN" "http://www.w3.org/Graphics/SVG/1.1/DTD/svg11.dtd">
<svg version="1.1" id="Слой_1" xmlns="http://www.w3.org/2000/svg" xmlns:xlink="http://www.w3.org/1999/xlink" x="0px" y="0px"
	 width="34.716px" height="45px" viewBox="0 0 34.716 45" enable-background="new 0 0 34.716 45" xml:space="preserve">
<g id="Icon_13_">
	<path id="_x32__11_" fill="#009999" d="M26.583,13.05l3.471-3.833c0.481-0.481,0.364-1.196-0.118-1.677s-1.196-0.364-1.677,0.118
		l-3.951,4.186c-0.481-0.235-1.078-0.481-1.677-0.599l4.783-5.264c0.235-0.235,0.364-0.599,0.364-0.832s-0.235-0.599-0.481-0.832
		l-5.031-4.081C22.031,0.118,21.785,0,21.552,0h-8.5c-0.235,0-0.599,0.118-0.715,0.235L7.306,4.303
		C7.071,4.539,6.943,4.785,6.825,5.136C6.708,5.499,6.943,5.734,7.189,5.968l4.783,5.264c-0.599,0.235-1.078,0.364-1.677,0.599
		L6.462,7.516C5.98,7.035,5.266,7.035,4.785,7.399C4.303,7.88,4.303,8.594,4.667,9.076l3.47,3.833C3.224,16.017,0,21.409,0,27.636
		C0,37.214,7.786,45,17.364,45s17.352-7.773,17.352-17.341C34.719,21.55,31.366,16.039,26.583,13.05z M14.611,10.528L14.611,10.528
		V6.342h5.51v4.186l0,0c-0.832-0.118-1.794-0.235-2.755-0.235C16.405,10.293,15.443,10.411,14.611,10.528z M20.11,3.951H14.6V2.274
		h5.51V3.951z M22.514,7.902v-4.55l2.392,1.91L22.514,7.902z M12.207,3.354v4.55L9.815,5.266L12.207,3.354z M17.366,42.735
		c-8.265,0-14.96-6.706-14.96-14.96s6.706-15.09,14.96-15.09s14.96,6.706,14.96,14.96S25.62,42.735,17.366,42.735z"/>
	<path id="_x31__11_" fill="#009999" d="M17.366,14.479c-7.305,0-13.283,5.991-13.283,13.283s5.991,13.283,13.283,13.283
		s13.283-5.991,13.283-13.283C30.651,20.471,24.66,14.479,17.366,14.479z M17.366,38.551c-5.991,0-10.892-4.913-10.892-10.892
		s4.913-10.892,10.892-10.892s10.892,4.913,10.892,10.892C28.129,33.638,23.346,38.551,17.366,38.551z"/>
</g>
</svg>
