<?xml version="1.0" encoding="utf-8"?>
<!-- Generator: Adobe Illustrator 17.0.0, SVG Export Plug-In . SVG Version: 6.00 Build 0)  -->
<!DOCTYPE svg PUBLIC "-//W3C//DTD SVG 1.1//EN" "http://www.w3.org/Graphics/SVG/1.1/DTD/svg11.dtd">
<svg version="1.1" id="Layer_1" xmlns="http://www.w3.org/2000/svg" xmlns:xlink="http://www.w3.org/1999/xlink" x="0px" y="0px"
	 width="23.144px" height="30px" viewBox="468.382 265.351 23.144 30" enable-background="new 468.382 265.351 23.144 30"
	 xml:space="preserve">
<g id="Icon_13_">
	<path id="_x32__11_" fill="#707070" d="M486.104,274.051l2.314-2.556c0.321-0.321,0.242-0.797-0.078-1.118
		c-0.321-0.321-0.797-0.242-1.118,0.078l-2.634,2.791c-0.321-0.157-0.719-0.321-1.118-0.399l3.189-3.509
		c0.157-0.157,0.242-0.399,0.242-0.555s-0.157-0.399-0.321-0.555l-3.354-2.721c-0.157-0.078-0.321-0.157-0.476-0.157h-5.667
		c-0.157,0-0.399,0.078-0.476,0.157l-3.354,2.712c-0.157,0.157-0.242,0.321-0.321,0.555c-0.078,0.242,0.078,0.399,0.242,0.555
		l3.189,3.509c-0.399,0.157-0.719,0.242-1.118,0.399l-2.556-2.876c-0.321-0.321-0.797-0.321-1.118-0.078
		c-0.321,0.321-0.321,0.797-0.078,1.118l2.313,2.556c-3.275,2.072-5.424,5.667-5.424,9.818c0,6.386,5.19,11.576,11.576,11.576
		c6.386,0,11.568-5.182,11.568-11.561C491.528,279.718,489.292,276.043,486.104,274.051z M478.122,272.37L478.122,272.37v-2.791
		h3.673v2.791l0,0c-0.555-0.078-1.196-0.157-1.837-0.157S478.677,272.292,478.122,272.37z M481.789,267.985h-3.673v-1.118h3.673
		V267.985z M483.391,270.619v-3.033l1.594,1.274L483.391,270.619z M476.52,267.587v3.033l-1.594-1.758L476.52,267.587z
		 M479.959,293.841c-5.51,0-9.974-4.471-9.974-9.974c0-5.503,4.471-10.06,9.974-10.06c5.503,0,9.974,4.471,9.974,9.974
		C489.933,289.284,485.462,293.841,479.959,293.841z"/>
	<path id="_x31__11_" fill="#707070" d="M479.959,275.004c-4.87,0-8.856,3.994-8.856,8.856c0,4.861,3.994,8.856,8.856,8.856
		c4.861,0,8.856-3.994,8.856-8.856C488.816,278.998,484.822,275.004,479.959,275.004z M479.959,291.052
		c-3.994,0-7.261-3.275-7.261-7.261c0-3.986,3.275-7.261,7.261-7.261s7.261,3.275,7.261,7.261
		C487.135,287.776,483.946,291.052,479.959,291.052z"/>
</g>
</svg>
