<?xml version="1.0" encoding="utf-8"?>
<!-- Generator: Adobe Illustrator 17.0.0, SVG Export Plug-In . SVG Version: 6.00 Build 0)  -->
<!DOCTYPE svg PUBLIC "-//W3C//DTD SVG 1.1//EN" "http://www.w3.org/Graphics/SVG/1.1/DTD/svg11.dtd">
<svg version="1.1" id="Слой_1" xmlns="http://www.w3.org/2000/svg" xmlns:xlink="http://www.w3.org/1999/xlink" x="0px" y="0px"
	 width="52.51px" height="45px" viewBox="0 0 52.51 45" enable-background="new 0 0 52.51 45" xml:space="preserve">
<g id="Icon_20_">
	<path id="_x33__15_" fill="#009999" d="M33.052,34.808c0.699,0,1.17-0.471,1.17-1.17c0-0.699-0.471-1.17-1.17-1.17H1.17
		c-0.699,0-1.17,0.471-1.17,1.17c0,0.699,0.471,1.17,1.17,1.17H33.052z"/>
	<path id="_x32__9_" fill="#009999" d="M1.17,30.941h31.87c0.699,0,1.17-0.471,1.17-1.17s-0.471-1.17-1.17-1.17H1.17
		C0.471,28.6,0,29.071,0,29.77S0.469,30.941,1.17,30.941z"/>
	<path id="_x31__9_" fill="#009999" d="M51.334,0h-7.035c-0.586,0-1.055,0.356-1.17,0.94L42.43,4.922H27.19
		c-1.641,0-2.927,1.286-2.927,3.042l0.471,5.98c-1.756-0.23-3.511-0.23-4.924-0.23h-5.394c-4.809,0-13.588,0-13.588,8.906v1.641
		c0,1.641,1.286,2.927,2.927,2.927h26.718c1.641,0,2.927-1.286,2.927-2.927V22.62c0-5.038-2.927-7.265-6.208-8.205l-0.586-6.564
		c0-0.356,0.23-0.586,0.586-0.586h14.771l-5.864,32.226H33.4v-0.356c0-1.641-1.286-2.927-2.927-2.927H3.755
		c-1.641,0-2.927,1.286-2.927,2.927v2.938C0.828,43.715,2.114,45,3.755,45h26.718c1.641,0,2.927-1.286,2.927-2.927v-0.23h8.791
		c1.641,0,2.927-1.286,2.927-2.812l2.353-31.067c0-1.526-1.17-2.812-2.697-2.927l0.471-2.697h6.095c0.699,0,1.17-0.471,1.17-1.17
		S51.918,0,51.334,0z M31.054,22.62v1.641c0,0.356-0.23,0.586-0.586,0.586H3.751c-0.356,0-0.586-0.23-0.586-0.586V22.62
		c0-5.509,3.982-6.564,11.247-6.564h5.394C27.072,16.056,31.054,17.112,31.054,22.62z M31.054,41.958
		c0,0.356-0.23,0.586-0.586,0.586H3.751c-0.356,0-0.586-0.23-0.586-0.586v-2.927c0-0.356,0.23-0.586,0.586-0.586h26.718
		c0.356,0,0.586,0.23,0.586,0.586L31.054,41.958L31.054,41.958z M44.527,7.265c0.356,0,0.586,0.23,0.586,0.471l-2.341,31.056
		c0,0.356-0.23,0.586-0.586,0.586h-3.752l5.864-32.226h0.23L44.527,7.265L44.527,7.265L44.527,7.265z"/>
</g>
</svg>
