<?xml version="1.0" encoding="utf-8"?>
<!-- Generator: Adobe Illustrator 17.0.0, SVG Export Plug-In . SVG Version: 6.00 Build 0)  -->
<!DOCTYPE svg PUBLIC "-//W3C//DTD SVG 1.1//EN" "http://www.w3.org/Graphics/SVG/1.1/DTD/svg11.dtd">
<svg version="1.1" id="Слой_1" xmlns="http://www.w3.org/2000/svg" xmlns:xlink="http://www.w3.org/1999/xlink" x="0px" y="0px"
	 width="64.369px" height="45px" viewBox="0 0 64.369 45" enable-background="new 0 0 64.369 45" xml:space="preserve">
<path id="Icon_4_" fill="#009999" d="M60.337,19.198c0.114-0.928,0.227-1.733,0.227-2.661C60.564,7.397,53.169,0,44.028,0
	C36.281,0,29.915,5.323,28.07,12.493l-3.703-3.002c-1.393-1.393-3.591-1.393-4.86-0.114L0.433,24.759
	c-0.465,0.351-0.578,1.155-0.227,1.62s1.155,0.578,1.62,0.227l2.889-2.31v17.001c0,1.971,1.506,3.465,3.465,3.465h27.523
	c1.971,0,3.465-1.506,3.465-3.465v-8.902c1.269,0.351,2.548,0.578,3.817,0.69v10.759c0,0.69,0.465,1.155,1.155,1.155
	s1.155-0.465,1.155-1.155v-4.168c0.114,0,0.227,0,0.227-0.114l5.901-3.703c1.042,0.351,2.197,0.578,3.352,0.578
	c5.323,0,9.594-4.281,9.594-9.594C64.38,23.831,62.761,20.942,60.337,19.198z M44.14,2.434C52,2.434,58.366,8.8,58.366,16.66
	c0,0.465,0,1.042-0.114,1.506c-1.042-0.351-2.197-0.69-3.352-0.69c-5.323,0-9.594,4.281-9.594,9.594c0,1.269,0.227,2.548,0.69,3.591
	c-0.578,0.114-1.269,0.114-1.845,0.114c-7.86,0-14.226-6.366-14.226-14.226C29.926,8.687,36.28,2.434,44.14,2.434z M45.295,32.97
	c0.69,0,1.269-0.114,1.971-0.227c0.578,0.69,1.155,1.393,1.971,1.971l-3.93,2.424V32.97H45.295L45.295,32.97z M21.704,42.337h-8.439
	V29.493c0-0.465,0.465-0.804,1.042-0.804h6.354c0.578,0,1.042,0.351,1.042,0.804v12.844C21.703,42.337,21.704,42.337,21.704,42.337z
	 M36.858,41.171c0,0.69-0.465,1.155-1.155,1.155H24.139V29.494c0-1.733-1.506-3.126-3.352-3.126h-6.366
	c-1.845,0-3.352,1.393-3.352,3.126v12.832H8.181c-0.69,0-1.155-0.465-1.155-1.155V22.438l14.113-11.214
	c0.465-0.465,1.155-0.465,1.733,0.114l4.86,3.93c0,0.465-0.114,0.928-0.114,1.506c0,6.478,3.817,12.028,9.253,14.803L36.858,41.171
	L36.858,41.171z M54.787,34.239c-3.93,0-7.284-3.24-7.284-7.284s3.24-7.284,7.284-7.284s7.282,3.353,7.282,7.284
	S58.83,34.239,54.787,34.239z"/>
</svg>
