<?xml version="1.0" encoding="utf-8"?>
<!-- Generator: Adobe Illustrator 17.0.0, SVG Export Plug-In . SVG Version: 6.00 Build 0)  -->
<!DOCTYPE svg PUBLIC "-//W3C//DTD SVG 1.1//EN" "http://www.w3.org/Graphics/SVG/1.1/DTD/svg11.dtd">
<svg version="1.1" id="Layer_1" xmlns="http://www.w3.org/2000/svg" xmlns:xlink="http://www.w3.org/1999/xlink" x="0px" y="0px"
	 width="42.913px" height="30px" viewBox="458.654 265.278 42.913 30" enable-background="new 458.654 265.278 42.913 30"
	 xml:space="preserve">
<path id="Icon_4_" fill="#707070" d="M498.879,278.077c0.076-0.619,0.151-1.156,0.151-1.774c0-6.093-4.93-11.024-11.024-11.024
	c-5.165,0-9.409,3.549-10.639,8.329l-2.469-2.001c-0.929-0.929-2.394-0.929-3.24-0.076l-12.716,10.254
	c-0.31,0.234-0.386,0.77-0.151,1.08c0.234,0.31,0.77,0.386,1.08,0.151l1.926-1.54v11.334c0,1.314,1.004,2.31,2.31,2.31h18.349
	c1.314,0,2.31-1.004,2.31-2.31v-5.935c0.846,0.234,1.699,0.386,2.544,0.46v7.173c0,0.46,0.31,0.77,0.77,0.77
	c0.46,0,0.77-0.31,0.77-0.77v-2.779c0.076,0,0.151,0,0.151-0.076l3.934-2.469c0.694,0.234,1.464,0.386,2.235,0.386
	c3.549,0,6.396-2.854,6.396-6.396C501.573,281.165,500.495,279.239,498.879,278.077z M488.08,266.901
	c5.24,0,9.484,4.244,9.484,9.484c0,0.31,0,0.694-0.076,1.004c-0.694-0.234-1.464-0.46-2.235-0.46c-3.549,0-6.396,2.854-6.396,6.396
	c0,0.846,0.151,1.699,0.46,2.394c-0.386,0.076-0.846,0.076-1.23,0.076c-5.24,0-9.484-4.244-9.484-9.484
	C478.604,271.069,482.84,266.901,488.08,266.901z M488.85,287.258c0.46,0,0.846-0.076,1.314-0.151
	c0.386,0.46,0.77,0.929,1.314,1.314l-2.62,1.616v-2.779L488.85,287.258L488.85,287.258z M473.123,293.503h-5.626v-8.563
	c0-0.31,0.31-0.536,0.694-0.536h4.236c0.386,0,0.694,0.234,0.694,0.536v8.563H473.123z M483.226,292.726c0,0.46-0.31,0.77-0.77,0.77
	h-7.709v-8.555c0-1.156-1.004-2.084-2.235-2.084h-4.244c-1.23,0-2.235,0.929-2.235,2.084v8.555h-1.926c-0.46,0-0.77-0.31-0.77-0.77
	v-12.489l9.409-7.476c0.31-0.31,0.77-0.31,1.156,0.076l3.24,2.62c0,0.31-0.076,0.619-0.076,1.004c0,4.319,2.544,8.019,6.169,9.869
	L483.226,292.726L483.226,292.726z M495.179,288.104c-2.62,0-4.856-2.16-4.856-4.856c0-2.696,2.16-4.856,4.856-4.856
	c2.696,0,4.855,2.236,4.855,4.856S497.873,288.104,495.179,288.104z"/>
</svg>
