<?xml version="1.0" encoding="utf-8"?>
<!-- Generator: Adobe Illustrator 17.0.0, SVG Export Plug-In . SVG Version: 6.00 Build 0)  -->
<!DOCTYPE svg PUBLIC "-//W3C//DTD SVG 1.1//EN" "http://www.w3.org/Graphics/SVG/1.1/DTD/svg11.dtd">
<svg version="1.1" id="slider" xmlns="http://www.w3.org/2000/svg"  x="0px" y="0px"
	 width="396px" height="30.001px" viewBox="0 0 396 30.001" enable-background="new 0 0 396 30.001" xml:space="preserve">
<path id="arrowright" fill="#009999" d="M391.69,14.946L378.032,3.563V0L396,15l-17.968,15v-3.553L391.69,14.946z"/>
<path id="sport" fill="#666666" d="M345,15c0-8.266-6.726-15-15-15c-8.275,0-15,6.726-15,15s6.734,15,15.009,15
	c3.732,0,7.139-1.382,9.728-3.565l0,0l0,0C342.975,23.591,345,19.533,345,15z M339.41,24.481c-1.294-0.73-3.732-2.35-4.701-5.352
	c4.375-0.564,7.139-1.786,8.592-2.755C342.975,19.533,341.513,22.377,339.41,24.481z M343.301,14.348
	c-0.564,0.484-3.239,2.43-8.997,3.161v-0.08c-0.73-6.487,3.486-10.458,5.185-11.84C341.76,7.94,343.142,10.942,343.301,14.348z
	 M319.787,23.671c-1.699-2.025-2.835-4.463-3.161-7.219c0.889,0.564,2.35,1.294,4.462,1.866
	C320.843,20.591,320.272,22.535,319.787,23.671z M322.709,18.645c1.056,0.246,2.271,0.405,3.645,0.564
	c0.564,4.621,2.025,7.623,2.922,9.085c-3.161-0.159-6.003-1.382-8.187-3.407C321.486,23.917,322.296,21.647,322.709,18.645z
	 M322.789,17.024c0-0.246,0-0.484,0-0.81c0-6.726-1.54-10.538-1.786-11.188c2.192-1.946,5.027-3.239,8.187-3.407
	c-1.136,1.866-3.161,6.241-3.161,13.301c0,0.977,0.08,1.786,0.08,2.676C324.894,17.43,323.758,17.263,322.789,17.024z
	 M327.736,14.912c0-8.187,3.002-12.65,3.486-13.301c2.676,0.246,5.185,1.294,7.139,2.922c-2.105,1.699-6.408,6.083-5.598,13.054
	c0,0,0,0,0,0.08c-0.889,0.08-1.786,0.08-2.755,0.08c-0.73,0-1.462,0-2.105-0.08C327.736,16.857,327.736,15.889,327.736,14.912z
	 M319.787,6.321c0.484,1.382,1.462,4.868,1.462,9.895c0,0.159,0,0.246,0,0.405c-2.676-0.81-4.137-1.866-4.542-2.192
	C316.785,11.347,317.921,8.512,319.787,6.321z M331.222,28.292c-0.326-0.405-2.43-3.328-3.161-8.918c0.651,0,1.294,0.08,1.946,0.08
	c1.136,0,2.105-0.08,3.081-0.159c0.977,3.328,3.407,5.352,5.027,6.321C336.169,27.078,333.732,28.047,331.222,28.292z"/>
<path id="house" fill="#666666" d="M304.77,12.799c0.076-0.619,0.151-1.156,0.151-1.774c0-6.093-4.93-11.024-11.024-11.024
	c-5.165,0-9.409,3.549-10.639,8.329l-2.469-2.001c-0.929-0.929-2.394-0.929-3.24-0.076l-12.716,10.254
	c-0.31,0.234-0.386,0.77-0.151,1.08c0.234,0.31,0.77,0.386,1.08,0.151l1.926-1.54v11.334c0,1.314,1.004,2.31,2.31,2.31h18.349
	c1.314,0,2.31-1.004,2.31-2.31v-5.935c0.846,0.234,1.699,0.386,2.544,0.46v7.173c0,0.46,0.31,0.77,0.77,0.77
	c0.46,0,0.77-0.31,0.77-0.77v-2.779c0.076,0,0.151,0,0.151-0.076l3.934-2.469c0.694,0.234,1.464,0.386,2.235,0.386
	c3.549,0,6.396-2.854,6.396-6.396C307.464,15.887,306.386,13.961,304.77,12.799z M293.971,1.623c5.24,0,9.484,4.244,9.484,9.484
	c0,0.31,0,0.694-0.076,1.004c-0.694-0.234-1.464-0.46-2.235-0.46c-3.549,0-6.396,2.854-6.396,6.396c0,0.846,0.151,1.699,0.46,2.394
	c-0.386,0.076-0.846,0.076-1.23,0.076c-5.24,0-9.484-4.244-9.484-9.484C284.495,5.791,288.731,1.623,293.971,1.623z M294.741,21.98
	c0.46,0,0.846-0.076,1.314-0.151c0.386,0.46,0.77,0.929,1.314,1.314l-2.62,1.616V21.98H294.741L294.741,21.98z M279.014,28.225
	h-5.626v-8.563c0-0.31,0.31-0.536,0.694-0.536h4.236c0.386,0,0.694,0.234,0.694,0.536v8.563H279.014z M289.117,27.448
	c0,0.46-0.31,0.77-0.77,0.77h-7.709v-8.555c0-1.156-1.004-2.084-2.235-2.084h-4.244c-1.23,0-2.235,0.929-2.235,2.084v8.555h-1.926
	c-0.46,0-0.77-0.31-0.77-0.77V14.959l9.409-7.476c0.31-0.31,0.77-0.31,1.156,0.076l3.24,2.62c0,0.31-0.076,0.619-0.076,1.004
	c0,4.319,2.544,8.019,6.169,9.869L289.117,27.448L289.117,27.448z M301.07,22.826c-2.62,0-4.856-2.16-4.856-4.856
	s2.16-4.856,4.856-4.856c2.696,0,4.855,2.236,4.855,4.856S303.764,22.826,301.07,22.826z"/>
<path id="food" fill="#666666" d="M246.256,23.206c0.466,0,0.78-0.314,0.78-0.78s-0.314-0.78-0.78-0.78h-21.254
	c-0.466,0-0.78,0.314-0.78,0.78s0.314,0.78,0.78,0.78H246.256z M225.002,20.628h21.247c0.466,0,0.78-0.314,0.78-0.78
	s-0.314-0.78-0.78-0.78h-21.247c-0.466,0-0.78,0.314-0.78,0.78S224.535,20.628,225.002,20.628z M258.445,0.001h-4.69
	c-0.391,0-0.704,0.237-0.78,0.627l-0.466,2.655h-10.16c-1.094,0-1.951,0.857-1.951,2.028l0.314,3.986
	c-1.171-0.153-2.341-0.153-3.283-0.153h-3.596c-3.206,0-9.059,0-9.059,5.938v1.094c0,1.094,0.857,1.951,1.951,1.951h17.812
	c1.094,0,1.951-0.857,1.951-1.951v-1.094c0-3.358-1.951-4.843-4.139-5.47l-0.391-4.376c0-0.237,0.153-0.391,0.391-0.391h9.847
	l-3.91,21.484h-1.798v-0.237c0-1.094-0.857-1.951-1.951-1.951h-17.812c-1.094,0-1.951,0.857-1.951,1.951v1.958
	c0,1.094,0.857,1.951,1.951,1.951h17.812c1.094,0,1.951-0.857,1.951-1.951v-0.153h5.861c1.094,0,1.951-0.857,1.951-1.875
	l1.569-20.711c0-1.018-0.78-1.875-1.798-1.951l0.314-1.798h4.063c0.466,0,0.78-0.314,0.78-0.78
	C259.229,0.315,258.834,0.001,258.445,0.001z M244.925,15.081v1.094c0,0.237-0.153,0.391-0.391,0.391h-17.812
	c-0.237,0-0.391-0.153-0.391-0.391v-1.094c0-3.672,2.655-4.376,7.498-4.376h3.596C242.27,10.705,244.925,11.408,244.925,15.081z
	 M244.925,27.973c0,0.237-0.153,0.391-0.391,0.391h-17.812c-0.237,0-0.391-0.153-0.391-0.391v-1.951
	c0-0.237,0.153-0.391,0.391-0.391h17.812c0.237,0,0.391,0.153,0.391,0.391V27.973z M253.907,4.844c0.237,0,0.391,0.153,0.391,0.314
	l-1.561,20.704c0,0.237-0.153,0.391-0.391,0.391h-2.501l3.91-21.484h0.153v0.076L253.907,4.844L253.907,4.844z"/>
<path id="fashion" fill="#666666" d="M204.145,8.701l2.314-2.556c0.321-0.321,0.242-0.797-0.078-1.118
	c-0.321-0.321-0.797-0.242-1.118,0.078l-2.634,2.791c-0.321-0.157-0.719-0.321-1.118-0.399l3.189-3.509
	c0.157-0.157,0.242-0.399,0.242-0.555s-0.157-0.399-0.321-0.555l-3.354-2.721C201.11,0.079,200.946,0,200.791,0h-5.667
	c-0.157,0-0.399,0.078-0.476,0.157l-3.354,2.712c-0.157,0.157-0.242,0.321-0.321,0.555c-0.078,0.242,0.078,0.399,0.242,0.555
	l3.189,3.509c-0.399,0.157-0.719,0.242-1.118,0.399l-2.556-2.876c-0.321-0.321-0.797-0.321-1.118-0.078
	c-0.321,0.321-0.321,0.797-0.078,1.118l2.313,2.556c-3.275,2.072-5.424,5.667-5.424,9.818c0,6.386,5.19,11.576,11.576,11.576
	s11.568-5.182,11.568-11.561C209.569,14.368,207.333,10.693,204.145,8.701z M196.163,7.02L196.163,7.02V4.229h3.673V7.02l0,0
	c-0.555-0.078-1.196-0.157-1.837-0.157S196.718,6.942,196.163,7.02z M199.83,2.635h-3.673V1.517h3.673V2.635z M201.432,5.269V2.236
	l1.594,1.274L201.432,5.269z M194.561,2.237V5.27l-1.594-1.758L194.561,2.237z M198,28.491c-5.51,0-9.974-4.471-9.974-9.974
	s4.471-10.06,9.974-10.06s9.974,4.471,9.974,9.974S203.503,28.491,198,28.491z M198,9.654c-4.87,0-8.856,3.994-8.856,8.856
	c0,4.861,3.994,8.856,8.856,8.856c4.861,0,8.856-3.994,8.856-8.856C206.857,13.648,202.863,9.654,198,9.654z M198,25.702
	c-3.994,0-7.261-3.275-7.261-7.261s3.275-7.261,7.261-7.261s7.261,3.275,7.261,7.261C205.176,22.426,201.987,25.702,198,25.702z"/>
<path id="equipment" fill="#666666" d="M172.113,22.183L172.113,22.183V10.537c0-2.632-2.156-4.788-4.788-4.788h-3.991V4.788
	c0-2.632-2.156-4.788-4.788-4.788h-7.1c-2.632,0-4.788,2.156-4.788,4.788v0.961h-5.983c-2.632,0-4.788,2.156-4.788,4.788v14.676
	c0,2.632,2.156,4.788,4.788,4.788h26.634c2.632,0,4.788-2.156,4.788-4.788v-3.031h0.017v0.001H172.113z M140.612,7.265h6.858
	c0.476,0,0.797-0.321,0.797-0.797V4.711c0-1.757,1.438-3.186,3.186-3.186h7.022c1.757,0,3.186,1.438,3.186,3.186v1.757
	c0,0.476,0.321,0.797,0.797,0.797h4.788c1.757,0,3.186,1.438,3.186,3.186V21.3h-7.655c0.554-1.117,0.875-2.39,0.875-3.749
	c0-4.866-3.991-8.849-8.849-8.849s-8.849,3.983-8.849,8.849c0,1.359,0.321,2.632,0.875,3.749h-9.405V10.537
	C137.425,8.78,138.854,7.265,140.612,7.265z M147.634,17.637c0-3.991,3.273-7.256,7.256-7.256c3.983,0,7.256,3.273,7.256,7.256
	s-3.273,7.256-7.256,7.256C150.907,24.893,147.634,21.62,147.634,17.637z M167.332,28.4h-26.721c-1.757,0-3.186-1.438-3.186-3.186
	V22.98h10.451c1.593,2.156,4.148,3.507,7.022,3.507c2.874,0,5.421-1.359,7.022-3.507h8.615v2.234
	C170.519,26.963,169.082,28.4,167.332,28.4z"/>
<path id="child" fill="#666666" d="M111.218,21.865h-10.563c-0.247,0-0.565,0.159-0.732,0.406c-0.159,0.247-0.159,0.565,0,0.812
	c1.138,2.276,3.494,3.653,6.018,3.653c2.524,0,4.792-1.385,6.018-3.653c0.159-0.247,0.08-0.565,0-0.812
	C111.791,22.024,111.544,21.865,111.218,21.865z M106.02,25.113c-1.465,0-2.762-0.565-3.741-1.624h7.395
	C108.782,24.548,107.397,25.113,106.02,25.113z M100.655,14.303c1.033,0,1.871,0.838,1.871,1.871s-0.838,1.871-1.871,1.871
	s-1.871-0.838-1.871-1.871S99.622,14.303,100.655,14.303z M111.871,14.303c1.033,0,1.871,0.838,1.871,1.871
	s-0.838,1.871-1.871,1.871c-1.033,0-1.871-0.838-1.871-1.871S110.838,14.303,111.871,14.303z M127.798,10.244h-7.474
	C118.294,4.314,112.683,0,106.1,0c-6.742,0-12.513,4.473-14.383,10.65c-0.08,0.08-0.08,0.159-0.08,0.247
	c-0.406,1.297-0.565,2.682-0.565,4.067C91.072,23.25,97.814,30,106.108,30s15.028-6.75,15.028-15.044
	c0-1.138-0.159-2.197-0.326-3.168h6.989c0.486,0,0.812-0.326,0.812-0.812S128.283,10.244,127.798,10.244z M118.612,10.244h-5.85
	c-0.565-3.494-1.624-6.256-3.009-8.047C113.821,3.335,117.068,6.344,118.612,10.244z M106.1,1.711c2.109,0,4.147,3.494,4.959,8.374
	h-9.918C101.953,5.206,103.983,1.711,106.1,1.711z M102.438,2.197c-1.385,1.791-2.436,4.633-3.009,8.047h-5.85
	C95.123,6.344,98.379,3.335,102.438,2.197z M119.512,15.123c0,7.395-6.018,13.412-13.412,13.412
	c-7.394,0-13.412-6.017-13.412-13.412c0-1.138,0.159-2.197,0.406-3.168h26.004C119.345,12.927,119.512,13.985,119.512,15.123z"/>
<path id="auto" fill="#666666" d="M84.31,17.625c0-2.423-1.536-4.529-3.634-5.337l-1.861-8.654C78.332,1.37,76.226,0,73.32,0H58.602
	c-2.827,0-5.012,1.457-5.495,3.634l-1.781,8.654c-2.099,0.887-3.635,2.914-3.635,5.337v1.053c0,1.291,0.404,2.423,1.132,3.397
	h-0.079v5.74c0,1.211,1.053,2.185,2.344,2.185h2.827c1.291,0,2.344-0.974,2.344-2.185v-3.397h19.485v3.397
	c0,1.211,1.053,2.185,2.344,2.185h2.827c1.291,0,2.344-0.974,2.344-2.185v-5.819c0.649-0.974,1.053-2.098,1.053-3.317L84.31,17.625
	L84.31,17.625z M78.245,17.142c0.974,0,1.861,0.808,1.861,1.861s-0.808,1.861-1.861,1.861s-1.861-0.808-1.861-1.861
	S77.279,17.142,78.245,17.142z M78.166,14.719c-0.245,0.245-0.562,0.562-2.51,0.562H57.873c-1.94,0-2.344-0.245-2.51-0.562
	l-0.974-1.211h24.173c0.158,0,0.325,0,0.562,0.079L78.166,14.719z M55.609,18.923c0,0.974-0.808,1.861-1.861,1.861
	c-1.053,0-1.861-0.808-1.861-1.861s0.808-1.861,1.861-1.861C54.801,17.062,55.609,17.949,55.609,18.923z M69.837,11.884
	c0.649-1.053,1.781-1.781,3.072-1.781s2.423,0.649,3.072,1.781H69.837z M54.722,3.967c0.404-1.781,2.344-2.423,3.88-2.423H73.4
	c1.536,0,3.476,0.649,3.88,2.423l1.694,7.926c-0.158,0-0.245-0.079-0.404-0.079h-0.729v-0.079c-0.808-2.019-2.747-3.23-4.854-3.23
	c-2.107,0-4.046,1.291-4.854,3.23v0.079H53.59c-0.158,0-0.325,0-0.404,0.079L54.722,3.967z M49.306,17.625
	c0-1.94,1.378-3.555,3.151-4.046l1.457,1.861c-0.079,0-0.079,0-0.158,0c-1.861,0-3.476,1.536-3.476,3.476s1.536,3.476,3.476,3.476
	c1.94,0,3.476-1.536,3.476-3.476c0-0.808-0.325-1.536-0.728-2.098c0.404,0.079,0.887,0.079,1.378,0.079h17.704
	c-0.404,0.562-0.728,1.291-0.728,2.019c0,1.861,1.536,3.476,3.476,3.476c1.94,0,3.476-1.536,3.476-3.476
	c0-1.457-0.974-2.747-2.264-3.23l0,0l1.211-1.615c1.211,0.728,2.019,2.019,2.019,3.555v1.053c0,2.264-1.861,4.125-4.125,4.125H53.59
	c-2.264,0-4.125-1.861-4.125-4.125v-1.053h-0.159V17.625z M54.643,27.894c0,0.325-0.325,0.562-0.728,0.562h-2.827
	c-0.404,0-0.728-0.245-0.728-0.562V23.61c0.887,0.562,1.94,0.887,3.072,0.887h1.211V27.894z M80.913,28.464h-2.827
	c-0.404,0-0.728-0.245-0.728-0.562v-3.397h1.211c1.132,0,2.185-0.325,3.072-0.887v4.283C81.642,28.219,81.317,28.464,80.913,28.464z
	"/>
<path id="arrowleft" fill="#009999" d="M17.968,26.447V30L0,15L17.968,0v3.563L4.31,14.946L17.968,26.447z"/>
</svg>
