<?xml version="1.0" encoding="utf-8"?>
<!-- Generator: Adobe Illustrator 17.0.0, SVG Export Plug-In . SVG Version: 6.00 Build 0)  -->
<!DOCTYPE svg PUBLIC "-//W3C//DTD SVG 1.1//EN" "http://www.w3.org/Graphics/SVG/1.1/DTD/svg11.dtd">
<svg version="1.1" id="Слой_1" xmlns="http://www.w3.org/2000/svg" xmlns:xlink="http://www.w3.org/1999/xlink" x="0px" y="0px"
	 width="45px" height="45px" viewBox="0 0 45 45" enable-background="new 0 0 45 45" xml:space="preserve">
<path id="Icon_6_" fill="#009999" d="M45,22.5C45,10.1,34.911,0,22.5,0C10.088,0,0,10.089,0,22.5S10.1,45,22.513,45
	c5.598,0,10.709-2.073,14.592-5.348l0,0l0,0C41.962,35.387,45,29.3,45,22.5z M36.614,36.721c-1.941-1.095-5.598-3.525-7.052-8.028
	c6.563-0.845,10.709-2.68,12.888-4.133C41.962,29.3,39.77,33.565,36.614,36.721z M42.451,21.522
	c-0.845,0.726-4.859,3.644-13.495,4.741v-0.119c-1.095-9.731,5.229-15.687,7.778-17.76C40.139,11.911,42.212,16.413,42.451,21.522z
	 M7.18,35.506c-2.549-3.038-4.253-6.695-4.741-10.828c1.334,0.845,3.525,1.941,6.693,2.799C8.765,30.886,7.908,33.803,7.18,35.506z
	 M11.564,27.967c1.584,0.369,3.407,0.608,5.467,0.845c0.845,6.932,3.038,11.435,4.383,13.627c-4.741-0.239-9.005-2.073-12.28-5.111
	C9.73,35.876,10.944,32.47,11.564,27.967z M11.683,25.536c0-0.369,0-0.726,0-1.215c0-10.089-2.31-15.807-2.68-16.783
	c3.288-2.918,7.54-4.859,12.28-5.111c-1.704,2.799-4.741,9.362-4.741,19.951c0,1.465,0.119,2.68,0.119,4.014
	C14.84,26.144,13.137,25.894,11.683,25.536z M19.104,22.368c0-12.28,4.503-18.975,5.229-19.951C28.346,2.786,32.11,4.358,35.041,6.8
	c-3.157,2.549-9.612,9.124-8.397,19.582c0,0,0,0,0,0.119c-1.334,0.119-2.68,0.119-4.133,0.119c-1.095,0-2.192,0-3.157-0.119
	C19.104,25.286,19.104,23.834,19.104,22.368z M7.18,9.481c0.726,2.073,2.192,7.302,2.192,14.842c0,0.239,0,0.369,0,0.608
	c-4.014-1.215-6.206-2.799-6.813-3.288C2.678,17.02,4.382,12.767,7.18,9.481z M24.333,42.438c-0.489-0.608-3.644-4.991-4.741-13.377
	c0.976,0,1.941,0.119,2.918,0.119c1.704,0,3.157-0.119,4.622-0.239c1.465,4.991,5.111,8.028,7.54,9.481
	C31.753,40.617,28.098,42.07,24.333,42.438z"/>
</svg>
