<?xml version="1.0" encoding="utf-8"?>
<!-- Generator: Adobe Illustrator 17.0.0, SVG Export Plug-In . SVG Version: 6.00 Build 0)  -->
<!DOCTYPE svg PUBLIC "-//W3C//DTD SVG 1.1//EN" "http://www.w3.org/Graphics/SVG/1.1/DTD/svg11.dtd">
<svg version="1.1" id="Layer_1" xmlns="http://www.w3.org/2000/svg" xmlns:xlink="http://www.w3.org/1999/xlink" x="0px" y="0px"
	 width="30px" height="30px" viewBox="465.164 265.284 30 30" enable-background="new 465.164 265.284 30 30" xml:space="preserve">
<path id="Icon_6_" fill="#707070" d="M495.164,280.284c0-8.266-6.726-15-15-15c-8.275,0-15,6.726-15,15s6.734,15,15.009,15
	c3.732,0,7.139-1.382,9.728-3.565l0,0l0,0C493.139,288.875,495.164,284.817,495.164,280.284z M489.574,289.765
	c-1.294-0.73-3.732-2.35-4.701-5.352c4.375-0.564,7.139-1.786,8.592-2.755C493.139,284.817,491.677,287.661,489.574,289.765z
	 M493.465,279.632c-0.564,0.484-3.239,2.43-8.997,3.161v-0.08c-0.73-6.487,3.486-10.458,5.185-11.84
	C491.924,273.224,493.306,276.226,493.465,279.632z M469.951,288.955c-1.699-2.025-2.835-4.463-3.161-7.219
	c0.889,0.564,2.35,1.294,4.462,1.866C471.007,285.875,470.436,287.819,469.951,288.955z M472.873,283.929
	c1.056,0.246,2.271,0.405,3.645,0.564c0.564,4.621,2.025,7.623,2.922,9.085c-3.161-0.159-6.003-1.382-8.187-3.407
	C471.65,289.201,472.46,286.931,472.873,283.929z M472.953,282.308c0-0.246,0-0.484,0-0.81c0-6.726-1.54-10.538-1.786-11.188
	c2.192-1.946,5.027-3.239,8.187-3.407c-1.136,1.866-3.161,6.241-3.161,13.301c0,0.977,0.08,1.786,0.08,2.676
	C475.058,282.714,473.922,282.547,472.953,282.308z M477.9,280.196c0-8.187,3.002-12.65,3.486-13.301
	c2.676,0.246,5.185,1.294,7.139,2.922c-2.105,1.699-6.408,6.083-5.598,13.054c0,0,0,0,0,0.08c-0.889,0.08-1.786,0.08-2.755,0.08
	c-0.73,0-1.462,0-2.105-0.08C477.9,282.141,477.9,281.173,477.9,280.196z M469.951,271.605c0.484,1.382,1.462,4.868,1.462,9.895
	c0,0.159,0,0.246,0,0.405c-2.676-0.81-4.137-1.866-4.542-2.192C466.949,276.631,468.085,273.796,469.951,271.605z M481.386,293.576
	c-0.326-0.405-2.43-3.328-3.161-8.918c0.651,0,1.294,0.08,1.946,0.08c1.136,0,2.105-0.08,3.081-0.159
	c0.977,3.328,3.407,5.352,5.027,6.321C486.333,292.362,483.896,293.331,481.386,293.576z"/>
</svg>
