<?xml version="1.0" encoding="utf-8"?>
<!-- Generator: Adobe Illustrator 17.0.0, SVG Export Plug-In . SVG Version: 6.00 Build 0)  -->
<!DOCTYPE svg PUBLIC "-//W3C//DTD SVG 1.1//EN" "http://www.w3.org/Graphics/SVG/1.1/DTD/svg11.dtd">
<svg version="1.1" id="Слой_1" xmlns="http://www.w3.org/2000/svg" xmlns:xlink="http://www.w3.org/1999/xlink" x="0px" y="0px"
	 width="24.79px" height="20.53px" viewBox="0 0 24.79 20.53" enable-background="new 0 0 24.79 20.53" xml:space="preserve">
<g id="Icon_1_">
	<path fill="#FFFFFF" d="M13.005,15.613c1.967,0,3.603-1.582,3.603-3.603s-1.582-3.603-3.603-3.603S9.402,9.995,9.402,12.01
		S11.038,15.613,13.005,15.613z M13.005,9.557c1.363,0,2.512,1.09,2.512,2.512c0,1.416-1.09,2.512-2.512,2.512
		c-1.363,0-2.512-1.09-2.512-2.512S11.642,9.557,13.005,9.557z"/>
	<path fill="#FFFFFF" d="M3.127,8.194h2.4c0.326,0,0.545-0.219,0.545-0.545c0-0.326-0.219-0.545-0.545-0.545h-2.4
		c-0.326,0-0.545,0.219-0.545,0.545C2.582,7.975,2.795,8.194,3.127,8.194z"/>
	<path fill="#FFFFFF" d="M24.79,15.18L24.79,15.18V7.21c0-1.801-1.475-3.277-3.277-3.277h-2.731V3.277
		C18.783,1.475,17.307,0,15.506,0h-4.859C8.846,0,7.371,1.475,7.371,3.277v0.657H3.277C1.475,3.934,0,5.409,0,7.21v10.043
		c0,1.801,1.475,3.277,3.277,3.277h18.227c1.801,0,3.277-1.475,3.277-3.277V15.18H24.79z M3.234,4.971h4.693
		c0.326,0,0.545-0.219,0.545-0.545V3.223c0-1.203,0.983-2.181,2.181-2.181h4.805c1.203,0,2.181,0.983,2.181,2.181v1.203
		c0,0.326,0.219,0.545,0.545,0.545h3.277c1.203,0,2.181,0.983,2.181,2.181v7.424h-5.238c0.379-0.764,0.599-1.636,0.599-2.566
		c0-3.33-2.731-6.056-6.056-6.056S6.89,8.68,6.89,12.01c0,0.93,0.219,1.801,0.599,2.566H1.053V7.21
		C1.053,6.008,2.031,4.971,3.234,4.971z M8.039,12.069c0-2.731,2.24-4.966,4.966-4.966s4.966,2.24,4.966,4.966
		s-2.24,4.966-4.966,4.966S8.039,14.795,8.039,12.069z M21.519,19.435H3.234c-1.203,0-2.181-0.983-2.181-2.181v-1.529h7.152
		c1.09,1.475,2.838,2.4,4.805,2.4s3.709-0.93,4.805-2.4h5.896v1.529C23.7,18.451,22.716,19.435,21.519,19.435z"/>
</g>
</svg>
