<?xml version="1.0" encoding="utf-8"?>
<!-- Generator: Adobe Illustrator 17.0.0, SVG Export Plug-In . SVG Version: 6.00 Build 0)  -->
<!DOCTYPE svg PUBLIC "-//W3C//DTD SVG 1.1//EN" "http://www.w3.org/Graphics/SVG/1.1/DTD/svg11.dtd">
<svg version="1.1" id="Слой_2" xmlns="http://www.w3.org/2000/svg" xmlns:xlink="http://www.w3.org/1999/xlink" x="0px" y="0px"
	 width="55.063px" height="55.063px" viewBox="0 0 55.063 55.063" enable-background="new 0 0 55.063 55.063" xml:space="preserve">
<polygon fill="#009999" points="55.041,55.063 0,55.063 2.929,52.063 55.041,52.063 "/>
<g>
	<path fill="#009999" d="M0,55.063l6.584-19.287L19.287,48.48L0,55.063z M7.012,37.619l-3.343,9.795l3.98,3.982l9.796-3.344
		L7.012,37.619z"/>
</g>
<g>
	
		<rect x="21.075" y="3.517" transform="matrix(0.7071 0.7071 -0.7071 0.7071 22.2682 -9.7269)" fill="#009999" width="3.6" height="37"/>
	
		<rect x="31.247" y="13.688" transform="matrix(0.7071 0.7071 -0.7071 0.7071 32.4395 -13.94)" fill="#009999" width="3.6" height="37"/>
	
		<rect x="26.167" y="8.608" transform="matrix(0.7071 0.7071 -0.7071 0.7071 27.3594 -11.8357)" fill="#009999" width="3.6" height="37"/>
</g>
<path fill="#009999" d="M36.811,5.524l4.939-4.939c0.781-0.781,2.047-0.781,2.828,0l9.899,9.899c0.781,0.781,0.781,2.047,0,2.828
	l-4.939,4.939L36.811,5.524z"/>
</svg>
