<?xml version="1.0" encoding="utf-8"?>
<!-- Generator: Adobe Illustrator 17.0.0, SVG Export Plug-In . SVG Version: 6.00 Build 0)  -->
<!DOCTYPE svg PUBLIC "-//W3C//DTD SVG 1.1//EN" "http://www.w3.org/Graphics/SVG/1.1/DTD/svg11.dtd">
<svg version="1.1" id="Слой_2" xmlns="http://www.w3.org/2000/svg"  x="0px" y="0px"
	 width="118px" height="118.952px" viewBox="0 0 118 118.952" enable-background="new 0 0 118 118.952" xml:space="preserve">
<path fill="#5AB206" d="M0,56.952C0,37.984,0,19.016,0,0c39.234,0,78.469,0,118,0c0,39.618,0,79.285,0,118.952
	c-18.377,0-36.754,0-55.711,0c0-7.083,0.192-13.063-0.034-19.027c-0.838-22.078-13.826-37.58-35.439-41.246
	C18.032,57.189,8.947,57.474,0,56.952z M59.998,23.652c-10.662,0-21.325-0.041-31.987,0.051c-1.357,0.012-3.32,0.289-3.954,1.185
	c-2.544,3.599,0.246,9.62,4.547,10.36c31.732,5.459,50.798,24.23,56.142,55.763c1.002,5.911,4.998,3.916,8.283,4.269
	c3.811,0.409,3.856-2.248,3.858-4.849c0.014-20.658-0.033-41.317,0.05-61.975c0.014-3.579-1.185-4.958-4.953-4.879
	C81.326,23.801,70.661,23.655,59.998,23.652z"/>
<path d="M0,118.952c0-15.333,0-30.667,0-46c15.403,0,30.806,0,46.162,0c0,15.687,0,30.734,0,46
	C30.56,118.952,15.28,118.952,0,118.952z"/>
</svg>
