<?xml version="1.0" encoding="utf-8"?>
<!-- Generator: Adobe Illustrator 17.0.0, SVG Export Plug-In . SVG Version: 6.00 Build 0)  -->
<!DOCTYPE svg PUBLIC "-//W3C//DTD SVG 1.1//EN" "http://www.w3.org/Graphics/SVG/1.1/DTD/svg11.dtd">
<svg version="1.1" id="Слой_1" xmlns="http://www.w3.org/2000/svg" xmlns:xlink="http://www.w3.org/1999/xlink" x="0px" y="0px"
	 width="80px" height="11px" viewBox="0.087 0.289 80 11" enable-background="new 0.087 0.289 80 11" xml:space="preserve">
<g>
	<polygon id="_x31__x2A__2_" fill="#FF6633" points="6.087,0.289 7.57,4.402 12.087,4.49 8.486,7.121 9.795,11.289 6.087,8.802 
		2.379,11.289 3.687,7.121 0.087,4.49 4.604,4.402 	"/>
	<polygon id="_x32__x2A_" fill="#CCCCCC" points="23.087,0.289 24.57,4.402 29.087,4.49 25.486,7.121 26.795,11.289 23.087,8.802 
		19.379,11.289 20.687,7.121 17.087,4.49 21.604,4.402 	"/>
	<polygon id="_x33__x2A__1_" fill="#CCCCCC" points="40.087,0.289 41.57,4.402 46.087,4.49 42.486,7.121 43.795,11.289 
		40.087,8.802 36.379,11.289 37.687,7.121 34.087,4.49 38.604,4.402 	"/>
	<polygon id="_x34__x2A_" fill="#CCCCCC" points="57.087,0.289 58.57,4.402 63.087,4.49 59.486,7.121 60.795,11.289 57.087,8.802 
		53.379,11.289 54.687,7.121 51.087,4.49 55.604,4.402 	"/>
	<polygon id="_x35__x2A_" fill="#CCCCCC" points="74.087,0.289 75.57,4.402 80.087,4.49 76.486,7.121 77.795,11.289 74.087,8.802 
		70.379,11.289 71.687,7.121 68.087,4.49 72.604,4.402 	"/>
</g>
</svg>
