<?xml version="1.0" encoding="utf-8"?>
<!-- Generator: Adobe Illustrator 17.0.0, SVG Export Plug-In . SVG Version: 6.00 Build 0)  -->
<!DOCTYPE svg PUBLIC "-//W3C//DTD SVG 1.1//EN" "http://www.w3.org/Graphics/SVG/1.1/DTD/svg11.dtd">
<svg version="1.1" id="Слой_1" xmlns="http://www.w3.org/2000/svg" xmlns:xlink="http://www.w3.org/1999/xlink" x="0px" y="0px"
	 width="65px" height="65px" viewBox="0 0 65 65" enable-background="new 0 0 65 65" xml:space="preserve">
<g id="No_foto_1_">
	<path id="Color_5_" fill="#CCCCCC" d="M65,64.988L0,64.996C0,65.424,0-0.467,0,0l65,0.008C65-0.862,65,65.788,65,64.988z"/>
	<path id="_x33__7_" fill="#FFFFFF" d="M41.458,10.716l1.355-1.116l-0.337-1.657l-0.255-0.385l0.871,0.449l1.435,1.633l0.518,1.673
		l-0.159,2.39l-0.558,1.594c-0.791,0.58-1.628,1.123-2.343,1.795c0.643,0.828,1.214,1.289,1.269,2.395
		c0.026,0.511-0.016,1.061-0.016,1.578c0,1.67,0.002,3.34,0.001,5.01c-0.002,3.064,0.008,6.128,0.01,9.191
		c0.001,2.181,0.441,4.816-1.43,6.377c-1.295,1.08-3.031,1.019-4.619,1.019c-0.234,0-3.336,0.004-3.336,0.002c0,0,0,4.168,0,4.222
		c0-0.014,1.616,0.006,1.766,0.046c0.629,0.167,0.968,0.601,1.381,1.086c1.117,1.31,1.84,2.916,2.638,4.429l1.748,2.581l-2.91,1.736
		l-15.301,0.774l-3.943-2.581c1.331-2.131,2.42-4.554,3.907-6.564c1.607-2.171,4.575-1.517,6.959-1.507c0,0-0.117-4.238-0.117-4.246
		c-0.004,0.14-2.71-0.138-2.913-0.161c-1.537-0.174-2.527-0.569-3.318-1.984c-0.634-1.136-0.609-3.95-0.634-5.797
		c-0.009-0.623-0.087-2.317-0.19-3.138c-0.476-0.483-1.549-0.268-1.894-1.091c-0.315-0.751-0.408-2.217-0.387-3.38
		c0.027-1.5,0.399-2.344,2.484-2.49l0.664-11.254l0.518-0.996l0.917-0.916l1.26-0.589l1.729-0.238L41.458,10.716z"/>
	<path id="_x32__7_" fill="#999999" d="M30.108,46.887c0.527,1.533,1.013,3.081,1.745,4.545c0.567-1.114,0.555-1.246,1.035-2.306
		c0,0,0.462-1.107,0.991-2.255c1.005-0.114,1.825,0.052,2.199,0.139c1.602,0.377,2.517,2.328,3.167,3.681
		c0.158,0.33,2.091,4.382,2.151,4.337c0,0-3.366,2.51-3.366,2.51H23.186l-3.943-2.581c0,0,1.683-3.072,2.402-4.223
		c0.865-1.386,1.639-3.452,3.48-3.83C26.56,46.609,28.639,46.881,30.108,46.887z"/>
	<path id="_x31__8_" fill="#999999" d="M26.143,24.039c-0.041,0.062-0.086,0.123-0.136,0.181c-0.743,0.866-1.888,0.418-2.868,0.35
		c0.008-1.934,0.042-3.868,0.056-5.802c0.018-2.455-0.602-5.858,1.551-7.581c1.944-1.556,5.54-0.897,7.871-0.878
		c2.017,0.016,4.035,0.026,6.052,0.036c1.177,0.006,3.052,0.454,3.723-0.812c0.511-0.963-0.092-1.772-0.862-2.337
		c2.831,0.693,4.051,3.153,3.895,5.924c-0.182,3.221-3.058,4.011-5.76,3.917c-2.793-0.097-5.601-0.277-8.387,0.037
		c-1.513,0.171-1.795,1.129-1.913,2.456c-0.048,0.543-0.045,1.134-0.331,1.619c-0.454,0.77-1.25,0.678-1.885,1.18
		C26.574,22.782,26.51,23.483,26.143,24.039z"/>
</g>
</svg>
