<?xml version="1.0" encoding="utf-8"?>
<!-- Generator: Adobe Illustrator 17.0.0, SVG Export Plug-In . SVG Version: 6.00 Build 0)  -->
<!DOCTYPE svg PUBLIC "-//W3C//DTD SVG 1.1//EN" "http://www.w3.org/Graphics/SVG/1.1/DTD/svg11.dtd">
<svg version="1.1" id="Слой_1" xmlns="http://www.w3.org/2000/svg" xmlns:xlink="http://www.w3.org/1999/xlink" x="0px" y="0px"
	 width="150px" height="115px" viewBox="0 0 150 115" enable-background="new 0 0 150 115" xml:space="preserve">
<g>
	<path fill="#FFFFFF" d="M53.172,62.776l9.815,9.871l2.491-9.269c11.671-1.379,20.515-7.94,20.515-15.842
		c0-8.903-11.228-16.115-25.078-16.115s-25.078,7.165-25.078,16.069C35.837,54.658,43.111,60.628,53.172,62.776L53.172,62.776
		L53.172,62.776L53.172,62.776z M61.191,53.255h-0.646c0.078-1.319,0.248-2.413,0.509-3.282c0.261-0.868,0.797-2.074,1.606-3.615
		c0.627-1.189,1.035-2.103,1.225-2.743c0.189-0.64,0.284-1.28,0.284-1.92c0-1.345-0.356-2.41-1.068-3.194
		c-0.712-0.784-1.584-1.176-2.615-1.176c-0.914,0-1.633,0.216-2.155,0.646c-0.522,0.431-0.784,0.895-0.784,1.391
		c0,0.392,0.157,0.872,0.47,1.44c0.313,0.568,0.47,0.996,0.47,1.283c0,0.379-0.121,0.699-0.363,0.96
		c-0.241,0.262-0.539,0.392-0.891,0.392c-0.431,0-0.83-0.219-1.195-0.656c-0.366-0.437-0.549-1.048-0.549-1.832
		c0-1.176,0.509-2.224,1.528-3.145c1.019-0.921,2.403-1.381,4.154-1.381c2.168,0,3.762,0.633,4.781,1.9
		c0.757,0.927,1.136,1.953,1.136,3.076c0,0.771-0.173,1.561-0.519,2.371c-0.346,0.81-0.996,1.757-1.95,2.841
		c-1.528,1.738-2.463,2.965-2.802,3.684C61.479,51.015,61.27,52.001,61.191,53.255z M60.976,55.214c0.496,0,0.914,0.173,1.254,0.519
		s0.509,0.761,0.509,1.244c0,0.484-0.173,0.898-0.519,1.244s-0.761,0.519-1.244,0.519c-0.484,0-0.895-0.173-1.235-0.519
		s-0.509-0.761-0.509-1.244c0-0.483,0.17-0.898,0.509-1.244C60.081,55.387,60.493,55.214,60.976,55.214z"/>
	<path fill="#009999" d="M81.833,69.225l9.815,9.871l2.491-9.269c11.671-1.379,20.515-7.94,20.515-15.842
		c0-8.903-11.228-16.115-25.078-16.115S64.498,45.036,64.498,53.94C64.498,61.107,71.772,67.076,81.833,69.225L81.833,69.225
		L81.833,69.225L81.833,69.225z"/>
	<path fill="#FFFFFF" d="M90.532,59.126h-0.608l-1.391-12.774c-0.052-0.562-0.078-0.979-0.078-1.254
		c0-0.653,0.173-1.182,0.519-1.587c0.346-0.405,0.767-0.608,1.264-0.608c0.496,0,0.914,0.203,1.254,0.608
		c0.34,0.405,0.509,1,0.509,1.783c0,0.249-0.019,0.601-0.059,1.058L90.532,59.126z M90.219,61.751c0.483,0,0.895,0.17,1.235,0.509
		c0.34,0.34,0.509,0.744,0.509,1.215c0,0.484-0.17,0.898-0.509,1.244c-0.34,0.346-0.751,0.519-1.235,0.519s-0.898-0.173-1.244-0.519
		c-0.346-0.346-0.519-0.761-0.519-1.244c0-0.47,0.173-0.875,0.519-1.215C89.321,61.922,89.736,61.751,90.219,61.751z"/>
</g>
</svg>
