<?xml version="1.0" encoding="utf-8"?>
<!-- Generator: Adobe Illustrator 17.0.0, SVG Export Plug-In . SVG Version: 6.00 Build 0)  -->
<!DOCTYPE svg PUBLIC "-//W3C//DTD SVG 1.1//EN" "http://www.w3.org/Graphics/SVG/1.1/DTD/svg11.dtd">
<svg version="1.1" id="Слой_1" xmlns="http://www.w3.org/2000/svg" xmlns:xlink="http://www.w3.org/1999/xlink" x="0px" y="0px"
	 width="150px" height="115px" viewBox="0 0 150 115" enable-background="new 0 0 150 115" xml:space="preserve">
<g id="Слой_2">
	<path display="none" fill="#99CCCC" d="M88.367,63.225c0,0.435-0.159,0.861-0.485,1.187l-3.553,3.545
		c-0.652,0.652-1.705,0.652-2.357,0l-3.553-3.545c-0.318-0.318-0.477-0.744-0.485-1.162c0-0.92,0.744-1.672,1.672-1.672h1.455
		v-8.176c0-0.928,0.744-1.672,1.672-1.672h0.836c0.92,0,1.672,0.744,1.672,1.672v8.176h1.455
		C87.615,61.578,88.351,62.314,88.367,63.225z"/>
	<path fill="#99CCCC" d="M102,50.42l-8.19,27.412c0,0.669-0.752,1.212-1.672,1.212H57.862c-0.92,0-1.672-0.543-1.672-1.212L48,50.42
		c0-0.677,0.583-1.789,1.502-1.789h50.995C101.417,48.631,102,49.743,102,50.42z M79.732,68.16c0.326-0.326,0.485-0.752,0.485-1.187
		c-0.017-0.911-0.752-1.647-1.672-1.647H77.09V57.15c0-0.928-0.752-1.672-1.672-1.672h-0.836c-0.928,0-1.672,0.744-1.672,1.672
		v8.176h-1.455c-0.928,0-1.672,0.752-1.672,1.672c0.008,0.418,0.167,0.844,0.485,1.162l3.553,3.545c0.652,0.652,1.705,0.652,2.357,0
		L79.732,68.16z"/>
	<path fill="#009999" d="M61.646,53.713c-0.208,0.412-0.711,0.578-1.123,0.37l-2.239-1.129c-0.412-0.208-0.578-0.711-0.37-1.123
		l12.428-24.63c0.208-0.412,0.711-0.578,1.123-0.37l2.239,1.129c0.412,0.208,0.578,0.711,0.37,1.123L61.646,53.713z"/>
	<path fill="#009999" d="M88.354,53.636c0.208,0.412,0.711,0.578,1.123,0.37l2.239-1.129c0.412-0.208,0.578-0.711,0.37-1.123
		l-12.428-24.63c-0.208-0.412-0.711-0.578-1.123-0.37l-2.239,1.129c-0.412,0.208-0.578,0.711-0.37,1.123L88.354,53.636z"/>
</g>
</svg>
