<?xml version="1.0" encoding="utf-8"?>
<!-- Generator: Adobe Illustrator 17.0.0, SVG Export Plug-In . SVG Version: 6.00 Build 0)  -->
<!DOCTYPE svg PUBLIC "-//W3C//DTD SVG 1.1//EN" "http://www.w3.org/Graphics/SVG/1.1/DTD/svg11.dtd">
<svg version="1.1" id="Слой_2_1_" xmlns="http://www.w3.org/2000/svg" xmlns:xlink="http://www.w3.org/1999/xlink" x="0px"
	 y="0px" width="150px" height="115px" viewBox="0 0 150 115" enable-background="new 0 0 150 115" xml:space="preserve">
<g>
	<path fill="#FFFFFF" d="M75,33.193c-12.286,0-22.245,9.959-22.245,22.245S62.714,77.683,75,77.683s22.245-9.959,22.245-22.245
		S87.286,33.193,75,33.193z M82.491,66.267c-1.373,1.316-3.352,2.075-5.937,2.28l0,4.628c-0.229,0.008-2.763,0-3,0l0-4.625
		c-2.79-0.204-4.82-0.999-6.09-2.384c-1.49-1.625-2.288-3.636-2.392-6.031h3.886c0.12,1.348,0.457,2.381,1.011,3.1
		c1.018,1.303,2.785,1.954,5.301,1.954c1.497,0,2.815-0.325,3.953-0.978c1.138-0.65,1.707-1.658,1.707-3.021
		c0-1.033-0.457-1.819-1.37-2.358c-0.584-0.329-1.737-0.711-3.459-1.146l-3.212-0.809c-2.052-0.509-3.564-1.078-4.537-1.707
		c-1.737-1.093-2.605-2.605-2.605-4.537c0-2.276,0.82-4.118,2.459-5.525c1.382-1.186,3.164-1.872,5.349-2.059l0-4.624
		c0,0,2.772-0.009,3,0l0,4.661c2.736,0.296,4.77,1.33,6.104,3.1c0.974,1.303,1.46,2.71,1.46,4.223c0,0.045,0,0.09,0,0.135h-3.818
		c-0.075-0.913-0.396-1.744-0.966-2.493c-0.929-1.063-2.538-1.595-4.829-1.595c-1.527,0-2.684,0.292-3.47,0.876
		s-1.179,1.355-1.179,2.313c0,1.048,0.517,1.887,1.55,2.516c0.599,0.375,1.482,0.704,2.65,0.988l2.673,0.651
		c2.905,0.704,4.852,1.385,5.84,2.044c1.572,1.033,2.358,2.658,2.358,4.874C84.928,62.861,84.115,64.709,82.491,66.267z"/>
	<path fill="#009999" d="M75,79.183c-13.093,0-23.745-10.651-23.745-23.745S61.907,31.693,75,31.693
		c13.093,0,23.745,10.652,23.745,23.745S88.093,79.183,75,79.183z M75,34.693c-11.439,0-20.745,9.306-20.745,20.745
		S63.561,76.183,75,76.183c11.438,0,20.745-9.306,20.745-20.745S86.438,34.693,75,34.693z"/>
</g>
</svg>
