<?xml version="1.0" encoding="utf-8"?>
<!-- Generator: Adobe Illustrator 17.0.0, SVG Export Plug-In . SVG Version: 6.00 Build 0)  -->
<!DOCTYPE svg PUBLIC "-//W3C//DTD SVG 1.1//EN" "http://www.w3.org/Graphics/SVG/1.1/DTD/svg11.dtd">
<svg version="1.1" id="Слой_3" xmlns="http://www.w3.org/2000/svg" xmlns:xlink="http://www.w3.org/1999/xlink" x="0px" y="0px"
	 width="150px" height="115px" viewBox="0 0 150 115" enable-background="new 0 0 150 115" xml:space="preserve">
<path id="_x33__7_" fill="#FFFFFF" d="M86.326,21.014l1.687-1.389l-0.419-2.062l-0.317-0.479l1.084,0.559l1.786,2.032l0.645,2.082
	l-0.197,2.975l-0.694,1.984c-0.984,0.722-2.027,1.397-2.916,2.234c0.8,1.031,1.511,1.604,1.579,2.981
	c0.032,0.636-0.02,1.321-0.02,1.964c0,2.078,0.003,4.156,0.001,6.236c-0.002,3.813,0.01,7.627,0.013,11.439
	c0.001,2.714,0.549,5.994-1.78,7.936c-1.612,1.344-3.772,1.268-5.749,1.268c-0.291,0-4.151,0.005-4.151,0.002c0,0,0,5.187,0,5.255
	c0-0.018,2.012,0.007,2.198,0.057c0.782,0.207,1.205,0.748,1.719,1.352c1.39,1.631,2.29,3.629,3.283,5.512l2.176,3.212l-3.621,2.161
	l-19.043,0.963l-4.907-3.212c1.657-2.652,3.012-5.668,4.862-8.17c2-2.702,5.694-1.888,8.661-1.876c0,0-0.146-5.275-0.146-5.285
	c-0.005,0.174-3.373-0.172-3.626-0.2c-1.913-0.217-3.145-0.708-4.13-2.469c-0.789-1.414-0.758-4.916-0.789-7.215
	c-0.011-0.775-0.108-2.884-0.237-3.906c-0.592-0.601-1.928-0.333-2.357-1.357c-0.392-0.935-0.507-2.759-0.482-4.206
	c0.033-1.867,0.497-2.917,3.091-3.099l0.827-14.006L65,23.048l1.142-1.14l1.568-0.733l2.152-0.296L86.326,21.014z"/>
<path id="_x32__7_" fill="#009999" d="M72.2,66.03c0.656,1.908,1.261,3.835,2.172,5.656c0.706-1.387,0.691-1.551,1.288-2.87
	c0,0,0.575-1.377,1.233-2.807c1.251-0.142,2.272,0.065,2.737,0.173c1.994,0.469,3.132,2.897,3.941,4.581
	c0.197,0.411,2.602,5.454,2.677,5.398l-4.189,3.124H63.585l-4.907-3.212c0,0,2.095-3.823,2.99-5.256
	c1.077-1.725,2.04-4.296,4.331-4.766C67.784,65.685,70.372,66.023,72.2,66.03z"/>
<path id="_x31__8_" fill="#009999" d="M67.265,37.595c-0.051,0.077-0.107,0.153-0.169,0.225c-0.925,1.077-2.35,0.52-3.57,0.436
	c0.01-2.407,0.052-4.814,0.07-7.221c0.022-3.056-0.749-7.29,1.931-9.435c2.419-1.937,6.895-1.117,9.796-1.092
	c2.51,0.02,5.021,0.032,7.532,0.045c1.465,0.007,3.798,0.565,4.634-1.011c0.636-1.198-0.114-2.206-1.072-2.908
	c3.523,0.862,5.041,3.924,4.847,7.373c-0.227,4.009-3.806,4.992-7.169,4.875c-3.476-0.121-6.97-0.345-10.438,0.046
	c-1.883,0.212-2.234,1.405-2.381,3.057c-0.06,0.676-0.056,1.412-0.412,2.015c-0.565,0.958-1.556,0.844-2.346,1.468
	C67.802,36.03,67.722,36.903,67.265,37.595z"/>
</svg>
