<?xml version="1.0" encoding="utf-8"?>
<!-- Generator: Adobe Illustrator 17.0.0, SVG Export Plug-In . SVG Version: 6.00 Build 0)  -->
<!DOCTYPE svg PUBLIC "-//W3C//DTD SVG 1.1//EN" "http://www.w3.org/Graphics/SVG/1.1/DTD/svg11.dtd">
<svg version="1.1" id="Слой_1" xmlns="http://www.w3.org/2000/svg" xmlns:xlink="http://www.w3.org/1999/xlink" x="0px" y="0px"
	 width="150px" height="115px" viewBox="0 0 150 115" enable-background="new 0 0 150 115" xml:space="preserve">
<path fill="#99CCCC" d="M102,50.418l-8.192,27.41c0,0.669-0.752,1.212-1.672,1.212H57.864c-0.92,0-1.672-0.543-1.672-1.212
	L48,50.418c0-0.677,0.585-1.789,1.505-1.789h50.991C101.415,48.629,102,49.741,102,50.418z M80.216,60.7
	c0-0.435-0.159-0.861-0.485-1.187l-3.553-3.544c-0.652-0.652-1.705-0.652-2.357,0l-3.553,3.544
	c-0.318,0.318-0.476,0.744-0.485,1.162c0,0.92,0.744,1.672,1.672,1.672h1.454v8.175c0,0.928,0.744,1.672,1.672,1.672h0.836
	c0.92,0,1.672-0.744,1.672-1.672v-8.175h1.454C79.464,62.346,80.199,61.611,80.216,60.7z"/>
<path fill="#009999" d="M61.647,53.713c-0.208,0.412-0.711,0.578-1.123,0.369l-2.239-1.129c-0.412-0.208-0.578-0.711-0.369-1.123
	l12.427-24.628c0.208-0.412,0.711-0.578,1.123-0.369l2.239,1.129c0.412,0.208,0.578,0.711,0.369,1.123L61.647,53.713z"/>
<path fill="#009999" d="M88.353,53.635c0.208,0.412,0.711,0.578,1.123,0.369l2.239-1.129c0.412-0.208,0.578-0.711,0.369-1.123
	L79.657,27.125c-0.208-0.412-0.711-0.578-1.123-0.369l-2.239,1.129c-0.412,0.208-0.578,0.711-0.369,1.123L88.353,53.635z"/>
</svg>
