<?xml version="1.0" encoding="utf-8"?>
<!-- Generator: Adobe Illustrator 17.0.0, SVG Export Plug-In . SVG Version: 6.00 Build 0)  -->
<!DOCTYPE svg PUBLIC "-//W3C//DTD SVG 1.1//EN" "http://www.w3.org/Graphics/SVG/1.1/DTD/svg11.dtd">
<svg version="1.1" id="Слой_1" xmlns="http://www.w3.org/2000/svg" xmlns:xlink="http://www.w3.org/1999/xlink" x="0px" y="0px"
	 width="19px" height="20px" viewBox="-3.523 -3.615 19 20" enable-background="new -3.523 -3.615 19 20" xml:space="preserve">
<path fill="#999999" d="M-0.79,8.706c-1.682,1.682-3.989,3.989-1.499,6.479c0.876,0.876,1.762,1.2,2.594,1.2
	c1.854,0,3.463-1.61,4.223-2.362l8.859-8.86c2.379-2.385,2.606-5.371,0.55-7.421c-2.03-2.031-4.821-1.768-7.28,0.692l-8.136,8.143
	c-0.246,0.244-0.246,0.642,0,0.886c0.238,0.244,0.642,0.244,0.88,0L7.544-0.68c0.728-0.728,3.273-2.924,5.507-0.691
	c1.884,1.878,0.882,4.215-0.55,5.646l-8.86,8.865c-2.196,2.197-3.659,2.539-5.042,1.162c-1.358-1.364-0.788-2.421,1.5-4.71
	l7.97-7.972c0.643-0.64,1.609-1.05,2.38-0.28c0.777,0.777,0.366,1.737-0.276,2.381l-7.17,7.176c-0.244,0.244-0.244,0.642,0,0.886
	c0.238,0.238,0.636,0.238,0.882,0l7.176-7.176c1.32-1.322,1.432-2.991,0.274-4.147C10.173-0.704,8.51-0.593,7.182,0.734L-0.79,8.706
	L-0.79,8.706z"/>
</svg>
