<?xml version="1.0" encoding="utf-8"?>
<!-- Generator: Adobe Illustrator 17.0.0, SVG Export Plug-In . SVG Version: 6.00 Build 0)  -->
<!DOCTYPE svg PUBLIC "-//W3C//DTD SVG 1.1//EN" "http://www.w3.org/Graphics/SVG/1.1/DTD/svg11.dtd">
<svg version="1.1" id="Слой_1" xmlns="http://www.w3.org/2000/svg" xmlns:xlink="http://www.w3.org/1999/xlink" x="0px" y="0px"
	 width="22px" height="22px" viewBox="0 0 22 22" enable-background="new 0 0 22 22" xml:space="preserve">
<g id="calendar_3_">
	<path fill="#FF6633" d="M20.167,2.063h-2.98V0.688C17.188,0.307,16.88,0,16.5,0s-0.688,0.307-0.688,0.688v1.375h-4.125V0.688
		C11.688,0.307,11.38,0,11,0s-0.688,0.307-0.688,0.688v1.375H6.188V0.688C6.188,0.307,5.879,0,5.5,0S4.813,0.307,4.813,0.688v1.375
		H1.834C0.821,2.063,0,2.883,0,3.895v16.271C0,21.179,0.821,22,1.834,22h18.334C21.18,22,22,21.179,22,20.166V3.895
		C22,2.883,21.18,2.063,20.167,2.063z M20.625,20.166c0,0.253-0.206,0.459-0.458,0.459H1.834c-0.253,0-0.459-0.206-0.459-0.459
		V3.895c0-0.252,0.206-0.458,0.459-0.458h2.979v1.375C4.813,5.193,5.121,5.5,5.5,5.5s0.688-0.307,0.688-0.688V3.438h4.125v1.375
		C10.313,5.193,10.62,5.5,11,5.5s0.688-0.307,0.688-0.688V3.438h4.125v1.375c0,0.38,0.307,0.688,0.688,0.688
		s0.688-0.307,0.688-0.688V3.438h2.98c0.252,0,0.458,0.206,0.458,0.458V20.166z"/>
	<rect x="4.813" y="8.25" fill="#FF6633" width="2.75" height="2.063"/>
	<rect x="4.813" y="11.688" fill="#FF6633" width="2.75" height="2.063"/>
	<rect x="4.813" y="15.125" fill="#FF6633" width="2.75" height="2.063"/>
	<rect x="9.625" y="15.125" fill="#FF6633" width="2.75" height="2.063"/>
	<rect x="9.625" y="11.688" fill="#FF6633" width="2.75" height="2.063"/>
	<rect x="9.625" y="8.25" fill="#FF6633" width="2.75" height="2.063"/>
	<rect x="14.438" y="15.125" fill="#FF6633" width="2.75" height="2.063"/>
	<rect x="14.438" y="11.688" fill="#FF6633" width="2.75" height="2.063"/>
	<rect x="14.438" y="8.25" fill="#FF6633" width="2.75" height="2.063"/>
</g>
</svg>
