<?xml version="1.0" encoding="utf-8"?>
<!-- Generator: Adobe Illustrator 17.0.0, SVG Export Plug-In . SVG Version: 6.00 Build 0)  -->
<!DOCTYPE svg PUBLIC "-//W3C//DTD SVG 1.1//EN" "http://www.w3.org/Graphics/SVG/1.1/DTD/svg11.dtd">
<svg version="1.1" id="Слой_1" xmlns="http://www.w3.org/2000/svg" xmlns:xlink="http://www.w3.org/1999/xlink" x="0px" y="0px"
	 width="1080px" height="273.155px" viewBox="30 0 1080 273.155" enable-background="new 30 0 1080 273.155" xml:space="preserve">
<path fill="#339999" d="M1110,210.562c0,1.105-0.895,2-2,2H679c-1.105,0-2-0.895-2-2v-21c0-1.105,0.895-2,2-2h429
	c1.105,0,2,0.895,2,2V210.562z"/>
<path fill="#FF9966" d="M482,215.562c0,1.105-0.895,2-2,2H32c-1.105,0-2-0.895-2-2v-21c0-1.105,0.895-2,2-2h448c1.105,0,2,0.895,2,2
	V215.562z"/>
<g id="Box_1_">
	<polygon opacity="0.5" fill="#FFCC99" enable-background="new    " points="609,246.853 670.45,269.721 670.518,216.642 
		609,193.301 	"/>
	<path opacity="0.8" fill="#CCCCCC" enable-background="new    " d="M671.045,273.152l-64.196-24.224v-59.623l66.601,25.132v58.718
		L671.045,273.152z M609.85,246.853l60.601,22.868V216.51l-60.601-22.868V246.853z"/>
	<polygon opacity="0.9" fill="#FFFFFF" enable-background="new    " points="735,246.853 674,269.721 674,216.51 734.65,193.642 	
		"/>
	<path fill="#CCCCCC" d="M671.05,273.154v-58.718l66.601-25.132v59.623l-64.201,24.226L671.05,273.154z M674.05,216.51v53.211
		l60.601-22.868v-53.211L674.05,216.51z"/>
	<polygon opacity="0.5" fill="#99CCCC" enable-background="new    " points="602,187.241 670.45,213.304 671,188.215 602,162.051 	
		"/>
	<path fill="#CCCCCC" d="M673.45,217.76l-74.601-28.453v-31.611l74.601,28.453V217.76z M601.85,187.241l68.601,26.164v-25.189
		l-68.601-26.164V187.241z"/>
	<polygon opacity="0.9" fill="#FFFFFF" enable-background="new    " points="743,187.241 674,213.405 674,188.215 743,162.051 	"/>
	<path fill="#CCCCCC" d="M671.05,217.76v-31.611l73.813-28.153l0.789,0.297v31.014L671.05,217.76z M674.05,188.215v25.189
		l68.601-26.164v-25.189L674.05,188.215z"/>
	<polygon opacity="0.9" fill="#FFFFFF" enable-background="new    " points="740.791,159.697 671.958,184.923 602.73,159.674 
		671.948,134.47 	"/>
	<path fill="#CCCCCC" d="M671.96,188.117l-77.991-28.444l77.983-28.396l72.91,26.717l0.789,3.117L671.96,188.117z M602.73,159.674
		l69.228,25.249l68.833-25.227l-68.843-25.227L602.73,159.674z"/>
</g>
<g id="Coins_2_">
	<polygon fill="#FFFFFF" points="329.702,186.537 329.373,182.59 329.702,181.469 329.373,177.84 329.698,176.576 329.396,173.699 
		353.814,173.513 353.488,176.576 353.737,178.169 353.492,181.469 353.785,182.86 353.573,187.322 352.764,189.888 341.25,191.872 
		329.489,188.222 	"/>
	<polygon fill="#FFFFFF" points="357.715,188.181 357.464,183.872 381.852,183.286 381.544,187.547 381.191,190.144 370,193.279 
		358.503,190.667 	"/>
	<path id="Coins_3_" fill="#CCCCCC" d="M329.377,173.433c0-2.582,5.472-4.674,12.22-4.674c6.749,0,12.22,2.092,12.22,4.674
		s-5.472,4.674-12.22,4.674C334.848,178.107,329.377,176.015,329.377,173.433z M369.653,169.211c6.749,0,12.22-2.092,12.22-4.674
		s-5.472-4.674-12.22-4.674c-6.749,0-12.22,2.095-12.22,4.677C357.433,167.123,362.904,169.211,369.653,169.211z M369.649,173.416
		c6.749,0,12.22-2.092,12.22-4.674c0-0.363-0.12-0.716-0.329-1.058c-1.25,2.068-6.091,3.616-11.888,3.616
		s-10.638-1.548-11.898-3.616c-0.209,0.339-0.325,0.695-0.325,1.058C357.429,171.324,362.901,173.416,369.649,173.416z
		 M369.649,178.309c6.749,0,12.22-2.092,12.22-4.674c0-0.363-0.12-0.716-0.329-1.058c-1.25,2.072-6.091,3.616-11.888,3.616
		s-10.638-1.544-11.898-3.616c-0.209,0.342-0.325,0.692-0.325,1.058C357.429,176.217,362.901,178.309,369.649,178.309z
		 M341.597,182.308c6.749,0,12.22-2.095,12.22-4.674c0-0.363-0.12-0.716-0.329-1.058c-1.257,2.072-6.095,3.616-11.895,3.616
		s-10.638-1.544-11.895-3.616c-0.205,0.342-0.325,0.695-0.325,1.058C329.373,180.216,334.845,182.308,341.597,182.308z
		 M341.597,185.085c-5.8,0-10.638-1.544-11.895-3.616c-0.205,0.339-0.325,0.695-0.325,1.058c-0.003,2.585,5.468,4.674,12.22,4.674
		c1.65,0,3.225-0.123,4.663-0.356c-2.071,0.25,5.596-0.079,7.351-3.482c0.13-0.274,0.209-0.548,0.209-0.835
		c0-0.363-0.12-0.719-0.329-1.058C352.235,183.537,347.397,185.085,341.597,185.085z M329.702,186.537
		c-0.205,0.342-0.325,0.692-0.325,1.058c0,2.582,5.472,4.674,12.22,4.674c0.767,0,1.513-0.034,2.243-0.082
		c7.714-0.167,10.744-2.844,9.734-4.864c-2.438,1.635-3.99,2.677-11.977,2.83C335.797,190.149,330.955,188.605,329.702,186.537z
		 M369.649,183.373c6.749,0,12.22-2.089,12.22-4.67c0-0.363-0.12-0.716-0.329-1.058c-1.25,2.072-6.091,3.616-11.888,3.616
		s-10.638-1.548-11.898-3.619c-0.209,0.342-0.325,0.695-0.325,1.058C357.429,181.281,362.901,183.373,369.649,183.373z
		 M369.653,186.105c-5.797,0-10.638-1.544-11.898-3.619c-0.209,0.342-0.325,0.695-0.325,1.058c0,0.158,0.024,0.312,0.062,0.466
		c0.477,1.191,1.336,2.1,4.352,3.133c2.119,0.671,4.842,1.075,7.81,1.075c6.752,0,12.22-2.092,12.22-4.674
		c0-0.36-0.12-0.716-0.329-1.058C380.291,184.561,375.45,186.105,369.653,186.105z M369.653,191.166
		c-7.543-0.308-11.382-2.294-11.938-2.985c-1.01,2.273,2.627,4.041,6.36,4.581c1.671,0.332,3.564,0.517,5.578,0.517
		c6.752,0,12.22-2.089,12.22-4.67c0-0.363-0.12-0.719-0.329-1.061C380.291,189.622,375.445,191.403,369.653,191.166z"/>
</g>
<g id="Purse_1_">
	<rect x="374" y="148.562" opacity="0.9" fill="#FFFFFF" enable-background="new    " width="58" height="43"/>
	<path fill="#CCCCCC" d="M373.881,146.5c0.164,0.56,0.484,0.628,0.487,1.189c0.026,4.439-0.022,42.844-0.022,43.371
		c18.939,0,37.799,0,56.769,0c0-4.539-0.021-9.196-0.021-13.907c-1.411,0.006-11.885,0.001-17.165-0.002
		c-2.994-0.002-3.97-0.967-3.982-3.933c-0.008-1.88-0.014-3.76,0.002-5.64c0.02-2.449,0.904-3.408,3.32-3.632
		c0.477-0.044,0.957-0.07,1.435-0.07c5.037-0.005,10.074-0.003,15.111-0.003c0.429,0,0.857,0,1.41,0c0-2.13,0-4.119,0-6.109
		c0-1.88-0.022-7.004-0.022-8.329c-1.284,0-43.771,0.029-54.567-0.008c-0.757-0.003-1.519-0.066-2.27-0.167
		c-0.855-0.114-1.535-0.513-1.64-1.465c-0.106-0.959,0.338-1.658,1.245-1.941c2.134-0.666,4.277-1.307,6.439-1.873
		c0.361-0.095,0.834,0.239,1.256,0.374c-0.258,0.447-0.412,1.107-0.797,1.295c-0.773,0.379-1.672,0.503-2.52,0.73
		c-1.06,0.284-2.12,0.566-3.18,0.849c-0.139,0.096-0.185,0.315,0.062,0.372c11.409,0,22.065-0.041,33.64-0.041
		c-1.604-2.13-3.175-4.215-4.824-6.403c10.03-7.189,19.993-14.329,30.052-21.539c1.842,2.555,3.663,5.076,5.479,7.6
		c0.63,0.876,1.284,1.738,1.865,2.646c1.184,1.848,1.003,3.015-0.759,4.324c-2.696,2.001-5.441,3.937-8.165,5.9
		c-3.432,2.474-6.865,4.947-10.263,7.664c1.011,0,2.021-0.002,3.032,0.001c1.72,0.005,3.442-0.043,5.159,0.036
		c1.869,0.086,2.29,0.593,2.299,2.429c0.051,10.357,0.11,20.714,0.156,31.071c0.015,3.317,0.015,6.634-0.003,9.951
		c-0.01,1.837-0.178,1.991-1.996,1.991c-18.76,0.002-37.519,0.003-56.279,0c-1.674,0-1.876-0.198-1.878-1.852
		c-0.006-4.96-0.062-38.624-0.021-43.584c0.005-0.608,0.1-0.661,0.273-1.268C373.21,146.521,373.671,146.506,373.881,146.5z
		 M419.065,170.495c-0.006-2.344-1.75-4.076-4.091-4.062c-2.294,0.014-4.118,1.852-4.088,4.12c0.031,2.274,1.872,4.084,4.15,4.079
		C417.354,174.627,419.071,172.864,419.065,170.495z"/>
	<path fill="#FFFFFF" d="M419.065,170.495c0.006,2.369-1.711,4.133-4.029,4.137c-2.278,0.005-4.119-1.805-4.15-4.079
		c-0.031-2.268,1.793-4.107,4.088-4.12C417.315,166.419,419.059,168.15,419.065,170.495z"/>
	<path fill="#CCCCCC" d="M425.322,115.715c-2.779,1.999-5.467,3.938-8.16,5.868c-5.132,3.679-10.267,7.354-15.4,11.032
		c-0.26,0.186-0.519,0.373-0.773,0.568c-2.013,1.549-2.297,3.049-0.843,5.161c1.745,2.534,3.571,5.012,5.359,7.517
		c0.245,0.343,0.473,0.699,0.533,1.262c-0.325-0.175-0.66-0.332-0.973-0.526c-3.698-2.299-7.396-4.599-11.088-6.907
		c-1.836-1.148-2.18-2.525-1.059-4.335c5.301-8.559,10.606-17.114,15.922-25.664c1.475-2.373,2.645-2.633,5.044-1.154
		c3.469,2.138,6.927,4.294,10.386,6.447C424.604,115.189,424.915,115.429,425.322,115.715z"/>
	<path fill="#CCCCCC" d="M400.702,146.338c-1.949-0.318-3.899-0.634-5.847-0.956c-2.719-0.449-5.441-0.875-8.153-1.362
		c-2.164-0.388-2.83-1.266-2.498-3.41c0.726-4.696,1.521-9.381,2.284-14.071c0.852-5.243,1.712-10.485,2.545-15.731
		c0.463-2.915,1.251-3.565,4.186-3.116c4.415,0.674,8.818,1.421,13.392,2.164c-1.567,2.532-3.054,4.94-4.546,7.346
		c-3.558,5.737-7.123,11.47-10.674,17.212c-2.119,3.425-1.848,4.505,1.579,6.667c2.621,1.653,5.228,3.329,7.841,4.995
		C400.775,146.163,400.738,146.25,400.702,146.338z"/>
	<path fill="#CCCCCC" d="M402.562,138.621c-2.082-1.772-2.087-3.542,0.035-5.071c8.226-5.929,16.468-11.836,24.731-17.714
		c2.132-1.516,3.668-1.027,4.942,1.499C422.371,124.427,412.457,131.531,402.562,138.621z"/>
	<circle fill="#FFFFFF" cx="433.246" cy="131.874" r="4"/>
	<circle fill="#FFFFFF" stroke="#CCCCCC" stroke-miterlimit="10" cx="429.317" cy="134.705" r="3.052"/>
</g>
<path opacity="0.8" fill="#009999" enable-background="new    " d="M524.755,18.094c57.868,0,104.739,46.871,104.739,104.602
	s-46.871,104.602-104.739,104.602s-104.739-46.871-104.739-104.602C420.016,64.828,466.888,18.094,524.755,18.094z"/>
<path fill="#FFFFFF" d="M528.75,216.988c0,0.672-1.504,1.217-2.125,1.217s-1.87-0.457-1.87-1.129s1.248-1.306,1.87-1.306
	S528.75,216.316,528.75,216.988z"/>
<path fill="#FFFFFF" d="M560.844,151.805h40.461c7.754,0,14.098-18.891,14.098-26.363V115.01h0.846c3.102,0,5.498-2.256,5.498-5.075
	V97.247c0-2.82-2.538-5.075-5.498-5.075h-0.846V75.254c0-7.613-6.344-13.675-14.098-13.675h-40.461
	c-7.754,0-14.098,6.203-14.098,13.675v62.735C546.606,145.602,552.95,151.805,560.844,151.805z"/>
<g id="XMLID_2_">
	<g>
		<path fill="#CCCCCC" d="M616.67,99.642v7.9c0,1.27-1.13,2.39-2.54,2.39h-8.17c-0.28,0-0.43,0-0.71-0.14v-1.13h1.41
			c1.27,0,2.4-1.12,2.4-2.53v-5.22c0-1.41-1.13-2.54-2.4-2.54h-1.41v-0.98c0.14-0.14,0.43-0.14,0.71-0.14h8.17
			C615.54,97.252,616.67,98.232,616.67,99.642z"/>
		<path fill="#CCCCCC" d="M615.4,114.872v22.98c0,7.75-6.34,13.95-14.1,13.95h-8.74v31.72h-11.41v-31.72h10
			c7.76,0,14.1-6.34,14.1-13.95v-22.98C605.25,114.872,615.4,114.872,615.4,114.872z"/>
	</g>
</g>
<path fill="#999999" d="M555.064,67.923h34.117c2.115,0,5.216,0.282,5.216,2.82v8.882c0,1.974,9.023,2.82,9.023,9.868v2.679h11.983
	V57.773c0-6.344-6.908-12.406-13.957-12.406h-1.551l0,0h-42.857c-2.82,0-5.075-2.256-5.075-4.934v-0.705
	c0-2.679,2.256-4.793,5.075-4.934h-1.551c-7.754,0-13.957,6.203-13.957,13.816v5.639C541.389,61.72,547.452,67.782,555.064,67.923z"
	/>
<path fill="#666666" d="M555.064,67.923h34.117c2.115,0,5.075,0.987,5.075,3.101v8.6c0,1.974,1.128,4.511,4.229,4.511
	c2.82,0,4.934,2.679,4.934,5.357v2.679h11.983V66.514c0-2.679-3.242-5.78-6.908-5.78c-0.705,0-1.41,0-2.82,0h-57.378
	c-2.961,0-5.498-1.692-6.767-4.229C542.658,62.848,548.156,67.782,555.064,67.923z"/>
<path fill="#CCCCCC" d="M555.064,127.557L555.064,127.557c3.102,2.115,7.472,3.383,12.406,3.383c4.652,0,8.741-1.128,11.842-3.101
	c0.564-0.141,0.987-0.705,0.987-1.41c0-0.846-0.705-1.551-1.551-1.551c-0.423,0-0.846,0.141-1.128,0.564l0,0
	c-2.679,1.551-6.203,2.538-10.291,2.538c-3.947,0-7.613-0.987-10.15-2.397c-0.282-0.282-0.705-0.564-1.128-0.564
	c-0.846,0-1.551,0.705-1.551,1.551C554.5,126.852,554.782,127.275,555.064,127.557z"/>
<path fill="#CCCCCC" d="M558.589,112.754h1.974v-2.961h-0.564c-0.564,0-0.987-0.423-0.987-0.846v-1.269
	c0-0.423,0.423-0.846,0.987-0.846h0.564l0,0h1.974c1.41,0,2.538-1.128,2.538-2.538V99.36h-2.961v3.524
	c0,0.564-0.423,0.846-0.846,0.846h-0.705l0,0h-1.974c-1.41,0-2.538,1.128-2.538,2.538v3.806
	C556.051,111.626,557.179,112.754,558.589,112.754z"/>
<path fill="#666666" d="M577.339,87.096h-0.141c-1.551,0-2.961,1.41-2.961,3.102v4.37c0,1.692,1.269,3.102,2.961,3.102h0.141
	c1.551,0,2.961-1.41,2.961-3.102v-4.37C580.299,88.506,578.889,87.096,577.339,87.096z"/>
<path fill="#666666" d="M554.641,87.096H554.5c-1.551,0-2.961,1.41-2.961,3.102v4.37c0,1.692,1.269,3.102,2.961,3.102h0.141
	c1.551,0,2.961-1.41,2.961-3.102v-4.37C557.602,88.506,556.192,87.096,554.641,87.096z"/>
<path fill="#FFFFFF" d="M530.274,217.622l8.831,3.409l20.189-18.474l16.917-29.323l-7.895-4.511l-17.058,29.605
	C550.271,199.173,530.274,217.622,530.274,217.622z"/>
<path fill="#999999" d="M564.51,199.032l0.564-0.141v33.412c0,0.423,0.141,0.705,0.141,1.128c8.177,1.974,16.776,3.102,25.658,3.102
	c8.318,0,16.353-0.987,24.107-2.679c0-0.423,0.141-0.987,0.141-1.41v-58.083c0-5.639-4.652-10.291-10.291-10.291h-12.406
	l-6.062,15.085L580.3,164.07h-4.934c-3.665,0-6.767,1.833-8.6,4.652l0,0l-13.675,23.825L564.51,199.032z"/>
<path fill="#CCCCCC" d="M601.305,192.688h-36.372v12.124h36.372V192.688z"/>
<g id="XMLID_1_">
	<g>
		<path fill="#CCCCCC" d="M614.98,174.222v58.08c0,0.42-0.14,0.99-0.14,1.41c-4.51,0.99-8.88,1.83-13.54,2.26v-43.28l-15.08-13.68
			l6.06-15.08h10.58h1.83C610.33,163.932,614.98,168.582,614.98,174.222z"/>
	</g>
</g>
<path fill="#FFFFFF" d="M596.653,229.202c0-0.846,0.705-1.551,1.551-1.551h1.551c-0.846,0-1.551-0.705-1.551-1.551
	s0.705-1.551,1.551-1.551h9.445l-2.82-2.82c-0.705-0.705-0.705-1.974,0-2.679s1.974-0.705,2.679,0l3.242,3.242l10.573-18.186
	l-15.648-26.363l8.036-4.511l16.917,28.477l-0.141,0.141c1.269,1.692,1.128,4.229-0.564,5.921c0,0.141-0.141,0.141-0.141,0.141
	l-17.058,27.068c-1.128,1.128-2.538,1.692-3.947,1.692h-0.141h-7.613c-0.846,0-1.551-0.705-1.551-1.551s0.705-1.551,1.551-1.551
	h-2.961c-0.846,0-1.551-0.705-1.551-1.551s0.705-1.551,1.551-1.551h-1.551C597.217,230.47,596.512,229.766,596.653,229.202z"/>
<path fill="#FFFFFF" d="M614.98,192.688h-13.675v12.124h13.675V192.688z"/>
<path fill="#CCCCCC" d="M612.301,200.301l-14.239-24.248l15.226-7.472l13.534,23.684L612.301,200.301z"/>
<g id="Men1_1_">
	<path fill="#FCDBB0" d="M522.03,150.551h-39.449c-7.56,0-13.745-18.419-13.745-25.704v-10.172h-0.825
		c-3.024,0-5.361-2.199-5.361-4.948V97.356c0-2.749,2.474-4.948,5.361-4.948h0.825V75.914c0-7.422,6.185-13.333,13.745-13.333
		h39.449c7.56,0,13.745,6.048,13.745,13.333v61.167C535.775,144.503,529.59,150.551,522.03,150.551z"/>
	<path fill="#C79979" d="M478.732,98.456h-1.375c-1.237,0-2.337,1.1-2.337,2.474v5.086c0,1.375,1.1,2.474,2.337,2.474h1.375v1.1
		c-0.275,0.137-0.412,0.137-0.687,0.137h-7.972c-1.375,0-2.474-1.1-2.474-2.337v-7.697c0-1.375,1.1-2.337,2.474-2.337h7.972
		c0.275,0,0.55,0,0.687,0.137V98.456z M478.732,136.943c0,7.422,6.185,13.608,13.745,13.608h9.759v30.927h-11.134v-30.927h-8.522
		c-7.56,0-13.745-6.048-13.745-13.608v-22.405h9.897V136.943z"/>
	<path fill="#262C34" d="M527.666,68.766h-33.264c-2.062,0-5.086,0.275-5.086,2.749v8.66c0,1.924-8.797,2.749-8.797,9.622v2.612
		h-11.821V58.87c0-6.185,6.735-12.096,13.608-12.096h1.512l0,0h41.786c2.749,0,4.948-2.199,4.948-4.811v-0.687
		c0-2.612-2.199-4.673-4.948-4.811h1.512c7.56,0,13.608,6.048,13.608,13.47v5.498C540.999,62.718,535.088,68.629,527.666,68.766z"/>
	<path fill="#131619" d="M527.666,68.766h-33.264c-2.062,0-4.948,0.962-4.948,3.024v8.385c0,1.924-1.1,4.398-4.124,4.398
		c-2.749,0-4.811,2.612-4.811,5.223v2.612h-11.821V67.392c0-2.612,3.161-5.636,6.735-5.636c0.687,0,1.375,0,2.749,0h55.943
		c2.887,0,5.361-1.649,6.598-4.124C539.762,63.818,534.263,68.629,527.666,68.766z"/>
	<path fill="#B87B6D" d="M527.666,126.909L527.666,126.909c-3.024,2.062-7.285,3.299-12.096,3.299c-4.536,0-8.522-1.1-11.546-3.024
		c-0.55-0.137-0.962-0.687-0.962-1.375c0-0.825,0.687-1.512,1.512-1.512c0.412,0,0.825,0.137,1.1,0.55l0,0
		c2.612,1.512,6.048,2.474,10.034,2.474c3.849,0,7.422-0.962,9.897-2.337c0.275-0.275,0.687-0.55,1.1-0.55
		c0.825,0,1.512,0.687,1.512,1.512C528.078,126.222,527.941,126.634,527.666,126.909z"/>
	<path fill="#DD9760" d="M524.092,112.476h-1.924v-2.887h0.55c0.55,0,0.962-0.412,0.962-0.825v-1.237
		c0-0.412-0.412-0.825-0.962-0.825h-0.55l0,0h-1.924c-1.375,0-2.474-1.1-2.474-2.474v-4.811h2.887v3.436
		c0,0.55,0.412,0.825,0.825,0.825h0.687l0,0h1.924c1.375,0,2.474,1.1,2.474,2.474v3.711
		C526.566,111.377,525.466,112.476,524.092,112.476z"/>
	<path fill="#272C34" d="M505.948,87.46h0.137c1.512,0,2.887,1.375,2.887,3.024v4.261c0,1.649-1.237,3.024-2.887,3.024h-0.137
		c-1.512,0-2.887-1.375-2.887-3.024v-4.261C503.062,88.834,504.299,87.46,505.948,87.46z"/>
	<path fill="#272C34" d="M528.078,87.46h0.137c1.512,0,2.886,1.375,2.886,3.024v4.261c0,1.649-1.237,3.024-2.886,3.024h-0.137
		c-1.512,0-2.887-1.375-2.887-3.024v-4.261C525.192,88.834,526.429,87.46,528.078,87.46z"/>
	<path fill="#FCDBB0" d="M530.716,199.672l0.423,0.282l-16.071,27.773v-17.34h-0.423l7.472-12.829L505.2,168.235l7.895-4.511
		l17.058,29.605c0.987,0.846,1.692,2.115,1.692,3.524C531.703,197.839,531.28,198.826,530.716,199.672z"/>
	<path fill="#00243A" d="M468.836,230.411c0-0.412-0.137-0.962-0.137-1.375v-56.631c0-5.498,4.536-10.034,10.034-10.034h12.096
		l5.91,14.707l5.91-14.707h4.811c3.574,0,6.598,1.787,8.385,4.536l0,0l13.333,23.23l-11.409,6.46l-0.55-0.825v33.264
		c0,0.412-0.137,0.687-0.137,1.1c-7.972,1.924-16.357,3.024-25.016,3.024C484.093,233.16,476.258,232.198,468.836,230.411z"/>
	<path fill="#F77347" d="M481.894,190.412h35.463v11.821h-35.463L481.894,190.412L481.894,190.412z"/>
	<path fill="#02121F" d="M486.292,183.127l1.512,13.195l-5.91,2.337v33.951c-4.536-0.412-8.797-1.237-13.195-2.199
		c0-0.412-0.137-0.962-0.137-1.375v-56.631c0-5.498,4.536-10.034,10.034-10.034h1.787l0,0h10.309l5.91,14.707L486.292,183.127z"/>
	<path fill="#FCDBB0" d="M519.169,223.92c0,0.846-0.705,1.551-1.551,1.551h-1.551c-0.846,0-1.551-0.705-1.551-1.551
		s0.705-1.551,1.551-1.551h-1.551c-0.846,0-1.551-0.705-1.551-1.551s0.705-1.551,1.551-1.551h-1.551
		c-0.846,0-1.551-0.705-1.551-1.551s0.705-1.551,1.551-1.551h4.511c0.846,0,1.551,0.705,1.551,1.551s-0.705,1.551-1.551,1.551
		c0.846,0,1.551,0.705,1.551,1.551s-0.705,1.551-1.551,1.551C518.464,222.369,519.169,223.074,519.169,223.92z M519.169,227.021
		c0,0.846-0.705,1.551-1.551,1.551s-1.551-0.705-1.551-1.551s0.705-1.551,1.551-1.551S519.169,226.175,519.169,227.021z"/>
	<path fill="#FCDBB0" d="M526.455,217.536l4.248-2.533c0.84-0.49,2.036-0.175,2.526,0.665s0.175,2.036-0.665,2.526l-2.29-0.571
		l8.906,2.344c0.798,0.21,1.287,1.049,1.077,1.847c-0.21,0.798-1.049,1.287-1.847,1.077l1.462,0.385
		c0.798,0.21,1.287,1.049,1.077,1.847c-0.007,0.567-0.847,1.056-1.644,0.846l-1.462-0.385c0.798,0.21,1.287,1.049,1.077,1.847
		c-0.21,0.798-1.049,1.287-1.847,1.077l-2.791-0.735c0.798,0.21,1.287,1.049,1.077,1.847c-0.21,0.798-1.049,1.287-1.847,1.077
		l-7.178-1.889l-0.133-0.035c-1.329-0.35-2.519-1.231-3.302-2.575"/>
	<path fill="#FCDBB0" d="M522.9,226.199l-39.219-11.046c-1.237-0.412-1.924-0.687-2.887-1.649c-0.962-0.962-1.237-1.649-1.649-3.161
		l-3.436-13.47l8.66-2.474l3.299,12.646l38.788,10.492l0.111,0.092"/>
	<g id="Пальцы_1_">
		<ellipse fill="#FFFFFF" cx="525.283" cy="228.285" rx="1.383" ry="1.004"/>
		<ellipse fill="#FFFFFF" cx="527.283" cy="229.285" rx="1.383" ry="1.004"/>
		<ellipse fill="#FFFFFF" cx="529.283" cy="230.285" rx="1.383" ry="1.004"/>
	</g>
</g>
<path opacity="0.9" fill="#FFFFFF" stroke="#CCCCCC" stroke-miterlimit="10" enable-background="new    " d="M751.52,110.325h-122.3
	l0.412,0.412l-17.594,17.731l-17.594-17.731l0.412-0.412h-24.192c-7.422,0-13.608-6.048-13.608-13.333V13.833
	c0-7.422,6.048-13.333,13.608-13.333h180.993c7.422,0,13.608,6.048,13.608,13.333v83.159
	C765.128,104.414,759.08,110.325,751.52,110.325z"/>
</svg>
