<?xml version="1.0" encoding="utf-8"?>
<!-- Generator: Adobe Illustrator 17.0.0, SVG Export Plug-In . SVG Version: 6.00 Build 0)  -->
<!DOCTYPE svg PUBLIC "-//W3C//DTD SVG 1.1//EN" "http://www.w3.org/Graphics/SVG/1.1/DTD/svg11.dtd">
<svg version="1.1" id="Слой_1" xmlns="http://www.w3.org/2000/svg" xmlns:xlink="http://www.w3.org/1999/xlink" x="0px" y="0px"
	 width="1080px" height="289.318px" viewBox="30 0.001 1080 289.318" enable-background="new 30 0.001 1080 289.318"
	 xml:space="preserve">
<path fill="#339999" d="M1110,218.69c0,1.105-0.895,2-2,2H679c-1.105,0-2-0.895-2-2v-21c0-1.105,0.895-2,2-2h429
	c1.105,0,2,0.895,2,2V218.69z"/>
<path fill="#FF9966" d="M482,223.69c0,1.105-0.895,2-2,2H32c-1.105,0-2-0.895-2-2v-21c0-1.105,0.895-2,2-2h448c1.105,0,2,0.895,2,2
	V223.69z"/>
<rect x="765.058" y="118.791" transform="matrix(-0.9985 -0.055 0.055 -0.9985 1585.5969 308.2181)" fill="none" width="63.963" height="26.999"/>
<text transform="matrix(0.9985 0.055 -0.055 0.9985 764.4857 142.5983)" fill="#CCCCCC" font-family="'Helvetica-5-Normal'" font-size="36">250  </text>
<rect x="352.006" y="69.655" transform="matrix(-0.9964 -0.0852 0.0852 -0.9964 760.4486 198.7642)" fill="none" width="64.918" height="27.002"/>
<text transform="matrix(0.9964 0.0852 -0.0852 0.9964 351.0807 92.4751)" fill="#CCCCCC" font-family="'Helvetica-5-Normal'" font-size="36.0039">500  </text>
<polygon fill="none" points="247.829,37.542 164.419,33.068 169.732,6.458 253.142,10.932 "/>
<text transform="matrix(0.9976 0.0688 -0.0688 0.9976 167.8904 30.742)" fill="#CCCCCC" font-family="'Helvetica-5-Normal'" font-size="36">1000  </text>
<polygon fill="#FFFFFF" stroke="#CCCCCC" stroke-width="6" stroke-miterlimit="10" points="167.249,41.066 330.915,46.431 
	340.925,102.302 743.991,116.319 752.34,149.908 907.523,157.778 905.851,142.39 956.015,171.565 901.169,190.886 906.186,178.178 
	733.52,171.671 725.49,134.876 321.5,123.352 311.256,69.154 156.73,66.48 "/>
<path opacity="0.8" fill="#009999" enable-background="new    " d="M524.755,26.041c57.868,0,104.739,46.871,104.739,104.602
	s-46.871,104.602-104.739,104.602s-104.739-46.871-104.739-104.602C420.016,72.775,466.888,26.041,524.755,26.041z"/>
<g id="Clock_2_">
	<circle opacity="0.9" fill="#FFFFFF" enable-background="new    " cx="612.272" cy="214.082" r="72.5"/>
	<path fill="#CCCCCC" d="M612.17,139.319c-41.418,0-74.995,33.582-74.995,75c0,41.423,33.577,75,74.995,75
		c41.423,0,74.995-33.577,74.995-75C687.17,172.901,653.598,139.319,612.17,139.319z M661.732,252.54l-6.792-5.594
		c-0.278-0.234-0.691-0.189-0.92,0.099c-0.229,0.269-0.189,0.681,0.09,0.91l6.837,5.624c-2.73,3.391-5.793,6.494-9.154,9.233
		l-5.524-7.065c-0.219-0.278-0.631-0.323-0.915-0.109c-0.283,0.224-0.333,0.636-0.109,0.92l5.514,7.06
		c-3.182,2.491-6.613,4.669-10.248,6.523l-4.142-7.831c-0.164-0.323-0.557-0.443-0.875-0.278c-0.318,0.159-0.438,0.562-0.268,0.88
		l4.127,7.816c-3.973,1.914-8.159,3.456-12.54,4.505l-1.676-9.378c-0.065-0.358-0.403-0.582-0.751-0.537
		c-0.358,0.08-0.592,0.408-0.527,0.761l1.681,9.397c-3.311,0.726-6.693,1.228-10.178,1.402v-11.182c0-1.755-1.422-3.187-3.177-3.187
		c-1.76,0-3.187,1.432-3.187,3.187v11.182c-2.904-0.144-5.738-0.542-8.527-1.074l1.407-7.881c0.065-0.353-0.174-0.696-0.527-0.746
		c-0.348-0.06-0.691,0.164-0.756,0.517l-1.402,7.856c-4.281-0.905-8.408-2.203-12.311-3.923l3.625-6.876
		c0.169-0.318,0.045-0.716-0.273-0.885c-0.313-0.154-0.711-0.035-0.88,0.283l-3.655,6.926c-3.659-1.7-7.1-3.769-10.332-6.111
		l5.121-6.553c0.219-0.288,0.169-0.696-0.109-0.92c-0.288-0.224-0.696-0.164-0.92,0.109l-5.126,6.568
		c-3.436-2.61-6.613-5.564-9.442-8.826l6.732-5.534c0.273-0.224,0.318-0.636,0.089-0.925c-0.229-0.268-0.641-0.313-0.92-0.094
		l-6.772,5.589c-2.745-3.302-5.116-6.921-7.145-10.74l7.931-4.167c0.318-0.164,0.443-0.562,0.273-0.875
		c-0.169-0.328-0.557-0.438-0.875-0.283l-7.916,4.157c-2.103-4.177-3.814-8.592-4.947-13.236l9.179-1.715
		c0.353-0.065,0.582-0.413,0.517-0.756c-0.07-0.358-0.403-0.582-0.761-0.517l-9.189,1.715c-0.751-3.391-1.278-6.867-1.457-10.447
		h10.68c1.76,0,3.182-1.422,3.182-3.187c0-1.76-1.427-3.187-3.182-3.187h-10.69c0.179-3.436,0.676-6.787,1.382-10.054
		c0.04,0.005,0.06,0.055,0.104,0.055l10.233,1.924c0.04,0.01,0.085,0.01,0.119,0.01c0.308,0,0.577-0.224,0.641-0.532
		c0.065-0.353-0.169-0.696-0.517-0.761l-10.238-1.924c-0.035-0.01-0.075,0.02-0.109,0.02c1.129-4.788,2.844-9.348,5.002-13.644
		l9.019,4.729c0.094,0.06,0.199,0.09,0.298,0.09c0.234,0,0.462-0.129,0.577-0.343c0.174-0.328,0.05-0.716-0.273-0.88l-9.029-4.758
		c2.068-3.898,4.48-7.583,7.294-10.944l7.727,6.369c0.129,0.094,0.268,0.144,0.418,0.144c0.189,0,0.373-0.08,0.502-0.234
		c0.224-0.283,0.189-0.696-0.089-0.915l-7.677-6.32c2.899-3.316,6.146-6.32,9.676-8.96l5.852,7.478
		c0.124,0.169,0.318,0.254,0.512,0.254c0.139,0,0.278-0.05,0.398-0.139c0.278-0.229,0.333-0.631,0.114-0.91l-5.837-7.468
		c3.297-2.377,6.817-4.455,10.551-6.146l4.152,7.861c0.119,0.234,0.343,0.353,0.577,0.353c0.104,0,0.209-0.03,0.308-0.085
		c0.313-0.159,0.438-0.552,0.268-0.88l-4.097-7.752c4.008-1.725,8.234-3.008,12.634-3.873l1.551,8.686
		c0.055,0.313,0.328,0.537,0.636,0.537c0.04,0,0.08,0,0.119-0.01c0.358-0.07,0.587-0.413,0.522-0.751l-1.551-8.706
		c2.501-0.433,5.037-0.771,7.632-0.905c0,0.055-0.03,0.094-0.03,0.134v11.67c0,1.76,1.432,3.187,3.187,3.187
		s3.177-1.422,3.177-3.187v-11.665c0-0.045-0.02-0.085-0.02-0.134c3.52,0.174,6.946,0.691,10.287,1.422l-1.77,9.91
		c-0.065,0.358,0.169,0.696,0.527,0.761c0.04,0.01,0.075,0.01,0.109,0.01c0.308,0,0.587-0.229,0.641-0.532l1.77-9.905
		c4.44,1.069,8.661,2.65,12.669,4.599l-4.351,8.244c-0.169,0.318-0.05,0.721,0.269,0.885c0.099,0.05,0.204,0.075,0.303,0.075
		c0.234,0,0.457-0.124,0.572-0.353l4.361-8.249c3.655,1.875,7.095,4.077,10.282,6.613l-5.778,7.389
		c-0.224,0.283-0.174,0.686,0.109,0.91c0.129,0.085,0.268,0.134,0.408,0.134c0.194,0,0.383-0.094,0.517-0.254l5.788-7.404
		c3.371,2.784,6.424,5.937,9.139,9.373l-7.085,5.832c-0.273,0.224-0.313,0.636-0.089,0.915c0.129,0.164,0.318,0.239,0.502,0.239
		c0.149,0,0.293-0.045,0.418-0.149l7.046-5.803c2.605,3.431,4.878,7.12,6.742,11.033l-7.801,4.102
		c-0.313,0.154-0.443,0.562-0.273,0.875c0.114,0.224,0.343,0.353,0.577,0.353c0.104,0,0.204-0.03,0.303-0.075l7.776-4.087
		c1.899,4.206,3.282,8.686,4.206,13.325l-8.303,1.556c-0.353,0.065-0.582,0.413-0.517,0.756c0.065,0.308,0.333,0.532,0.636,0.532
		c0.05,0,0.085,0,0.129-0.02l8.308-1.551c0.462,2.59,0.83,5.216,0.965,7.906h-10.77c-1.755,0-3.182,1.427-3.182,3.187
		s1.427,3.187,3.182,3.187h10.77c-0.139,2.869-0.547,5.668-1.059,8.418l-8.214-1.546c-0.348-0.055-0.696,0.179-0.766,0.527
		c-0.065,0.343,0.169,0.691,0.517,0.756l8.209,1.536c-0.974,4.624-2.397,9.059-4.316,13.241l-7.573-3.973
		c-0.313-0.169-0.716-0.05-0.88,0.268c-0.169,0.318-0.04,0.716,0.273,0.875l7.588,3.983
		C666.63,245.494,664.348,249.149,661.732,252.54z"/>
	<path fill="#CCCCCC" d="M653.046,211.132h-35.695c-1.089-1.765-2.953-3.008-5.181-3.008c-0.726,0-1.397,0.184-2.044,0.423
		l-24.702-24.702c-1.243-1.248-3.257-1.248-4.5,0c-1.248,1.243-1.248,3.257,0,4.495l25.214,25.219
		c-0.035,0.268-0.149,0.497-0.149,0.756c0,1.929,0.905,3.625,2.282,4.768l-17.547,31.146l1.845,1.039l17.547-31.146
		c0.646,0.229,1.333,0.378,2.058,0.378c2.228,0,4.087-1.238,5.181-3.003h35.695c1.755,0,3.182-1.422,3.182-3.187
		C656.228,212.559,654.801,211.132,653.046,211.132z"/>
	
		<rect x="599.523" y="217.155" transform="matrix(-0.8707 -0.4917 0.4917 -0.8707 1007.8201 735.1188)" fill="#FF6633" width="2" height="35.903"/>
	<circle fill="#00A99D" cx="611.968" cy="214.132" r="6.143"/>
</g>
<path fill="#FCDBB0" d="M524.566,155.752h-40.461c-7.754,0-14.098-18.891-14.098-26.363v-10.432h-0.846
	c-3.102,0-5.498-2.256-5.498-5.075v-12.688c0-2.82,2.538-5.075,5.498-5.075h0.846V79.201c0-7.613,6.344-13.675,14.098-13.675h40.461
	c7.754,0,14.098,6.203,14.098,13.675v62.735C538.804,149.549,532.46,155.752,524.566,155.752z"/>
<path fill="#C79979" d="M480.158,102.322h-1.41c-1.269,0-2.397,1.128-2.397,2.538v5.216c0,1.41,1.128,2.538,2.397,2.538h1.41v1.128
	c-0.282,0.141-0.423,0.141-0.705,0.141h-8.177c-1.41,0-2.538-1.128-2.538-2.397v-7.895c0-1.41,1.128-2.397,2.538-2.397h8.177
	c0.282,0,0.564,0,0.705,0.141V102.322z M480.158,141.795c0,7.613,6.344,13.957,14.098,13.957h10.009v31.72h-11.419v-31.72h-8.741
	c-7.754,0-14.098-6.203-14.098-13.957v-22.979h10.15v22.979H480.158z"/>
<path fill="#262C34" d="M530.346,71.87h-34.117c-2.115,0-5.216,0.282-5.216,2.82v8.882c0,1.974-9.023,2.82-9.023,9.868v2.679
	h-11.983V61.72c0-6.344,6.908-12.406,13.957-12.406h1.551l0,0h42.857c2.82,0,5.075-2.256,5.075-4.934v-0.705
	c0-2.679-2.256-4.793-5.075-4.934h1.551c7.754,0,13.957,6.203,13.957,13.816v5.639C544.021,65.667,537.958,71.729,530.346,71.87z"/>
<path fill="#131619" d="M530.346,71.87h-34.117c-2.115,0-5.075,0.987-5.075,3.102v8.6c0,1.974-1.128,4.511-4.229,4.511
	c-2.82,0-4.934,2.679-4.934,5.357v2.679h-11.983V70.461c0-2.679,3.242-5.78,6.908-5.78c0.705,0,1.41,0,2.82,0h57.378
	c2.961,0,5.498-1.692,6.767-4.229C542.752,66.795,537.254,71.729,530.346,71.87z"/>
<path fill="#B87B6D" d="M530.346,131.504L530.346,131.504c-3.102,2.115-7.472,3.383-12.406,3.383c-4.652,0-8.741-1.128-11.842-3.102
	c-0.564-0.141-0.987-0.705-0.987-1.41c0-0.846,0.705-1.551,1.551-1.551c0.423,0,0.846,0.141,1.128,0.564l0,0
	c2.679,1.551,6.203,2.538,10.291,2.538c3.947,0,7.613-0.987,10.15-2.397c0.282-0.282,0.705-0.564,1.128-0.564
	c0.846,0,1.551,0.705,1.551,1.551C530.91,130.799,530.628,131.222,530.346,131.504z"/>
<path fill="#DD9760" d="M526.821,116.701h-1.974v-2.961h0.564c0.564,0,0.987-0.423,0.987-0.846v-1.269
	c0-0.423-0.423-0.846-0.987-0.846h-0.564l0,0h-1.974c-1.41,0-2.538-1.128-2.538-2.538v-4.934h2.961v3.524
	c0,0.564,0.423,0.846,0.846,0.846h0.705l0,0h1.974c1.41,0,2.538,1.128,2.538,2.538v3.806
	C529.359,115.573,528.231,116.701,526.821,116.701z"/>
<path fill="#272C34" d="M508.071,91.043h0.141c1.551,0,2.961,1.41,2.961,3.101v4.37c0,1.692-1.269,3.102-2.961,3.102h-0.141
	c-1.551,0-2.961-1.41-2.961-3.102v-4.37C505.111,92.453,506.521,91.043,508.071,91.043z"/>
<path fill="#272C34" d="M530.769,91.043h0.141c1.551,0,2.961,1.41,2.961,3.101v4.37c0,1.692-1.269,3.102-2.961,3.102h-0.141
	c-1.551,0-2.961-1.41-2.961-3.102v-4.37C527.808,92.453,529.218,91.043,530.769,91.043z"/>
<path fill="#FCDBB0" d="M534.716,208.619l0.423,0.282l-16.071,27.773v-17.34h-0.423l7.472-12.829L509.2,177.182l7.895-4.511
	l17.058,29.605c0.987,0.846,1.692,2.115,1.692,3.524C535.703,206.786,535.28,207.773,534.716,208.619z"/>
<path fill="#00243A" d="M520.9,202.979l-0.564-0.141v33.412c0,0.423-0.141,0.705-0.141,1.128
	c-8.177,1.974-16.776,3.102-25.658,3.102c-8.318,0-16.353-0.987-24.107-2.679c0-0.423-0.141-0.987-0.141-1.41v-58.083
	c0-5.639,4.652-10.291,10.291-10.291h12.406l6.062,15.085l6.062-15.085h4.934c3.665,0,6.767,1.833,8.6,4.652l0,0l13.675,23.825
	L520.9,202.979z"/>
<path fill="#F77347" d="M484.105,196.635h36.372v12.124h-36.372L484.105,196.635L484.105,196.635z"/>
<path fill="#02121F" d="M484.105,196.635v43.28c-4.652-0.423-9.023-1.269-13.534-2.256c0-0.423-0.141-0.987-0.141-1.41v-58.083
	c0-5.639,4.652-10.291,10.291-10.291h1.833l0,0h10.573l6.062,15.085L484.105,196.635z"/>
<path fill="#FCDBB0" d="M522.169,232.867c0,0.846-0.705,1.551-1.551,1.551h-1.551c-0.846,0-1.551-0.705-1.551-1.551
	s0.705-1.551,1.551-1.551h-1.551c-0.846,0-1.551-0.705-1.551-1.551s0.705-1.551,1.551-1.551h-1.551
	c-0.846,0-1.551-0.705-1.551-1.551s0.705-1.551,1.551-1.551h4.511c0.846,0,1.551,0.705,1.551,1.551s-0.705,1.551-1.551,1.551
	c0.846,0,1.551,0.705,1.551,1.551s-0.705,1.551-1.551,1.551C521.464,231.316,522.169,232.021,522.169,232.867z M522.169,235.968
	c0,0.846-0.705,1.551-1.551,1.551s-1.551-0.705-1.551-1.551s0.705-1.551,1.551-1.551S522.169,235.122,522.169,235.968z
	 M487.348,234.417h-1.551c0.846,0,1.551,0.705,1.551,1.551s-0.705,1.551-1.551,1.551h-2.961c0.846,0,1.551,0.705,1.551,1.551
	s-0.705,1.551-1.551,1.551h-7.613h-0.141c-1.41,0-2.82-0.564-3.947-1.692l-17.058-27.068c0,0-0.141,0-0.141-0.141
	c-1.692-1.692-1.833-4.229-0.564-5.921l-0.141-0.141l16.917-28.477l8.036,4.511l-15.648,26.363l10.573,18.186l3.242-3.242
	c0.705-0.705,1.974-0.705,2.679,0s0.705,1.974,0,2.679l-2.82,2.82h9.445c0.846,0,1.551,0.705,1.551,1.551s-0.705,1.551-1.551,1.551
	h1.551c0.846,0,1.551,0.705,1.551,1.551C488.898,233.713,488.193,234.417,487.348,234.417z"/>
<path fill="#C74524" d="M470.43,196.635h13.675v12.124H470.43V196.635z"/>
<path fill="#02121F" d="M473.109,204.248L487.348,180l-15.226-7.472l-13.534,23.684L473.109,204.248z"/>
<path opacity="0.9" fill="#FFFFFF" stroke="#CCCCCC" stroke-miterlimit="10" enable-background="new    " d="M727.74,118.272h-98.52
	l0.412,0.412l-17.594,17.731l-17.594-17.731l0.412-0.412h-24.192c-7.422,0-13.608-6.048-13.608-13.333V21.78
	c0-7.422,6.048-13.333,13.608-13.333h157.212c7.422,0,13.608,6.048,13.608,13.333v83.159
	C741.347,112.361,735.299,118.272,727.74,118.272z"/>
</svg>
