<?xml version="1.0" encoding="utf-8"?>
<!-- Generator: Adobe Illustrator 17.0.0, SVG Export Plug-In . SVG Version: 6.00 Build 0)  -->
<!DOCTYPE svg PUBLIC "-//W3C//DTD SVG 1.1//EN" "http://www.w3.org/Graphics/SVG/1.1/DTD/svg11.dtd">
<svg version="1.1" id="Слой_1" xmlns="http://www.w3.org/2000/svg" xmlns:xlink="http://www.w3.org/1999/xlink" x="0px" y="0px"
	 width="1080px" height="289.87px" viewBox="30 0 1080 289.87" enable-background="new 30 0 1080 289.87" xml:space="preserve">
<path fill="#339999" d="M1110,210.872c0,1.105-0.895,2-2,2H678c-1.105,0-2-0.895-2-2v-21c0-1.105,0.895-2,2-2h430
	c1.105,0,2,0.895,2,2V210.872z"/>
<path fill="#FF9966" d="M481,215.872c0,1.105-0.895,2-2,2H32c-1.105,0-2-0.895-2-2v-21c0-1.105,0.895-2,2-2h447c1.105,0,2,0.895,2,2
	V215.872z"/>
<g id="Equipment">
	<g id="XMLID_21_">
		<g>
			<path fill="#CCCCCC" d="M941.94,142.582v26.56h-0.03v6.92c0,6-4.92,10.92-10.93,10.92h-60.75c-6.01,0-10.92-4.92-10.92-10.92
				v-33.48c0-6.01,4.91-10.92,10.92-10.92h13.65v-2.19c0-6.01,4.91-10.93,10.92-10.93h16.19c6.01,0,10.92,4.92,10.92,10.93v2.19
				h9.11C937.02,131.662,941.94,136.572,941.94,142.582z M938.34,176.062v-5.1h-19.65c-3.65,4.9-9.46,8-16.02,8
				c-6.55,0-12.38-3.08-16.01-8h-23.84v5.1c0,3.99,3.26,7.27,7.27,7.27h60.95C935.03,183.332,938.31,180.052,938.34,176.062z
				 M938.11,167.132v-24.75c0-3.99-3.26-7.27-7.27-7.27h-10.92c-1.09,0-1.82-0.73-1.82-1.81v-4.01c0-3.99-3.26-7.27-7.27-7.27
				h-16.01c-4,0-7.27,3.26-7.27,7.27v4.01c0,1.08-0.73,1.81-1.82,1.81h-15.64c-4.01,0-7.27,3.46-7.27,7.47v24.55h21.45
				c-1.27-2.55-2-5.45-2-8.55c0-11.1,9.11-20.19,20.19-20.19s20.19,9.09,20.19,20.19c0,3.1-0.74,6-2,8.55H938.11z M919.21,158.772
				c0-9.08-7.47-16.55-16.56-16.55c-9.08,0-16.55,7.45-16.55,16.55c0,9.09,7.47,16.56,16.55,16.56
				C911.74,175.332,919.21,167.862,919.21,158.772z"/>
			<path fill="#FFFFFF" d="M938.34,170.962v5.1c-0.03,3.99-3.31,7.27-7.3,7.27h-60.95c-4.01,0-7.27-3.28-7.27-7.27v-5.1h23.84
				c3.63,4.92,9.46,8,16.01,8c6.56,0,12.37-3.1,16.02-8H938.34z"/>
			<path fill="#FFFFFF" d="M938.11,142.382v24.75h-17.46c1.26-2.55,2-5.45,2-8.55c0-11.1-9.11-20.19-20.19-20.19
				s-20.19,9.09-20.19,20.19c0,3.1,0.73,6,2,8.55h-21.45v-24.55c0-4.01,3.26-7.47,7.27-7.47h15.64c1.09,0,1.82-0.73,1.82-1.81v-4.01
				c0-4.01,3.27-7.27,7.27-7.27h16.01c4.01,0,7.27,3.28,7.27,7.27v4.01c0,1.08,0.73,1.81,1.82,1.81h10.92
				C934.85,135.112,938.11,138.392,938.11,142.382z M879.55,144.042c0-1.09-0.73-1.82-1.82-1.82h-8c-1.09,0-1.82,0.73-1.82,1.82
				c0,1.09,0.71,1.82,1.82,1.82h8C878.82,145.862,879.55,145.132,879.55,144.042z"/>
			<path fill="#FFFFFF" d="M902.65,142.222c9.09,0,16.56,7.47,16.56,16.55c0,9.09-7.47,16.56-16.56,16.56
				c-9.08,0-16.55-7.47-16.55-16.56C886.1,149.672,893.57,142.222,902.65,142.222z M914.66,158.582c0-6.74-5.27-12.01-12.01-12.01
				c-6.73,0-12,5.29-12,12.01c0,6.71,5.45,12.01,12,12.01C909.21,170.592,914.66,165.312,914.66,158.582z"/>
			<path fill="#CCCCCC" d="M902.65,146.572c6.74,0,12.01,5.27,12.01,12.01c0,6.73-5.45,12.01-12.01,12.01c-6.55,0-12-5.3-12-12.01
				C890.65,151.862,895.92,146.572,902.65,146.572z M902.65,167.152c4.74,0,8.38-3.65,8.38-8.38c0-4.74-3.83-8.37-8.38-8.37
				c-4.54,0-8.37,3.63-8.37,8.37C894.28,163.512,898.11,167.152,902.65,167.152z"/>
			<path fill="#FFFFFF" d="M911.03,158.772c0,4.73-3.64,8.38-8.38,8.38c-4.54,0-8.37-3.64-8.37-8.38s3.83-8.37,8.37-8.37
				C907.2,150.402,911.03,154.032,911.03,158.772z"/>
			<path fill="#CCCCCC" d="M877.73,142.222c1.09,0,1.82,0.73,1.82,1.82c0,1.09-0.73,1.82-1.82,1.82h-8c-1.11,0-1.82-0.73-1.82-1.82
				c0-1.09,0.73-1.82,1.82-1.82H877.73z"/>
		</g>
	</g>
</g>
<g id="Fashion">
	<g id="XMLID_19_">
		<g>
			<path fill="#CCCCCC" d="M881.13,115.832c10.91,6.81,18.55,19.38,18.55,33.3c0,21.81-17.72,39.53-39.55,39.53
				c-21.84,0-39.58-17.75-39.58-39.58c0-14.2,7.35-26.49,18.55-33.57l-7.92-8.74c-0.82-1.1-0.82-2.73,0.27-3.82
				c1.1-0.83,2.73-0.83,3.82,0.27l8.74,9.83c1.37-0.53,2.46-0.83,3.82-1.36l-10.9-12c-0.56-0.54-1.1-1.07-0.83-1.9
				c0.27-0.8,0.56-1.36,1.1-1.9l11.46-9.27c0.27-0.27,1.1-0.54,1.63-0.54h19.38c0.53,0,1.09,0.27,1.63,0.54l11.46,9.3
				c0.57,0.53,1.1,1.36,1.1,1.9c0,0.53-0.29,1.36-0.83,1.89l-10.9,12c1.36,0.27,2.72,0.83,3.82,1.37l9.01-9.54
				c1.09-1.1,2.72-1.37,3.82-0.27c1.09,1.09,1.36,2.72,0.26,3.82L881.13,115.832z M894.23,149.102c0-18.81-15.29-34.1-34.1-34.1
				c-18.82,0-34.1,15.58-34.1,34.4c0,18.81,15.26,34.1,34.1,34.1C878.94,183.502,894.23,167.922,894.23,149.102z M871.86,104.102
				l5.45-6.02l-5.45-4.35V104.102z M866.41,110.082v-9.54h-12.56v9.54c1.89-0.26,4.09-0.53,6.28-0.53S864.51,109.822,866.41,110.082
				z M866.38,95.092v-3.82h-12.56v3.82H866.38z M848.37,104.102v-10.37l-5.45,4.35L848.37,104.102z"/>
			<path fill="#FFFFFF" d="M860.13,115.002c18.81,0,34.1,15.29,34.1,34.1c0,18.82-15.29,34.4-34.1,34.4
				c-18.84,0-34.1-15.29-34.1-34.1C826.03,130.582,841.31,115.002,860.13,115.002z M890.41,149.372c0-16.62-13.66-30.28-30.28-30.28
				c-16.65,0-30.28,13.66-30.28,30.28s13.65,30.28,30.28,30.28C876.75,179.652,890.41,165.992,890.41,149.372z"/>
			<path fill="#CCCCCC" d="M860.13,119.092c16.62,0,30.28,13.66,30.28,30.28s-13.66,30.28-30.28,30.28
				c-16.63,0-30.28-13.66-30.28-30.28S843.48,119.092,860.13,119.092z M884.96,149.132c0-13.63-11.2-24.83-24.83-24.83
				s-24.83,11.2-24.83,24.83s11.17,24.83,24.83,24.83C873.76,173.962,884.66,162.762,884.96,149.132z"/>
			<path fill="#FFFFFF" d="M860.13,124.302c13.63,0,24.83,11.2,24.83,24.83c-0.3,13.63-11.2,24.83-24.83,24.83
				c-13.66,0-24.83-11.2-24.83-24.83S846.5,124.302,860.13,124.302z"/>
			<polygon fill="#FFFFFF" points="877.31,98.082 871.86,104.102 871.86,93.732 			"/>
			<path fill="#FFFFFF" d="M866.41,100.542v9.54c-1.9-0.26-4.09-0.53-6.28-0.53s-4.39,0.27-6.28,0.53v-9.54H866.41z"/>
			<rect x="853.82" y="91.272" fill="#FFFFFF" width="12.56" height="3.82"/>
			<polygon fill="#FFFFFF" points="848.37,93.732 848.37,104.102 842.92,98.082 			"/>
		</g>
	</g>
</g>
<g id="Food">
	<g id="XMLID_18_">
		<g>
			<path fill="#CCCCCC" d="M869.12,65.592c0,1.97-1.32,3.3-3.3,3.3h-17.18l-1.33,7.6c4.31,0.32,7.61,3.95,7.61,8.25l-6.64,87.59
				c0,4.3-3.62,7.92-8.25,7.92h-24.78v0.65c0,4.63-3.62,8.25-8.25,8.25h-75.32c-4.63,0-8.25-3.62-8.25-8.25v-8.28
				c0-4.63,3.62-8.25,8.25-8.25h4.85l54.14,6.31h-58.99c-1.01,0-1.65,0.64-1.65,1.65v8.25c0,1,0.64,1.65,1.65,1.65H807
				c1,0,1.65-0.65,1.65-1.65v-7.8l6.6,0.76v0.08h0.64l8.67,1.01L841,80.872h-46.01l2.71,21.47l0.03,0.34l-7.66,5.52
				c-3.82-0.48-8.21-0.65-13.13-0.65h-15.2c-20.49,0-31.71,2.98-31.71,18.51v4.62c0,1.01,0.64,1.65,1.65,1.65h24.98l-9.11,6.58
				l-0.01,0.03h-15.86c-4.63,0-8.25-3.63-8.25-8.26v-4.62c0-25.11,24.75-25.11,38.31-25.11h15.2c3.98,0,8.93,0,13.88,0.65
				l-1.32-16.86c0-4.95,3.62-8.57,8.25-8.57h42.96l1.98-11.23c0.32-1.65,1.65-2.65,3.3-2.65h19.83
				C867.47,62.292,869.12,63.612,869.12,65.592z M841.68,171.652l6.6-87.56c0-0.68-0.64-1.32-1.65-1.32v-0.33h-0.64l-16.54,90.86
				h10.58C841.04,173.302,841.68,172.652,841.68,171.652z"/>
			<path fill="#FFFFFF" d="M848.28,84.092l-6.6,87.56c0,1-0.64,1.65-1.65,1.65h-10.58l16.54-90.86h0.64v0.33
				C847.64,82.772,848.28,83.412,848.28,84.092z"/>
			<path fill="#CCCCCC" d="M841,80.872l-16.44,93.76l-8.67-1.01h6.96l16.54-90.85h-41.64c-1.01,0-1.65,0.64-1.65,1.65l1.6,17.92
				l-2.71-21.47C794.99,80.872,841,80.872,841,80.872z"/>
			<path fill="#FFFFFF" d="M839.39,82.772l-16.54,90.85h-6.96l-0.64-0.08v-0.92c0-4.63-3.62-8.25-8.25-8.25h-70.47l-2.06-0.24
				l3.78-3.71h76.03c1.97,0,3.3-1.33,3.3-3.3s-1.33-3.3-3.3-3.3h-72.67l2.15-4.3h70.49c1.97,0,3.3-1.33,3.3-3.3
				c0-1.98-1.33-3.31-3.3-3.31h-68.13l1.42-3.97H807c4.63,0,8.25-3.63,8.25-8.26v-4.62c0-14.21-8.25-20.48-17.5-23.14l-0.02-0.24
				l0.01-0.01l-0.04-0.33l-1.6-17.92c0-1.01,0.64-1.65,1.65-1.65L839.39,82.772L839.39,82.772z"/>
			<path fill="#CCCCCC" d="M814.28,153.822c1.97,0,3.3,1.33,3.3,3.3s-1.33,3.3-3.3,3.3h-76.03l0.12-0.12l3.24-6.48L814.28,153.822
				L814.28,153.822z"/>
			<path fill="#CCCCCC" d="M814.25,142.912c1.97,0,3.3,1.33,3.3,3.31c0,1.97-1.33,3.3-3.3,3.3h-70.49l0.03-0.06l2.33-6.55H814.25z"
				/>
			<path fill="#CCCCCC" d="M815.25,172.622v0.92l-6.6-0.76v-0.45c0-1.01-0.65-1.65-1.65-1.65h-16.33l-54.14-6.31H807
				C811.63,164.372,815.25,167.992,815.25,172.622z"/>
			<path fill="#CCCCCC" d="M815.25,126.062v4.62c0,4.63-3.62,8.26-8.25,8.26h-59.46l0.01-0.03l9.11-6.58H807
				c1,0,1.65-0.64,1.65-1.65v-4.62c0-11.8-6.48-16.35-18.58-17.86l7.66-5.52l0.02,0.24C807,105.582,815.25,111.852,815.25,126.062z"
				/>
			<path fill="#FFFFFF" d="M808.65,172.782v7.8c0,1-0.65,1.65-1.65,1.65h-75.32c-1.01,0-1.65-0.65-1.65-1.65v-8.25
				c0-1.01,0.64-1.65,1.65-1.65h58.99L808.65,172.782z"/>
			<path fill="#FFFFFF" d="M808.65,172.332v0.45l-17.98-2.1H807C808,170.682,808.65,171.322,808.65,172.332z"/>
			<path fill="#FFFFFF" d="M808.65,126.062v4.62c0,1.01-0.65,1.65-1.65,1.65h-50.34l33.41-24.13
				C802.17,109.712,808.65,114.262,808.65,126.062z"/>
			<path fill="#FFFFFF" d="M790.07,108.202l-33.41,24.13h-24.98c-1.01,0-1.65-0.64-1.65-1.65v-4.62c0-15.53,11.22-18.51,31.71-18.51
				h15.2C781.86,107.552,786.25,107.722,790.07,108.202z"/>
			<path fill="#CCCCCC" d="M746.12,142.912l-2.33,6.55l-0.03,0.06H724.4c-1.98,0-3.3-1.33-3.3-3.3c0-1.98,1.32-3.31,3.3-3.31H746.12
				z"/>
			<path fill="#CCCCCC" d="M741.61,153.822l-3.24,6.48l-0.12,0.12H724.4c-1.98,0-3.3-1.33-3.3-3.3s1.32-3.3,3.3-3.3L741.61,153.822
				L741.61,153.822z"/>
		</g>
	</g>
</g>
<g id="Child">
	<g id="XMLID_17_">
		<g>
			<path fill="#FFFFFF" d="M740.64,108.462c1.1,4.35,1.85,9.09,1.85,14.18c0,33.1-26.94,60.04-60.04,60.04
				c-33.11,0-60.04-26.94-60.04-60.04c0-5.09,0.71-9.83,1.81-14.18C624.22,108.462,740.64,108.462,740.64,108.462z M716.66,127.342
				c0-4.62-3.75-8.37-8.38-8.37c-4.62,0-8.37,3.75-8.37,8.37c0,4.63,3.75,8.38,8.37,8.38
				C712.91,135.722,716.66,131.972,716.66,127.342z M708.67,158.272c0.72-1.1,0.36-2.53,0-3.63c-0.74-1.1-1.85-1.82-3.31-1.82
				h-47.29c-1.1,0-2.53,0.72-3.27,1.82c-0.72,1.1-0.72,2.53,0,3.63c5.09,10.2,15.64,16.36,26.94,16.36
				C693.03,174.632,703.19,168.432,708.67,158.272z M666.45,127.342c0-4.62-3.75-8.37-8.38-8.37c-4.62,0-8.37,3.75-8.37,8.37
				c0,4.63,3.75,8.38,8.37,8.38C662.7,135.722,666.45,131.972,666.45,127.342z"/>
			<path fill="#CCCCCC" d="M708.28,118.972c4.63,0,8.38,3.75,8.38,8.37c0,4.63-3.75,8.38-8.38,8.38c-4.62,0-8.37-3.75-8.37-8.38
				C699.91,122.722,703.66,118.972,708.28,118.972z"/>
			<path fill="#CCCCCC" d="M708.67,154.642c0.36,1.1,0.72,2.53,0,3.63c-5.48,10.16-15.64,16.36-26.93,16.36
				c-11.3,0-21.85-6.16-26.94-16.36c-0.72-1.1-0.72-2.53,0-3.63c0.74-1.1,2.17-1.82,3.27-1.82h47.29
				C706.82,152.822,707.93,153.542,708.67,154.642z M698.45,160.092h-33.11c4.39,4.74,10.2,7.27,16.75,7.27
				C688.26,167.362,694.46,164.832,698.45,160.092z"/>
			<path fill="#FFFFFF" d="M698.8,64.772c18.21,5.1,32.75,18.57,39.66,36.03h-26.19C709.74,85.152,705,72.792,698.8,64.772z"/>
			<path fill="#FFFFFF" d="M665.34,160.092h33.11c-3.99,4.74-10.19,7.27-16.36,7.27C675.54,167.362,669.73,164.832,665.34,160.092z"
				/>
			<path fill="#FFFFFF" d="M682.45,62.602c9.44,0,18.56,15.64,22.2,37.48h-44.4C663.88,78.242,672.97,62.602,682.45,62.602z"/>
			<path fill="#CCCCCC" d="M652.59,100.802c2.56-15.29,7.27-28.01,13.47-36.03c-18.18,5.1-32.75,18.57-39.66,36.03H652.59z
				 M704.65,100.082c-3.64-21.84-12.76-37.48-22.2-37.48c-9.48,0-18.57,15.64-22.2,37.48H704.65z M698.8,64.772
				c6.2,8.02,10.94,20.38,13.47,36.03h26.19C731.55,83.342,717.01,69.872,698.8,64.772z M682.45,54.942
				c29.47,0,54.59,19.31,63.68,45.86h33.46c2.17,0,3.63,1.1,3.63,3.28c0,2.17-1.46,3.63-3.63,3.63H748.3
				c0.75,4.35,1.46,9.09,1.46,14.18c0,37.13-30.15,67.35-67.28,67.35s-67.31-30.22-67.31-67.31c0-6.2,0.71-12.4,2.53-18.21
				c0-0.39,0-0.75,0.36-1.11C626.43,74.962,652.27,54.942,682.45,54.942z M742.49,122.642c0-5.09-0.75-9.83-1.85-14.18H624.22
				c-1.1,4.35-1.81,9.09-1.81,14.18c0,33.1,26.93,60.04,60.04,60.04C715.55,182.682,742.49,155.742,742.49,122.642z"/>
			<path fill="#CCCCCC" d="M658.07,118.972c4.63,0,8.38,3.75,8.38,8.37c0,4.63-3.75,8.38-8.38,8.38c-4.62,0-8.37-3.75-8.37-8.38
				C649.7,122.722,653.45,118.972,658.07,118.972z"/>
			<path fill="#FFFFFF" d="M626.4,100.802c6.91-17.46,21.48-30.93,39.66-36.03c-6.2,8.02-10.91,20.74-13.47,36.03H626.4z"/>
		</g>
	</g>
</g>
<g id="Avto">
	<g>
		<path fill="#CCCCCC" d="M244.07,164.912v2.37c0,2.75-0.91,5.28-2.37,7.47v13.09c0,2.73-2.37,4.92-5.27,4.92h-6.36
			c-2.91,0-5.28-2.19-5.28-4.92v-7.64h-43.85v7.64c0,2.73-2.37,4.92-5.27,4.92h-6.36c-2.9,0-5.27-2.19-5.27-4.92v-12.91h0.17
			c-1.63-2.2-2.54-4.74-2.54-7.65v-2.37c0-5.45,3.45-10.01,8.17-12.01l4.01-19.47c1.09-4.9,6.01-8.18,12.37-8.18h33.12
			c6.54,0,11.28,3.09,12.36,8.18l4.19,19.47C240.61,154.722,244.07,159.462,244.07,164.912z M240.61,167.282v-2.37
			c0-3.45-1.81-6.36-4.54-8l-2.73,3.64c2.91,1.08,5.1,3.99,5.1,7.27c0,4.36-3.46,7.82-7.82,7.82c-4.37,0-7.82-3.64-7.82-7.82
			c0-1.64,0.73-3.28,1.64-4.55H184.6c-1.11,0-2.19,0-3.1-0.17c0.91,1.26,1.64,2.9,1.64,4.72c0,4.36-3.46,7.82-7.83,7.82
			c-4.36,0-7.82-3.46-7.82-7.82c0-4.37,3.64-7.82,7.82-7.82c0.18,0,0.18,0,0.36,0l-3.28-4.19c-3.99,1.1-7.09,4.74-7.09,9.1h0.36
			v2.37c0,5.1,4.18,9.29,9.28,9.29h56.39C236.43,176.572,240.61,172.382,240.61,167.282z M238.07,188.042v-9.64
			c-2,1.27-4.37,2-6.92,2h-2.72v7.64c0,0.71,0.73,1.26,1.64,1.26h6.36C237.33,189.302,238.07,188.752,238.07,188.042z
			 M230.42,172.202c2.37,0,4.19-1.82,4.19-4.19s-2-4.18-4.19-4.18c-2.17,0-4.19,1.81-4.19,4.18
			C226.23,170.382,228.05,172.202,230.42,172.202z M230.24,158.372l2.16-2.54c-0.53-0.18-0.91-0.18-1.27-0.18h-54.39l2.19,2.72
			c0.38,0.72,1.28,1.27,5.65,1.27h40.02C228.98,159.642,229.69,158.932,230.24,158.372z M232.06,152.012l-3.81-17.83
			c-0.91-3.99-5.28-5.45-8.73-5.45h-33.3c-3.46,0-7.82,1.44-8.73,5.45l-3.46,17.83c0.18-0.17,0.55-0.17,0.91-0.17h32.73v-0.18
			c1.82-4.37,6.18-7.27,10.92-7.27s9.11,2.72,10.92,7.27v0.18h1.64C231.51,151.842,231.7,152.012,232.06,152.012z M211.5,152.002
			h13.83c-1.46-2.55-4.01-4.01-6.92-4.01C215.51,147.992,212.96,149.632,211.5,152.002z M179.48,167.842c0-2.2-1.81-4.19-4.18-4.19
			s-4.19,1.82-4.19,4.19c0,2.36,1.82,4.18,4.19,4.18C177.67,172.022,179.48,170.032,179.48,167.842z M177.31,188.022v-7.64h-2.73
			c-2.54,0-4.91-0.73-6.91-2v9.64c0,0.71,0.73,1.27,1.64,1.27h6.36C176.58,189.292,177.31,188.752,177.31,188.022z"/>
		<path fill="#FFFFFF" d="M240.61,164.912v2.37c0,5.1-4.18,9.29-9.28,9.29h-56.39c-5.1,0-9.28-4.19-9.28-9.29v-2.37h-0.36
			c0-4.36,3.1-8,7.09-9.1l3.28,4.19c-0.18,0-0.18,0-0.36,0c-4.18,0-7.82,3.45-7.82,7.82c0,4.36,3.46,7.82,7.82,7.82
			c4.37,0,7.83-3.46,7.83-7.82c0-1.82-0.73-3.46-1.64-4.72c0.91,0.17,1.99,0.17,3.1,0.17h39.84c-0.91,1.27-1.64,2.91-1.64,4.55
			c0,4.18,3.45,7.82,7.82,7.82c4.36,0,7.82-3.46,7.82-7.82c0-3.28-2.19-6.19-5.1-7.27l2.73-3.64
			C238.8,158.552,240.61,161.462,240.61,164.912z"/>
		<path fill="#FFFFFF" d="M238.07,178.402v9.64c0,0.71-0.74,1.26-1.64,1.26h-6.36c-0.91,0-1.64-0.55-1.64-1.26v-7.64h2.72
			C233.7,180.402,236.07,179.672,238.07,178.402z"/>
		<path fill="#FFFFFF" d="M234.61,168.012c0,2.37-1.82,4.19-4.19,4.19s-4.19-1.82-4.19-4.19s2.02-4.18,4.19-4.18
			C232.61,163.832,234.61,165.642,234.61,168.012z"/>
		<path fill="#FFFFFF" d="M232.4,155.832l-2.16,2.54c-0.55,0.56-1.26,1.27-5.64,1.27h-40.02c-4.37,0-5.27-0.55-5.65-1.27l-2.19-2.72
			h54.39C231.49,155.652,231.87,155.652,232.4,155.832z"/>
		<path fill="#FFFFFF" d="M228.25,134.182l3.81,17.83c-0.36,0-0.55-0.17-0.91-0.17h-1.64v-0.18c-1.81-4.55-6.18-7.27-10.92-7.27
			s-9.1,2.9-10.92,7.27v0.18h-32.73c-0.36,0-0.73,0-0.91,0.17l3.46-17.83c0.91-4.01,5.27-5.45,8.73-5.45h33.3
			C222.97,128.732,227.34,130.192,228.25,134.182z"/>
		<path fill="#FFFFFF" d="M225.33,152.002H211.5c1.46-2.37,4.01-4.01,6.91-4.01C221.32,147.992,223.87,149.452,225.33,152.002z"/>
		<path fill="#FFFFFF" d="M175.3,163.652c2.37,0,4.18,1.99,4.18,4.19c0,2.19-1.81,4.18-4.18,4.18s-4.19-1.82-4.19-4.18
			C171.11,165.472,172.93,163.652,175.3,163.652z"/>
		<path fill="#FFFFFF" d="M177.31,180.382v7.64c0,0.73-0.73,1.27-1.64,1.27h-6.36c-0.91,0-1.64-0.56-1.64-1.27v-9.64
			c2,1.27,4.37,2,6.91,2H177.31z"/>
	</g>
</g>
<g id="House">
	<g>
		<path fill="#FFFFFF" d="M390.27,112.982c12.73,0,22.92,10.55,22.92,22.91c0,12.37-10.19,22.91-22.92,22.91
			c-12.36,0-22.91-10.19-22.91-22.91S377.55,112.982,390.27,112.982z"/>
		<path fill="#FFFFFF" d="M333.9,150.432l-0.03,30.18c0,2.18-1.46,3.64-3.64,3.64h-36.38v-40.38c0-5.45-4.74-9.83-10.55-9.83h-20.02
			c-5.81,0-10.55,4.38-10.55,9.83v40.38h-9.09c-2.17,0-3.63-1.46-3.63-3.64v-58.94l44.4-35.27c1.46-1.46,3.63-1.46,5.45,0.35
			l15.29,12.37c0,1.46-0.36,2.92-0.36,4.74C304.79,124.242,316.8,141.702,333.9,150.432z"/>
		<path fill="#CCCCCC" d="M401.53,103.502c0-24.73-20.02-44.76-44.75-44.76s-44.72,19.67-44.72,44.4s20.02,44.76,44.75,44.76
			c1.82,0,4,0,5.81-0.36c-1.46-3.27-2.17-7.3-2.17-11.29c0-16.71,13.43-30.18,30.18-30.18c3.64,0,7.27,1.07,10.55,2.17
			C401.53,106.782,401.53,104.962,401.53,103.502z M356.42,51.082c28.76,0,52.03,23.27,52.03,52.03c0,2.92-0.36,5.45-0.72,8.37
			c7.63,5.49,12.73,14.58,12.69,24.06c0,16.71-13.43,30.18-30.18,30.18c-3.64,0-7.27-0.72-10.55-1.82l-18.56,11.65
			c0,0.36-0.36,0.36-0.72,0.36v13.11c0,2.18-1.46,3.64-3.63,3.64c-2.18,0-3.64-1.46-3.64-3.64v-33.85c-3.99-0.36-8.01-1.07-12-2.17
			v28c0,6.17-4.71,10.91-10.91,10.91h-86.59c-6.16,0-10.9-4.71-10.9-10.91v-53.48l-9.09,7.27c-1.46,1.1-3.99,0.75-5.09-0.72
			c-1.11-1.46-0.75-3.99,0.71-5.09l60.01-48.39c3.99-4.03,10.9-4.03,15.28,0.35l11.65,9.45
			C312.02,67.832,332.05,51.082,356.42,51.082z M360.45,154.812v13.12l12.36-7.63c-2.56-1.82-4.38-4.03-6.2-6.2
			C364.41,154.462,362.61,154.812,360.45,154.812z M413.19,135.892c0-12.36-10.19-22.91-22.92-22.91
			c-12.72,0-22.91,10.19-22.91,22.91s10.55,22.91,22.91,22.91C403,158.802,413.19,148.262,413.19,135.892z M333.87,180.612
			l0.03-30.18c-17.1-8.73-29.11-26.19-29.11-46.57c0-1.82,0.36-3.28,0.36-4.74l-15.29-12.37c-1.82-1.81-3.99-1.81-5.45-0.35
			l-44.4,35.27v58.94c0,2.18,1.46,3.64,3.63,3.64h9.09v-40.38c0-5.45,4.74-9.83,10.55-9.83h20.02c5.81,0,10.55,4.38,10.55,9.83
			v40.38h36.38C332.41,184.252,333.87,182.792,333.87,180.612z M286.19,184.282v-40.41c0-1.42-1.46-2.53-3.28-2.53h-19.99
			c-1.82,0-3.28,1.07-3.28,2.53v40.41H286.19z"/>
		<path fill="#FFFFFF" d="M356.78,58.742c24.73,0,44.75,20.03,44.75,44.76c0,1.46,0,3.28-0.35,4.74c-3.28-1.1-6.91-2.17-10.55-2.17
			c-16.75,0-30.18,13.47-30.18,30.18c0,3.99,0.71,8.02,2.17,11.29c-1.81,0.36-3.99,0.36-5.81,0.36c-24.73,0-44.75-20.03-44.75-44.76
			S332.05,58.742,356.78,58.742z"/>
		<path fill="#FFFFFF" d="M286.19,143.872v40.41h-26.55v-40.41c0-1.46,1.46-2.53,3.28-2.53h19.99
			C284.73,141.342,286.19,142.452,286.19,143.872z"/>
	</g>
</g>
<g id="Sport">
	<g>
		<path fill="#FFFFFF" d="M473.9,63.182c12.23,12.66,19.67,28.82,20.53,47.16c-3.04,2.61-17.45,13.09-48.45,17.02v-0.43
			C442.04,92.002,464.75,70.622,473.9,63.182z"/>
		<path fill="#FFFFFF" d="M494.43,121.252c-1.76,17.02-9.63,32.32-20.96,43.66c-6.97-3.94-20.09-12.66-25.31-28.82
			C471.72,133.052,486.6,126.462,494.43,121.252z"/>
		<path fill="#FFFFFF" d="M439.44,136.982c5.26,17.92,18.34,28.82,27.06,34.04c-10.47,7.87-23.6,13.09-37.11,14.41
			c-1.76-2.18-13.09-17.92-17.02-48.02c3.5,0,6.97,0.43,10.47,0.43C428.96,137.842,434.18,137.412,439.44,136.982z"/>
		<path fill="#FFFFFF" d="M429.39,41.762c14.41,1.32,27.92,6.97,38.44,15.73c-11.33,9.15-34.51,32.76-30.15,70.3c0,0,0,0,0,0.43
			c-4.79,0.43-9.62,0.43-14.84,0.43c-3.93,0-7.86,0-11.33-0.43c-0.89-4.36-0.89-9.58-0.89-14.84
			C410.62,69.292,426.78,45.262,429.39,41.762z"/>
		<path fill="#FFFFFF" d="M403.17,136.512c3.04,24.89,10.91,41.05,15.74,48.92c-17.02-0.85-32.33-7.44-44.09-18.34
			c2.14-5.22,6.5-17.45,8.73-33.61C389.23,134.802,395.78,135.662,403.17,136.512z"/>
		<path fill="#CCCCCC" d="M401.42,113.422c0-38.01,10.91-61.57,17.02-71.62c-17.02,0.9-32.28,7.87-44.09,18.34
			c1.33,3.51,9.63,24.03,9.63,60.25c0,1.76,0,3.04,0,4.36c5.21,1.29,11.33,2.18,17.87,3.08
			C401.85,123.042,401.42,118.682,401.42,113.422z M437.68,127.792c-4.36-37.54,18.82-61.15,30.15-70.3
			c-10.52-8.76-24.03-14.41-38.44-15.73c-2.61,3.5-18.77,27.53-18.77,71.62c0,5.26,0,10.48,0.89,14.84
			c3.47,0.43,7.4,0.43,11.33,0.43c5.22,0,10.05,0,14.84-0.43C437.68,127.792,437.68,127.792,437.68,127.792z M422.8,33.082
			c44.56,0,80.78,36.26,80.78,80.77c0,12.21-2.73,23.78-7.64,34.2c-4.9,10.43-11.99,19.72-20.71,27.37
			c-13.94,11.76-32.29,19.2-52.39,19.2c-44.55,0-80.81-36.21-80.81-80.77S378.25,33.082,422.8,33.082z M494.43,110.342
			c-0.86-18.34-8.3-34.5-20.53-47.16c-9.15,7.44-31.86,28.82-27.92,63.75v0.43C476.98,123.432,491.39,112.952,494.43,110.342z
			 M473.47,164.912c11.33-11.34,19.2-26.64,20.96-43.66c-7.83,5.21-22.71,11.8-46.27,14.84
			C453.38,152.252,466.5,160.972,473.47,164.912z M466.5,171.022c-8.72-5.22-21.8-16.12-27.06-34.04
			c-5.26,0.43-10.48,0.86-16.6,0.86c-3.5,0-6.97-0.43-10.47-0.43c3.93,30.1,15.26,45.84,17.02,48.02
			C442.9,184.112,456.03,178.892,466.5,171.022z M418.91,185.432c-4.83-7.87-12.7-24.03-15.74-48.92
			c-7.39-0.85-13.94-1.71-19.62-3.03c-2.23,16.16-6.59,28.39-8.73,33.61C386.58,177.992,401.89,184.582,418.91,185.432z
			 M375.68,122.572c0-0.85,0-1.32,0-2.18c0-27.07-5.26-45.84-7.87-53.28c-10.05,11.8-16.16,27.07-16.59,43.66
			C353.4,112.522,361.27,118.212,375.68,122.572z M367.81,160.542c2.61-6.11,5.69-16.59,7.01-28.82
			c-11.37-3.07-19.24-7.01-24.03-10.04C352.55,136.512,358.66,149.642,367.81,160.542z"/>
		<path fill="#FFFFFF" d="M374.35,60.142c11.81-10.47,27.07-17.44,44.09-18.34c-6.11,10.05-17.02,33.61-17.02,71.62
			c0,5.26,0.43,9.62,0.43,14.41c-6.54-0.9-12.66-1.79-17.87-3.08c0-1.32,0-2.6,0-4.36C383.98,84.172,375.68,63.652,374.35,60.142z"
			/>
		<path fill="#FFFFFF" d="M375.68,120.392c0,0.86,0,1.33,0,2.18c-14.41-4.36-22.28-10.05-24.46-11.8
			c0.43-16.59,6.54-31.86,16.59-43.66C370.42,74.552,375.68,93.322,375.68,120.392z"/>
		<path fill="#FFFFFF" d="M374.82,131.722c-1.32,12.23-4.4,22.71-7.01,28.82c-9.15-10.9-15.26-24.03-17.02-38.86
			C355.58,124.712,363.45,128.652,374.82,131.722z"/>
	</g>
</g>
<path id="Color_6_" opacity="0.8" fill="#009999" enable-background="new    " d="M523.755,18.094
	c57.868,0,104.739,46.871,104.739,104.602s-46.871,104.602-104.739,104.602s-104.739-46.871-104.739-104.602
	C419.016,64.828,465.888,18.094,523.755,18.094z"/>
<g id="Form">
	<polygon opacity="0.9" fill="#FFFFFF" stroke="#CCCCCC" stroke-miterlimit="10" enable-background="new    " points="
		493.383,246.839 593.827,155.687 707.431,198.173 615.17,289.295 	"/>
	<path id="Button_5_" fill="#009999" d="M599.174,266.893c-0.157,0.147-0.404,0.14-0.551-0.017l-62.621-23.141
		c-0.147-0.157-0.14-0.404,0.017-0.551l4.407-4.138c0.157-0.147,0.404-0.14,0.551,0.017l62.621,23.141
		c0.147,0.157,0.14,0.404-0.017,0.551L599.174,266.893z"/>
	<path id="Input__x22_Price_x22__3_" fill="#CCCCCC" d="M613.249,253.68c-0.157,0.147-0.404,0.14-0.551-0.017l-19.218-6.88
		c-0.147-0.157-0.14-0.404,0.017-0.551l4.407-4.138c0.157-0.147,0.404-0.14,0.551,0.017l19.218,6.88
		c0.147,0.157,0.14,0.404-0.017,0.551L613.249,253.68z"/>
	<path id="Combobox__x22_Вся_Украина_x22__3_" fill="#CCCCCC" d="M623.201,244.337c-0.157,0.147-0.404,0.14-0.551-0.017
		l-62.621-23.141c-0.147-0.157-0.14-0.404,0.017-0.551l4.407-4.138c0.157-0.147,0.404-0.14,0.551,0.017l62.621,23.141
		c0.147,0.157,0.14,0.404-0.017,0.551L623.201,244.337z"/>
	<path id="Combobox__x22_Категория_x22__3_" fill="#CCCCCC" d="M633.152,234.994c-0.157,0.147-0.404,0.14-0.551-0.017
		l-62.621-23.141c-0.147-0.157-0.14-0.404,0.017-0.551l4.407-4.138c0.157-0.147,0.404-0.14,0.551,0.017l62.621,23.141
		c0.147,0.157,0.14,0.404-0.017,0.551L633.152,234.994z"/>
	<path id="Input__x22_Detail_x22__3_" fill="#CCCCCC" d="M643.104,225.651c-0.157,0.147-0.404,0.14-0.551-0.017l-62.621-23.141
		c-0.147-0.157-0.14-0.404,0.017-0.551l18.624-17.484c0.157-0.147,0.404-0.14,0.551,0.017l62.621,23.141
		c0.147,0.157,0.14,0.404-0.017,0.551L643.104,225.651z"/>
	<path id="Input__x22_Name_x22__3_" fill="#CCCCCC" d="M667.272,202.961c-0.157,0.147-0.404,0.14-0.551-0.017L604.1,179.803
		c-0.147-0.157-0.14-0.404,0.017-0.551l4.407-4.138c0.157-0.147,0.404-0.14,0.551,0.017l62.621,23.141
		c0.147,0.157,0.14,0.404-0.017,0.551L667.272,202.961z"/>
</g>
<g id="Men">
	<path fill="#FCDBB0" d="M524.03,144.551h-39.449c-7.56,0-13.745-18.419-13.745-25.704v-10.172h-0.825
		c-3.024,0-5.361-2.199-5.361-4.948V91.356c0-2.749,2.474-4.948,5.361-4.948h0.825V69.914c0-7.422,6.185-13.333,13.745-13.333
		h39.449c7.56,0,13.745,6.048,13.745,13.333v61.167C537.775,138.503,531.59,144.551,524.03,144.551z"/>
	<path fill="#C79979" d="M480.732,92.456h-1.375c-1.237,0-2.337,1.1-2.337,2.474v5.086c0,1.375,1.1,2.474,2.337,2.474h1.375v1.1
		c-0.275,0.137-0.412,0.137-0.687,0.137h-7.972c-1.375,0-2.474-1.1-2.474-2.337v-7.697c0-1.375,1.1-2.337,2.474-2.337h7.972
		c0.275,0,0.55,0,0.687,0.137V92.456z M480.732,130.943c0,7.422,6.185,13.608,13.745,13.608h9.759v30.927h-11.134v-30.927h-8.522
		c-7.56,0-13.745-6.048-13.745-13.608v-22.405h9.897V130.943z"/>
	<path fill="#262C34" d="M529.666,62.766h-33.264c-2.062,0-5.086,0.275-5.086,2.749v8.66c0,1.924-8.797,2.749-8.797,9.622v2.612
		h-11.821V52.87c0-6.185,6.735-12.096,13.608-12.096h1.512l0,0h41.786c2.749,0,4.948-2.199,4.948-4.811v-0.687
		c0-2.612-2.199-4.673-4.948-4.811h1.512c7.56,0,13.608,6.048,13.608,13.47v5.498C542.999,56.718,537.088,62.629,529.666,62.766z"/>
	<path fill="#131619" d="M529.666,62.766h-33.264c-2.062,0-4.948,0.962-4.948,3.024v8.385c0,1.924-1.1,4.398-4.124,4.398
		c-2.749,0-4.811,2.612-4.811,5.223v2.612h-11.821V61.392c0-2.612,3.161-5.636,6.735-5.636c0.687,0,1.375,0,2.749,0h55.943
		c2.887,0,5.361-1.649,6.598-4.124C541.762,57.818,536.263,62.629,529.666,62.766z"/>
	<path fill="#B87B6D" d="M529.666,120.909L529.666,120.909c-3.024,2.062-7.285,3.299-12.096,3.299c-4.536,0-8.522-1.1-11.546-3.024
		c-0.55-0.137-0.962-0.687-0.962-1.375c0-0.825,0.687-1.512,1.512-1.512c0.412,0,0.825,0.137,1.1,0.55l0,0
		c2.612,1.512,6.048,2.474,10.034,2.474c3.849,0,7.422-0.962,9.897-2.337c0.275-0.275,0.687-0.55,1.1-0.55
		c0.825,0,1.512,0.687,1.512,1.512C530.078,120.222,529.941,120.634,529.666,120.909z"/>
	<path fill="#DD9760" d="M526.092,106.476h-1.924v-2.887h0.55c0.55,0,0.962-0.412,0.962-0.825v-1.237
		c0-0.412-0.412-0.825-0.962-0.825h-0.55l0,0h-1.924c-1.375,0-2.474-1.1-2.474-2.474v-4.811h2.887v3.436
		c0,0.55,0.412,0.825,0.825,0.825h0.687l0,0h1.924c1.375,0,2.474,1.1,2.474,2.474v3.711
		C528.566,105.377,527.466,106.476,526.092,106.476z"/>
	<path fill="#272C34" d="M507.948,81.46h0.137c1.512,0,2.887,1.375,2.887,3.024v4.261c0,1.649-1.237,3.024-2.887,3.024h-0.137
		c-1.512,0-2.887-1.375-2.887-3.024v-4.261C505.062,82.834,506.299,81.46,507.948,81.46z"/>
	<path fill="#272C34" d="M530.078,81.46h0.137c1.512,0,2.886,1.375,2.886,3.024v4.261c0,1.649-1.237,3.024-2.886,3.024h-0.137
		c-1.512,0-2.887-1.375-2.887-3.024v-4.261C527.192,82.834,528.429,81.46,530.078,81.46z"/>
	<path fill="#FCDBB0" d="M535.576,193.209c0,2.474-1.924,4.398-4.398,4.398c-1.512,0-2.749-0.687-3.574-1.787l-18.006-30.377
		l7.697-4.398l16.632,28.865C534.889,190.735,535.576,191.835,535.576,193.209z"/>
	<path fill="#00243A" d="M470.836,224.411c0-0.412-0.137-0.962-0.137-1.375v-56.631c0-5.498,4.536-10.034,10.034-10.034h12.096
		l5.91,14.707l5.91-14.707h4.811c3.574,0,6.598,1.787,8.385,4.536l0,0l13.333,23.23l-11.409,6.46l-0.55-0.825v33.264
		c0,0.412-0.137,0.687-0.137,1.1c-7.972,1.924-16.357,3.024-25.016,3.024C486.093,227.16,478.258,226.198,470.836,224.411z"/>
	<path fill="#F77347" d="M483.894,184.412h35.463v11.821h-35.463L483.894,184.412L483.894,184.412z"/>
	<path fill="#02121F" d="M488.292,177.127l1.512,13.195l-5.91,2.337v33.951c-4.536-0.412-8.797-1.237-13.195-2.199
		c0-0.412-0.137-0.962-0.137-1.375v-56.631c0-5.498,4.536-10.034,10.034-10.034h1.787l0,0h10.309l5.91,14.707L488.292,177.127z"/>
	<path fill="#FCDBB0" d="M578.209,200.202c-0.409,0.689-1.386,0.904-2.076,0.496l-4.956-3.104c0.689,0.409,0.904,1.386,0.496,2.075
		c-0.409,0.689-1.386,0.904-2.076,0.496l-1.882-1.171l0,0l0.503,0.353c0.689,0.409,0.904,1.386,0.43,1.955
		c-0.409,0.689-1.265,0.839-1.955,0.43l-0.941-0.585l-34.576-3.538l2.062-8.247l34.637,2.986l0,0
		c0.307-0.01,0.614-0.019,1.052,0.213l8.84,5.381C578.468,198.656,578.618,199.513,578.209,200.202z M524.9,220.199l-39.219-11.046
		c-1.237-0.412-1.924-0.687-2.887-1.649c-0.962-0.962-1.237-1.649-1.649-3.161l-3.436-13.47l8.66-2.474l3.299,12.646l38.788,10.492
		l0.111,0.092"/>
	<path fill="#FCDBB0" d="M528.455,211.536l4.248-2.533c0.84-0.49,2.036-0.175,2.526,0.665s0.175,2.036-0.665,2.526l-2.29-0.571
		l8.906,2.344c0.798,0.21,1.287,1.049,1.077,1.847c-0.21,0.798-1.049,1.287-1.847,1.077l1.462,0.385
		c0.798,0.21,1.287,1.049,1.077,1.847c-0.007,0.567-0.847,1.056-1.644,0.846l-1.462-0.385c0.798,0.21,1.287,1.049,1.077,1.847
		c-0.21,0.798-1.049,1.287-1.847,1.077l-2.791-0.735c0.798,0.21,1.287,1.049,1.077,1.847c-0.21,0.798-1.049,1.287-1.847,1.077
		l-7.178-1.889l-0.133-0.035c-1.329-0.35-2.519-1.231-3.302-2.575"/>
</g>
<path opacity="0.9" fill="#FFFFFF" stroke="#CCCCCC" stroke-miterlimit="10" enable-background="new    " d="M776.347,110.325
	H628.22l0.412,0.412l-17.594,17.731l-17.594-17.731l0.412-0.412h-24.192c-7.422,0-13.608-6.048-13.608-13.333V13.833
	c0-7.422,6.048-13.333,13.608-13.333h206.82c7.422,0,13.608,6.048,13.608,13.333v83.159
	C789.955,104.414,783.907,110.325,776.347,110.325z"/>
</svg>
