<?xml version="1.0" encoding="utf-8"?>
<!-- Generator: Adobe Illustrator 17.0.0, SVG Export Plug-In . SVG Version: 6.00 Build 0)  -->
<!DOCTYPE svg PUBLIC "-//W3C//DTD SVG 1.1//EN" "http://www.w3.org/Graphics/SVG/1.1/DTD/svg11.dtd">
<svg version="1.1" id="Слой_1" xmlns="http://www.w3.org/2000/svg"  x="0px" y="0px"
	 width="1020.25px" height="275.434px" viewBox="80.75 0 1020.25 275.434" enable-background="new 80.75 0 1020.25 275.434"
	 xml:space="preserve">
<path display="none" fill="#339999" d="M1110,210.434c0,1.105-0.895,2-2,2H678c-1.105,0-2-0.895-2-2v-21c0-1.105,0.895-2,2-2h430
	c1.105,0,2,0.895,2,2V210.434z"/>
<path display="none" fill="#FF9966" d="M481,215.434c0,1.105-0.895,2-2,2H32c-1.105,0-2-0.895-2-2v-21c0-1.105,0.895-2,2-2h447
	c1.105,0,2,0.895,2,2V215.434z"/>
<g id="Card5">
	<path id="Frame_3_" fill="#B3B3B3" d="M726,274.522c0,0.573-0.648,0.912-1.204,0.912h-127.79c-0.556,0-1.006-0.338-1.006-0.912
		V257.91c0-0.573,0.451-1.476,1.006-1.476h127.79c0.556,0,1.204,0.903,1.204,1.476V274.522z"/>
	<rect id="Info_4_" x="679" y="257.434" fill="#E6E6E6" width="46" height="17"/>
	<path id="Button_7_" fill="#339999" d="M722,272.334c0,0.055-0.045,0.1-0.1,0.1h-18.8c-0.055,0-0.1-0.045-0.1-0.1v-3.8
		c0-0.055,0.045-0.1,0.1-0.1h18.8c0.055,0,0.1,0.045,0.1,0.1V272.334z"/>
	<rect id="Input_3_" x="682" y="268.434" fill="#FFFFFF" width="19" height="4"/>
	<rect id="Data_3_" x="614" y="257.434" fill="#FFFFFF" width="65" height="17"/>
	<g id="Foto_3_">
		<rect id="Color_22_" x="597" y="257.434" fill="#CCCCCC" width="17" height="17"/>
		<path id="_x33__6_" fill="#FFFFFF" d="M608.162,260.304l0.365-0.3l-0.091-0.446l-0.069-0.104l0.234,0.121l0.386,0.44l0.14,0.451
			l-0.043,0.644l-0.15,0.429c-0.213,0.156-0.438,0.302-0.631,0.483c0.173,0.223,0.327,0.347,0.342,0.645
			c0.007,0.138-0.004,0.286-0.004,0.425c0,0.45,0.001,0.9,0,1.349c-0.001,0.825,0.002,1.65,0.003,2.475
			c0,0.587,0.119,1.297-0.385,1.717c-0.349,0.291-0.816,0.275-1.243,0.275c-0.063,0-0.898,0.001-0.898,0.001s0,1.123,0,1.137
			c0-0.004,0.435,0.002,0.475,0.012c0.169,0.045,0.261,0.162,0.372,0.293c0.301,0.353,0.495,0.785,0.71,1.193l0.471,0.695
			l-0.783,0.468l-4.119,0.208l-1.061-0.695c0.358-0.574,0.651-1.226,1.052-1.768c0.433-0.585,1.232-0.409,1.873-0.406
			c0,0-0.031-1.141-0.032-1.143c-0.001,0.038-0.73-0.037-0.784-0.043c-0.414-0.047-0.68-0.153-0.893-0.534
			c-0.171-0.306-0.164-1.064-0.171-1.561c-0.002-0.168-0.023-0.624-0.051-0.845c-0.128-0.13-0.417-0.072-0.51-0.294
			c-0.085-0.202-0.11-0.597-0.104-0.91c0.007-0.404,0.107-0.631,0.669-0.671l0.179-3.031l0.139-0.268l0.247-0.247l0.339-0.159
			l0.465-0.064L608.162,260.304z"/>
		<path id="_x32__3_" fill="#999999" d="M605.106,270.045c0.142,0.413,0.273,0.83,0.47,1.224c0.153-0.3,0.149-0.335,0.279-0.621
			c0,0,0.124-0.298,0.267-0.607c0.271-0.031,0.491,0.014,0.592,0.038c0.431,0.101,0.678,0.627,0.853,0.991
			c0.043,0.089,0.563,1.18,0.579,1.168l-0.906,0.676h-3.997l-1.061-0.695c0,0,0.453-0.827,0.647-1.137
			c0.233-0.373,0.441-0.93,0.937-1.032C604.151,269.97,604.71,270.043,605.106,270.045z"/>
		<path id="_x31__6_" fill="#999999" d="M604.039,263.892c-0.011,0.017-0.023,0.033-0.037,0.049c-0.2,0.233-0.508,0.113-0.772,0.094
			c0.002-0.521,0.011-1.042,0.015-1.562c0.005-0.661-0.162-1.578,0.417-2.042c0.523-0.419,1.491-0.242,2.119-0.237
			c0.543,0.004,1.086,0.007,1.629,0.01c0.317,0.001,0.822,0.122,1.002-0.219c0.138-0.259-0.025-0.477-0.232-0.629
			c0.762,0.187,1.091,0.849,1.049,1.595c-0.049,0.867-0.823,1.08-1.551,1.055c-0.752-0.026-1.508-0.075-2.258,0.01
			c-0.407,0.046-0.483,0.304-0.515,0.661c-0.013,0.146-0.012,0.305-0.089,0.436c-0.122,0.207-0.337,0.183-0.508,0.318
			C604.155,263.553,604.137,263.742,604.039,263.892z"/>
		<rect id="Color_21_" x="597" y="269.434" opacity="0.55" fill="#339999" enable-background="new    " width="17" height="5"/>
	</g>
</g>
<g id="Card4_2_">
	<path id="Frame_5_" fill="#B3B3B3" d="M726,252.522c0,0.573-0.648,0.912-1.204,0.912h-127.79c-0.556,0-1.006-0.338-1.006-0.912
		V235.91c0-0.573,0.451-1.476,1.006-1.476h127.79c0.556,0,1.204,0.903,1.204,1.476V252.522z"/>
	<rect id="Info_5_" x="679" y="235.434" fill="#E6E6E6" width="46" height="17"/>
	<path id="Button_6_" fill="#339999" d="M722,250.334c0,0.055-0.045,0.1-0.1,0.1h-18.8c-0.055,0-0.1-0.045-0.1-0.1v-3.8
		c0-0.055,0.045-0.1,0.1-0.1h18.8c0.055,0,0.1,0.045,0.1,0.1V250.334z"/>
	<rect id="Input_4_" x="682" y="246.434" fill="#FFFFFF" width="19" height="4"/>
	<rect id="Data_4_" x="614" y="235.434" fill="#FFFFFF" width="65" height="17"/>
	<g id="Foto_4_">
		<rect id="Color_19_" x="597" y="235.434" fill="#CCCCCC" width="17" height="17"/>
		<path id="_x33__5_" fill="#FFFFFF" d="M608.162,238.304l0.365-0.3l-0.091-0.446l-0.069-0.104l0.234,0.121l0.386,0.44l0.14,0.451
			l-0.043,0.644l-0.15,0.429c-0.213,0.156-0.438,0.302-0.631,0.483c0.173,0.223,0.327,0.347,0.342,0.645
			c0.007,0.138-0.004,0.286-0.004,0.425c0,0.45,0.001,0.9,0,1.349c-0.001,0.825,0.002,1.65,0.003,2.475
			c0,0.587,0.119,1.297-0.385,1.717c-0.349,0.291-0.816,0.275-1.243,0.275c-0.063,0-0.898,0.001-0.898,0.001s0,1.123,0,1.137
			c0-0.004,0.435,0.002,0.475,0.012c0.169,0.045,0.261,0.162,0.372,0.293c0.301,0.353,0.495,0.785,0.71,1.193l0.471,0.695
			l-0.783,0.468l-4.119,0.209l-1.061-0.695c0.358-0.574,0.651-1.226,1.052-1.768c0.433-0.585,1.232-0.409,1.873-0.406
			c0,0-0.031-1.141-0.032-1.143c-0.001,0.038-0.73-0.037-0.784-0.043c-0.414-0.047-0.68-0.153-0.893-0.534
			c-0.171-0.306-0.164-1.064-0.171-1.561c-0.002-0.168-0.023-0.624-0.051-0.845c-0.128-0.13-0.417-0.072-0.51-0.294
			c-0.085-0.202-0.11-0.597-0.104-0.91c0.007-0.404,0.107-0.631,0.669-0.671l0.179-3.031l0.139-0.268l0.247-0.247l0.339-0.159
			l0.465-0.064L608.162,238.304z"/>
		<path id="_x32__5_" fill="#999999" d="M605.106,248.045c0.142,0.413,0.273,0.83,0.47,1.224c0.153-0.3,0.149-0.335,0.279-0.621
			c0,0,0.124-0.298,0.267-0.607c0.271-0.031,0.491,0.014,0.592,0.038c0.431,0.101,0.678,0.627,0.853,0.991
			c0.043,0.089,0.563,1.18,0.579,1.168l-0.906,0.676h-3.997l-1.061-0.695c0,0,0.453-0.827,0.647-1.137
			c0.233-0.373,0.441-0.93,0.937-1.032C604.151,247.97,604.71,248.043,605.106,248.045z"/>
		<path id="_x31__5_" fill="#999999" d="M604.039,241.892c-0.011,0.017-0.023,0.033-0.037,0.049c-0.2,0.233-0.508,0.113-0.772,0.094
			c0.002-0.521,0.011-1.042,0.015-1.562c0.005-0.661-0.162-1.578,0.417-2.042c0.523-0.419,1.491-0.242,2.119-0.237
			c0.543,0.004,1.086,0.007,1.629,0.01c0.317,0.002,0.822,0.122,1.002-0.219c0.138-0.259-0.025-0.477-0.232-0.629
			c0.762,0.187,1.091,0.849,1.049,1.595c-0.049,0.867-0.823,1.08-1.551,1.055c-0.752-0.026-1.508-0.075-2.258,0.01
			c-0.407,0.046-0.483,0.304-0.515,0.661c-0.013,0.146-0.012,0.305-0.089,0.436c-0.122,0.207-0.337,0.183-0.508,0.318
			C604.155,241.553,604.137,241.742,604.039,241.892z"/>
		<rect id="Color_18_" x="597" y="247.434" opacity="0.55" fill="#339999" enable-background="new    " width="17" height="5"/>
	</g>
</g>
<g id="Card3_1_">
	<path id="Frame_1_" fill="#B3B3B3" d="M726,230.522c0,0.573-0.648,0.912-1.204,0.912h-127.79c-0.556,0-1.006-0.338-1.006-0.912
		V213.91c0-0.573,0.451-1.476,1.006-1.476h127.79c0.556,0,1.204,0.903,1.204,1.476V230.522z"/>
	<rect id="Info_1_" x="679" y="213.434" fill="#E6E6E6" width="46" height="17"/>
	<path id="Button_1_" fill="#339999" d="M722,228.334c0,0.055-0.045,0.1-0.1,0.1h-18.8c-0.055,0-0.1-0.045-0.1-0.1v-3.8
		c0-0.055,0.045-0.1,0.1-0.1h18.8c0.055,0,0.1,0.045,0.1,0.1V228.334z"/>
	<rect id="Input" x="682" y="224.434" fill="#FFFFFF" width="19" height="4"/>
	<rect id="Data" x="614" y="213.434" fill="#FFFFFF" width="65" height="17"/>
	<g id="Foto">
		<rect id="Color_17_" x="597" y="213.434" fill="#CCCCCC" width="17" height="17"/>
		<path id="_x33__4_" fill="#FFFFFF" d="M608.162,216.304l0.365-0.3l-0.091-0.446l-0.069-0.104l0.234,0.121l0.386,0.44l0.14,0.451
			l-0.043,0.644l-0.15,0.429c-0.213,0.156-0.438,0.302-0.631,0.483c0.173,0.223,0.327,0.347,0.342,0.645
			c0.007,0.138-0.004,0.286-0.004,0.425c0,0.45,0.001,0.9,0,1.349c-0.001,0.825,0.002,1.65,0.003,2.475
			c0,0.587,0.119,1.297-0.385,1.717c-0.349,0.291-0.816,0.275-1.243,0.275c-0.063,0-0.898,0.001-0.898,0.001s0,1.123,0,1.137
			c0-0.004,0.435,0.002,0.475,0.012c0.169,0.045,0.261,0.162,0.372,0.293c0.301,0.353,0.495,0.785,0.71,1.193l0.471,0.695
			l-0.783,0.468l-4.119,0.209l-1.061-0.695c0.358-0.574,0.651-1.226,1.052-1.768c0.433-0.585,1.232-0.409,1.873-0.406
			c0,0-0.031-1.141-0.032-1.143c-0.001,0.038-0.73-0.037-0.784-0.043c-0.414-0.047-0.68-0.153-0.893-0.534
			c-0.171-0.306-0.164-1.064-0.171-1.561c-0.002-0.168-0.023-0.624-0.051-0.845c-0.128-0.13-0.417-0.072-0.51-0.294
			c-0.085-0.202-0.11-0.597-0.104-0.91c0.007-0.404,0.107-0.631,0.669-0.671l0.179-3.031l0.139-0.268l0.247-0.247l0.339-0.159
			l0.465-0.064L608.162,216.304z"/>
		<path id="_x32__4_" fill="#999999" d="M605.106,226.045c0.142,0.413,0.273,0.83,0.47,1.224c0.153-0.3,0.149-0.335,0.279-0.621
			c0,0,0.124-0.298,0.267-0.607c0.271-0.031,0.491,0.014,0.592,0.038c0.431,0.101,0.678,0.627,0.853,0.991
			c0.043,0.089,0.563,1.18,0.579,1.168l-0.906,0.676h-3.997l-1.061-0.695c0,0,0.453-0.827,0.647-1.137
			c0.233-0.373,0.441-0.93,0.937-1.032C604.151,225.97,604.71,226.043,605.106,226.045z"/>
		<path id="_x31__4_" fill="#999999" d="M604.039,219.892c-0.011,0.017-0.023,0.033-0.037,0.049c-0.2,0.233-0.508,0.113-0.772,0.094
			c0.002-0.521,0.011-1.042,0.015-1.562c0.005-0.661-0.162-1.578,0.417-2.042c0.523-0.419,1.491-0.242,2.119-0.237
			c0.543,0.004,1.086,0.007,1.629,0.01c0.317,0.002,0.822,0.122,1.002-0.219c0.138-0.259-0.025-0.477-0.232-0.629
			c0.762,0.187,1.091,0.849,1.049,1.595c-0.049,0.867-0.823,1.08-1.551,1.055c-0.752-0.026-1.508-0.075-2.258,0.01
			c-0.407,0.046-0.483,0.304-0.515,0.661c-0.013,0.146-0.012,0.305-0.089,0.436c-0.122,0.207-0.337,0.183-0.508,0.318
			C604.155,219.553,604.137,219.742,604.039,219.892z"/>
		<rect id="Color_16_" x="597" y="225.434" opacity="0.55" fill="#339999" enable-background="new    " width="17" height="5"/>
	</g>
</g>
<g id="Card2_1_">
	<path id="Frame_4_" fill="#B3B3B3" d="M726,208.522c0,0.573-0.648,0.912-1.204,0.912h-127.79c-0.556,0-1.006-0.338-1.006-0.912
		V191.91c0-0.573,0.451-1.476,1.006-1.476h127.79c0.556,0,1.204,0.903,1.204,1.476V208.522z"/>
	<rect id="Info_3_" x="679" y="191.434" fill="#E6E6E6" width="46" height="17"/>
	<path id="Button_3_" fill="#339999" d="M722,206.334c0,0.055-0.045,0.1-0.1,0.1h-18.8c-0.055,0-0.1-0.045-0.1-0.1v-3.8
		c0-0.055,0.045-0.1,0.1-0.1h18.8c0.055,0,0.1,0.045,0.1,0.1V206.334z"/>
	<rect id="Input_2_" x="682" y="202.434" fill="#FFFFFF" width="19" height="4"/>
	<rect id="Data_2_" x="614" y="191.434" fill="#FFFFFF" width="65" height="17"/>
	<g id="Foto_2_">
		<rect id="Color_15_" x="597" y="191.434" fill="#CCCCCC" width="17" height="17"/>
		<path id="_x33__3_" fill="#FFFFFF" d="M608.162,194.304l0.365-0.3l-0.091-0.446l-0.069-0.104l0.234,0.121l0.386,0.44l0.14,0.451
			l-0.043,0.644l-0.15,0.429c-0.213,0.156-0.438,0.302-0.631,0.483c0.173,0.223,0.327,0.347,0.342,0.645
			c0.007,0.138-0.004,0.286-0.004,0.425c0,0.45,0.001,0.9,0,1.349c-0.001,0.825,0.002,1.65,0.003,2.475
			c0,0.587,0.119,1.297-0.385,1.717c-0.349,0.291-0.816,0.275-1.243,0.275c-0.063,0-0.898,0.001-0.898,0.001s0,1.123,0,1.137
			c0-0.004,0.435,0.002,0.475,0.012c0.169,0.045,0.261,0.162,0.372,0.293c0.301,0.353,0.495,0.785,0.71,1.193l0.471,0.695
			l-0.783,0.468l-4.119,0.209l-1.061-0.695c0.358-0.574,0.651-1.226,1.052-1.768c0.433-0.585,1.232-0.409,1.873-0.406
			c0,0-0.031-1.141-0.032-1.143c-0.001,0.038-0.73-0.037-0.784-0.043c-0.414-0.047-0.68-0.153-0.893-0.534
			c-0.171-0.306-0.164-1.064-0.171-1.561c-0.002-0.168-0.023-0.624-0.051-0.845c-0.128-0.13-0.417-0.072-0.51-0.294
			c-0.085-0.202-0.11-0.597-0.104-0.91c0.007-0.404,0.107-0.631,0.669-0.671l0.179-3.031l0.139-0.268l0.247-0.247l0.339-0.159
			l0.465-0.064L608.162,194.304z"/>
		<path id="_x32__2_" fill="#999999" d="M605.106,204.045c0.142,0.413,0.273,0.83,0.47,1.224c0.153-0.3,0.149-0.335,0.279-0.621
			c0,0,0.124-0.298,0.267-0.607c0.271-0.031,0.491,0.014,0.592,0.038c0.431,0.101,0.678,0.627,0.853,0.991
			c0.043,0.089,0.563,1.18,0.579,1.168l-0.906,0.676h-3.997l-1.061-0.695c0,0,0.453-0.827,0.647-1.137
			c0.233-0.373,0.441-0.93,0.937-1.032C604.151,203.97,604.71,204.043,605.106,204.045z"/>
		<path id="_x31__3_" fill="#999999" d="M604.039,197.892c-0.011,0.017-0.023,0.033-0.037,0.049c-0.2,0.233-0.508,0.113-0.772,0.094
			c0.002-0.521,0.011-1.042,0.015-1.562c0.005-0.661-0.162-1.578,0.417-2.042c0.523-0.419,1.491-0.242,2.119-0.237
			c0.543,0.004,1.086,0.007,1.629,0.01c0.317,0.002,0.822,0.122,1.002-0.219c0.138-0.259-0.025-0.477-0.232-0.629
			c0.762,0.187,1.091,0.849,1.049,1.595c-0.049,0.867-0.823,1.08-1.551,1.055c-0.752-0.026-1.508-0.075-2.258,0.01
			c-0.407,0.046-0.483,0.304-0.515,0.661c-0.013,0.146-0.012,0.305-0.089,0.436c-0.122,0.207-0.337,0.183-0.508,0.318
			C604.155,197.553,604.137,197.742,604.039,197.892z"/>
		<rect id="Color_14_" x="597" y="203.434" opacity="0.55" fill="#339999" enable-background="new    " width="17" height="5"/>
	</g>
</g>
<g id="Card1_1_">
	<path id="Frame_2_" fill="#B3B3B3" d="M726,186.522c0,0.573-0.648,0.912-1.204,0.912h-127.79c-0.556,0-1.006-0.338-1.006-0.912
		V169.91c0-0.573,0.451-1.476,1.006-1.476h127.79c0.556,0,1.204,0.903,1.204,1.476V186.522z"/>
	<rect id="Info_2_" x="679" y="169.434" fill="#E6E6E6" width="46" height="17"/>
	<path id="Button_2_" fill="#339999" d="M722,184.334c0,0.055-0.045,0.1-0.1,0.1h-18.8c-0.055,0-0.1-0.045-0.1-0.1v-3.8
		c0-0.055,0.045-0.1,0.1-0.1h18.8c0.055,0,0.1,0.045,0.1,0.1V184.334z"/>
	<rect id="Input_1_" x="682" y="180.434" fill="#FFFFFF" width="19" height="4"/>
	<rect id="Data_1_" x="614" y="169.434" fill="#FFFFFF" width="65" height="17"/>
	<g id="Foto_1_">
		<rect id="Color_12_" x="597" y="169.434" fill="#CCCCCC" width="17" height="17"/>
		<path id="_x33__2_" fill="#FFFFFF" d="M608.162,172.304l0.365-0.3l-0.091-0.446l-0.069-0.104l0.234,0.121l0.386,0.44l0.14,0.451
			l-0.043,0.644l-0.15,0.429c-0.213,0.156-0.438,0.302-0.631,0.483c0.173,0.223,0.327,0.347,0.342,0.645
			c0.007,0.138-0.004,0.286-0.004,0.425c0,0.45,0.001,0.9,0,1.349c-0.001,0.825,0.002,1.65,0.003,2.475
			c0,0.587,0.119,1.297-0.385,1.717c-0.349,0.291-0.816,0.275-1.243,0.275c-0.063,0-0.898,0.001-0.898,0.001s0,1.123,0,1.137
			c0-0.004,0.435,0.002,0.475,0.012c0.169,0.045,0.261,0.162,0.372,0.293c0.301,0.353,0.495,0.785,0.71,1.193l0.471,0.695
			l-0.783,0.468l-4.119,0.209l-1.061-0.695c0.358-0.574,0.651-1.226,1.052-1.768c0.433-0.585,1.232-0.409,1.873-0.406
			c0,0-0.031-1.141-0.032-1.143c-0.001,0.038-0.73-0.037-0.784-0.043c-0.414-0.047-0.68-0.153-0.893-0.534
			c-0.171-0.306-0.164-1.064-0.171-1.561c-0.002-0.168-0.023-0.624-0.051-0.845c-0.128-0.13-0.417-0.072-0.51-0.294
			c-0.085-0.202-0.11-0.597-0.104-0.91c0.007-0.404,0.107-0.631,0.669-0.671l0.179-3.031l0.139-0.268l0.247-0.247l0.339-0.159
			l0.465-0.064L608.162,172.304z"/>
		<path id="_x32__1_" fill="#999999" d="M605.106,182.045c0.142,0.413,0.273,0.83,0.47,1.224c0.153-0.3,0.149-0.335,0.279-0.621
			c0,0,0.124-0.298,0.267-0.607c0.271-0.031,0.491,0.014,0.592,0.038c0.431,0.101,0.678,0.627,0.853,0.991
			c0.043,0.089,0.563,1.18,0.579,1.168l-0.906,0.676h-3.997l-1.061-0.695c0,0,0.453-0.827,0.647-1.137
			c0.233-0.373,0.441-0.93,0.937-1.032C604.151,181.97,604.71,182.043,605.106,182.045z"/>
		<path id="_x31__2_" fill="#999999" d="M604.039,175.892c-0.011,0.017-0.023,0.033-0.037,0.049c-0.2,0.233-0.508,0.113-0.772,0.094
			c0.002-0.521,0.011-1.042,0.015-1.562c0.005-0.661-0.162-1.578,0.417-2.042c0.523-0.419,1.491-0.242,2.119-0.237
			c0.543,0.004,1.086,0.007,1.629,0.01c0.317,0.002,0.822,0.122,1.002-0.219c0.138-0.259-0.025-0.477-0.232-0.629
			c0.762,0.187,1.091,0.849,1.049,1.595c-0.049,0.867-0.823,1.08-1.551,1.055c-0.752-0.026-1.508-0.075-2.258,0.01
			c-0.407,0.046-0.483,0.304-0.515,0.661c-0.013,0.146-0.012,0.305-0.089,0.436c-0.122,0.207-0.337,0.183-0.508,0.318
			C604.155,175.553,604.137,175.742,604.039,175.892z"/>
		<rect id="Color_8_" x="597" y="181.434" opacity="0.55" fill="#339999" enable-background="new    " width="17" height="5"/>
	</g>
</g>
<g id="Widget__x22_Рейтинг_покупателя_от_x22_">
	<polygon id="_x35__x2A_" fill="#FFCC99" points="878.689,146.469 880.452,152.042 886.297,151.997 881.542,155.396
		883.391,160.941 878.689,157.469 873.986,160.941 875.835,155.396 871.08,151.997 876.925,152.042 	"/>
	<polygon id="_x34__x2A_" fill="#FFCC99" points="854.689,146.469 856.452,152.042 862.297,151.997 857.542,155.396
		859.391,160.941 854.689,157.469 849.986,160.941 851.835,155.396 847.08,151.997 852.925,152.042 	"/>
	<polygon id="_x33__x2A_" fill="#FFCC99" points="830.689,146.469 832.452,152.042 838.297,151.997 833.542,155.396
		835.391,160.941 830.689,157.469 825.986,160.941 827.835,155.396 823.08,151.997 828.925,152.042 	"/>
	<polygon id="_x32__x2A_" fill="#FFCC99" points="806.689,146.469 808.452,152.042 814.297,151.997 809.542,155.396
		811.391,160.941 806.689,157.469 801.986,160.941 803.835,155.396 799.08,151.997 804.925,152.042 	"/>
	<polygon id="_x31__x2A_" fill="#FFCC99" points="782.689,146.469 784.452,152.042 790.297,151.997 785.542,155.396
		787.391,160.941 782.689,157.469 777.986,160.941 779.835,155.396 775.08,151.997 780.925,152.042 	"/>
</g>
<g id="Widget__x22_Цена_x22_">

		<line id="_x34_" fill="none" stroke="#CCCCCC" stroke-width="4" stroke-miterlimit="10" x1="626" y1="155.434" x2="345" y2="155.434"/>

		<line id="_x33__1_" fill="none" stroke="#CCCCCC" stroke-width="4" stroke-miterlimit="10" x1="418" y1="155.434" x2="553" y2="155.434"/>
	<circle id="_x32_" fill="#FFFFFF" stroke="#CCCCCC" stroke-width="3" stroke-miterlimit="10" cx="561.041" cy="156.095" r="12.5"/>

		<circle id="_x31__1_" fill="#FFFFFF" stroke="#CCCCCC" stroke-width="3" stroke-miterlimit="10" cx="407.041" cy="156.095" r="12.5"/>
</g>
<path id="Input__x22_price2_x22__1_" fill="#FFFFFF" stroke="#CCCCCC" stroke-width="3" stroke-miterlimit="10" d="M323.5,170.934
	c0,1.105-0.895,2-2,2h-86c-1.105,0-2-0.895-2-2v-29c0-1.105,0.895-2,2-2h86c1.105,0,2,0.895,2,2V170.934z"/>
<path id="Input__x22_price1_x22__1_" fill="#FFFFFF" stroke="#CCCCCC" stroke-width="3" stroke-miterlimit="10" d="M212.5,170.934
	c0,1.105-0.895,2-2,2h-86c-1.105,0-2-0.895-2-2v-29c0-1.105,0.895-2,2-2h86c1.105,0,2,0.895,2,2V170.934z"/>
<path id="Button_x22_Найти_x22_" fill="#FFCC99" d="M1061,120.434c0,1.105-0.895,2-2,2H906c-1.105,0-2-0.895-2-2v-31
	c0-1.105,0.895-2,2-2h153c1.105,0,2,0.895,2,2V120.434z"/>
<path id="Combobox__x22_Вся_Украина_x22_" fill="#FFFFFF" stroke="#CCCCCC" stroke-width="3" stroke-miterlimit="10" d="
	M884.5,119.934c0,1.105-0.895,2-2,2h-236c-1.105,0-2-0.895-2-2v-29c0-1.105,0.895-2,2-2h236c1.105,0,2,0.895,2,2V119.934z"/>
<path id="Input_x2F_Combobox_1_" fill="#FFFFFF" stroke="#CCCCCC" stroke-width="3" stroke-miterlimit="10" d="M622.5,119.934
	c0,1.105-0.895,2-2,2h-496c-1.105,0-2-0.895-2-2v-29c0-1.105,0.895-2,2-2h496c1.105,0,2,0.895,2,2V119.934z"/>
<path id="Color_3_" opacity="0.8" fill="#009999" enable-background="new    " d="M523.755,18.094
	c57.868,0,104.739,46.871,104.739,104.602s-46.871,104.602-104.739,104.602s-104.739-46.871-104.739-104.602
	C419.016,64.828,465.888,18.094,523.755,18.094z"/>
<path id="path2839_2_" opacity="0.6" fill="#CCCCCC" stroke="#CCCCCC" stroke-miterlimit="10" enable-background="new    " d="
	M615.565,147.326c13.637,14.343,13.064,37.024-1.279,50.661s-37.024,13.064-50.661-1.279s-13.064-37.024,1.279-50.661
	C579.247,132.411,601.929,132.983,615.565,147.326z"/>
<path id="path2841_1_" fill="#FFFFFF" d="M620.177,142.948c-16.052-16.884-42.783-17.558-59.667-1.506
	c-14.993,14.255-17.21,36.91-6.271,53.65l-51.341,44.522c-2.11,2.007-0.507,7.123,3.584,11.426s9.12,6.162,11.231,4.156
	c0.07-0.067,44.825-46.707,47.055-49.03c16.15,11.764,38.905,10.704,53.898-3.551c16.884-16.053,17.558-42.783,1.506-59.667
	L620.177,142.948z M614.275,197.998c-14.335,13.629-37.031,13.057-50.661-1.279c-13.629-14.335-13.057-37.031,1.279-50.661
	c14.335-13.629,37.031-13.057,50.661,1.279C629.183,161.672,628.61,184.368,614.275,197.998z"/>
<path id="path2841_2_" fill="#CCCCCC" d="M554.239,195.092l-51.341,44.522c-2.11,2.007-0.507,7.123,3.584,11.426
	s9.12,6.162,11.231,4.156c0.07-0.067,44.825-46.707,47.055-49.03"/>
<path id="path2854_1_" opacity="0.6" fill="#F2F2F2" enable-background="new    " d="M615.553,147.337
	c-4.498-4.731-9.98-7.958-15.826-9.676c-10.809,13.761-10.194,33.736,2.216,46.789c4.498,4.731,9.998,7.941,15.844,9.658
	C628.596,180.348,627.964,160.39,615.553,147.337L615.553,147.337z"/>
<path id="_x31_" fill="none" stroke="#CCCCCC" stroke-miterlimit="10" d="M615.565,147.326
	c13.637,14.343,13.064,37.024-1.279,50.661s-37.024,13.064-50.661-1.279s-13.064-37.024,1.279-50.661
	C579.247,132.411,601.929,132.983,615.565,147.326z"/>
<circle fill="none" stroke="#CCCCCC" stroke-miterlimit="10" cx="589.823" cy="172.113" r="42.282"/>
<g id="Men_1_">
	<path fill="#FCDBB0" d="M524.03,144.551h-39.449c-7.56,0-13.745-18.419-13.745-25.704v-10.172h-0.825
		c-3.024,0-5.361-2.199-5.361-4.948V91.356c0-2.749,2.474-4.948,5.361-4.948h0.825V69.914c0-7.422,6.185-13.333,13.745-13.333
		h39.449c7.56,0,13.745,6.048,13.745,13.333v61.167C537.775,138.503,531.59,144.551,524.03,144.551z"/>
	<path fill="#C79979" d="M480.732,92.456h-1.375c-1.237,0-2.337,1.1-2.337,2.474v5.086c0,1.375,1.1,2.474,2.337,2.474h1.375v1.1
		c-0.275,0.137-0.412,0.137-0.687,0.137h-7.972c-1.375,0-2.474-1.1-2.474-2.337v-7.697c0-1.375,1.1-2.337,2.474-2.337h7.972
		c0.275,0,0.55,0,0.687,0.137V92.456z M480.732,130.943c0,7.422,6.185,13.608,13.745,13.608h9.759v30.927h-11.134v-30.927h-8.522
		c-7.56,0-13.745-6.048-13.745-13.608v-22.405h9.897V130.943z"/>
	<path fill="#262C34" d="M529.666,62.766h-33.264c-2.062,0-5.086,0.275-5.086,2.749v8.66c0,1.924-8.797,2.749-8.797,9.622v2.612
		h-11.821V52.87c0-6.185,6.735-12.096,13.608-12.096h1.512l0,0h41.786c2.749,0,4.948-2.199,4.948-4.811v-0.687
		c0-2.612-2.199-4.673-4.948-4.811h1.512c7.56,0,13.608,6.048,13.608,13.47v5.498C542.999,56.718,537.088,62.629,529.666,62.766z"/>
	<path fill="#131619" d="M529.666,62.766h-33.264c-2.062,0-4.948,0.962-4.948,3.024v8.385c0,1.924-1.1,4.398-4.124,4.398
		c-2.749,0-4.811,2.612-4.811,5.223v2.612h-11.821V61.392c0-2.612,3.161-5.636,6.735-5.636c0.687,0,1.375,0,2.749,0h55.943
		c2.887,0,5.361-1.649,6.598-4.124C541.762,57.818,536.263,62.629,529.666,62.766z"/>
	<path fill="#B87B6D" d="M529.666,120.909L529.666,120.909c-3.024,2.062-7.285,3.299-12.096,3.299c-4.536,0-8.522-1.1-11.546-3.024
		c-0.55-0.137-0.962-0.687-0.962-1.375c0-0.825,0.687-1.512,1.512-1.512c0.412,0,0.825,0.137,1.1,0.55l0,0
		c2.612,1.512,6.048,2.474,10.034,2.474c3.849,0,7.422-0.962,9.897-2.337c0.275-0.275,0.687-0.55,1.1-0.55
		c0.825,0,1.512,0.687,1.512,1.512C530.078,120.222,529.941,120.634,529.666,120.909z"/>
	<path fill="#DD9760" d="M526.092,106.476h-1.924v-2.887h0.55c0.55,0,0.962-0.412,0.962-0.825v-1.237
		c0-0.412-0.412-0.825-0.962-0.825h-0.55l0,0h-1.924c-1.375,0-2.474-1.1-2.474-2.474v-4.811h2.887v3.436
		c0,0.55,0.412,0.825,0.825,0.825h0.687l0,0h1.924c1.375,0,2.474,1.1,2.474,2.474v3.711
		C528.566,105.377,527.466,106.476,526.092,106.476z"/>
	<path fill="#272C34" d="M507.948,81.46h0.137c1.512,0,2.887,1.375,2.887,3.024v4.261c0,1.649-1.237,3.024-2.887,3.024h-0.137
		c-1.512,0-2.887-1.375-2.887-3.024v-4.261C505.062,82.834,506.299,81.46,507.948,81.46z"/>
	<path fill="#272C34" d="M530.078,81.46h0.137c1.512,0,2.886,1.375,2.886,3.024v4.261c0,1.649-1.237,3.024-2.886,3.024h-0.137
		c-1.512,0-2.887-1.375-2.887-3.024v-4.261C527.192,82.834,528.429,81.46,530.078,81.46z"/>
	<path fill="#FCDBB0" d="M532.716,193.672l0.423,0.282l-16.071,27.773v-17.34h-0.423l7.472-12.829L507.2,162.235l7.895-4.511
		l17.058,29.605c0.987,0.846,1.692,2.115,1.692,3.524C533.703,191.839,533.28,192.826,532.716,193.672z"/>
	<path fill="#00243A" d="M470.836,224.411c0-0.412-0.137-0.962-0.137-1.375v-56.631c0-5.498,4.536-10.034,10.034-10.034h12.096
		l5.91,14.707l5.91-14.707h4.811c3.574,0,6.598,1.787,8.385,4.536l0,0l13.333,23.23l-11.409,6.46l-0.55-0.825v33.264
		c0,0.412-0.137,0.687-0.137,1.1c-7.972,1.924-16.357,3.024-25.016,3.024C486.093,227.16,478.258,226.198,470.836,224.411z"/>
	<path fill="#F77347" d="M483.894,184.412h35.463v11.821h-35.463L483.894,184.412L483.894,184.412z"/>
	<path fill="#02121F" d="M488.292,177.127l1.512,13.195l-5.91,2.337v33.951c-4.536-0.412-8.797-1.237-13.195-2.199
		c0-0.412-0.137-0.962-0.137-1.375v-56.631c0-5.498,4.536-10.034,10.034-10.034h1.787l0,0h10.309l5.91,14.707L488.292,177.127z"/>
	<path fill="#FCDBB0" d="M521.169,217.92c0,0.846-0.705,1.551-1.551,1.551h-1.551c-0.846,0-1.551-0.705-1.551-1.551
		s0.705-1.551,1.551-1.551h-1.551c-0.846,0-1.551-0.705-1.551-1.551s0.705-1.551,1.551-1.551h-1.551
		c-0.846,0-1.551-0.705-1.551-1.551s0.705-1.551,1.551-1.551h4.511c0.846,0,1.551,0.705,1.551,1.551s-0.705,1.551-1.551,1.551
		c0.846,0,1.551,0.705,1.551,1.551s-0.705,1.551-1.551,1.551C520.464,216.369,521.169,217.074,521.169,217.92z M521.169,221.021
		c0,0.846-0.705,1.551-1.551,1.551s-1.551-0.705-1.551-1.551s0.705-1.551,1.551-1.551S521.169,220.175,521.169,221.021z"/>
	<path fill="#FCDBB0" d="M528.455,211.536l4.248-2.533c0.84-0.49,2.036-0.175,2.526,0.665s0.175,2.036-0.665,2.526l-2.29-0.571
		l8.906,2.344c0.798,0.21,1.287,1.049,1.077,1.847s-1.049,1.287-1.847,1.077l1.462,0.385c0.798,0.21,1.287,1.049,1.077,1.847
		c-0.007,0.567-0.847,1.056-1.644,0.847l-1.462-0.385c0.798,0.21,1.287,1.049,1.077,1.847s-1.049,1.287-1.847,1.077l-2.791-0.735
		c0.798,0.21,1.287,1.049,1.077,1.847s-1.049,1.287-1.847,1.077l-7.178-1.889l-0.133-0.035c-1.329-0.35-2.519-1.231-3.302-2.575"/>
	<path fill="#FCDBB0" d="M524.9,220.199l-39.219-11.046c-1.237-0.412-1.924-0.687-2.887-1.649s-1.237-1.649-1.649-3.161
		l-3.436-13.47l8.66-2.474l3.299,12.646l38.788,10.492l0.111,0.092"/>
</g>
<path opacity="0.9" fill="#FFFFFF" stroke="#CCCCCC" stroke-miterlimit="10" enable-background="new    " d="M709.787,110.325
	H628.22l0.412,0.412l-17.594,17.731l-17.594-17.731l0.412-0.412h-24.192c-7.422,0-13.608-6.048-13.608-13.333V13.833
	c0-7.422,6.048-13.333,13.608-13.333h140.26c7.422,0,13.608,6.048,13.608,13.333v83.159
	C723.395,104.414,717.347,110.325,709.787,110.325z"/>
<path fill="none" stroke="#009999" stroke-miterlimit="10" d="M554.239,195.092c3.675,4.613,5.022,6.239,10.528,11.073"/>
<rect x="556.274" y="18.648" fill="none" width="165.039" height="85.867"/>
<text transform="matrix(1 0 0 1 593.9692 34.3115)"><tspan x="0" y="0" fill="#666666" font-family="'Helvetica-5-Normal'" font-size="22">Знайдіть</tspan><tspan x="-15.278" y="26.4" fill="#666666" font-family="'Helvetica-5-Normal'" font-size="22">відповідний</tspan><tspan x="6.116" y="52.8" fill="#666666" font-family="'Helvetica-5-Normal'" font-size="22">тендер!</tspan></text>
</svg>
