<?xml version="1.0" encoding="utf-8"?>
<!-- Generator: Adobe Illustrator 17.0.0, SVG Export Plug-In . SVG Version: 6.00 Build 0)  -->
<!DOCTYPE svg PUBLIC "-//W3C//DTD SVG 1.1//EN" "http://www.w3.org/Graphics/SVG/1.1/DTD/svg11.dtd">
<svg version="1.1" id="Слой_1" xmlns="http://www.w3.org/2000/svg" xmlns:xlink="http://www.w3.org/1999/xlink" x="0px" y="0px"
	 width="1080px" height="257.821px" viewBox="30 0 1080 257.821" enable-background="new 30 0 1080 257.821" xml:space="preserve">
<path fill="#339999" d="M1110,211.306c0,1.105-0.895,2-2,2H665c-1.105,0-2-0.895-2-2v-21c0-1.105,0.895-2,2-2h443
	c1.105,0,2,0.895,2,2V211.306z"/>
<path fill="#FF9966" d="M481,216.306c0,1.105-0.895,2-2,2H32c-1.105,0-2-0.895-2-2v-21c0-1.105,0.895-2,2-2h447c1.105,0,2,0.895,2,2
	V216.306z"/>
<path opacity="0.8" fill="#009999" enable-background="new    " d="M523.755,18.094c57.868,0,104.739,46.871,104.739,104.602
	s-46.871,104.602-104.739,104.602s-104.739-46.871-104.739-104.602C419.016,64.828,465.888,18.094,523.755,18.094z"/>
<g id="Hammer3_1_">
	<path fill="#FFFFFF" stroke="#009999" stroke-miterlimit="10" d="M590.656,256.083c-0.024,0.974,0.256,1.246,1.222,1.238
		c11.21-0.032,22.421-0.016,33.623-0.016c12.488,0,24.968-0.016,37.456,0.016c0.982,0,1.222-0.287,1.214-1.246
		c-0.056-4.112-0.024-8.232-0.024-12.352c0-2.387-1.078-3.473-3.425-3.473c-22.133-0.008-44.258-0.008-66.384-0.016
		c-2.595,0-3.665,1.062-3.673,3.657L590.656,256.083z"/>
	<path fill="#FFFFFF" stroke="#FF6633" stroke-miterlimit="10" d="M594.287,236.379c0-1.236-0.082-2.415,0.019-3.579
		c0.154-1.785,1.342-2.79,3.135-2.792c4.949-0.004,9.898-0.003,14.847-0.003c15.039,0,30.078,0.001,45.117,0.002
		c1.583,0,2.744,0.677,3.024,2.099c0.271,1.378,0.219,2.82,0.311,4.272C638.462,236.379,616.412,236.379,594.287,236.379z"/>
	<path id="_x33__12_" fill="#FFFFFF" stroke="#CCCCCC" stroke-miterlimit="10" d="M617.409,214.072
		c0.924,1.202,0.699,2.926-0.503,3.85l0,0c-1.202,0.924-2.926,0.699-3.85-0.503l-6.259-8.14c-0.924-1.202-0.699-2.926,0.503-3.85
		l0,0c1.202-0.924,2.926-0.699,3.85,0.503L617.409,214.072z"/>
	<path id="_x32__12_" fill="#FFFFFF" stroke="#CCCCCC" stroke-miterlimit="10" d="M625.007,211.542c0,1.516,1.229,2.745,2.745,2.745
		l0,0c1.516,0,2.745-1.229,2.745-2.745v-10.268c0-1.516-1.229-2.745-2.745-2.745l0,0c-1.516,0-2.745,1.229-2.745,2.745V211.542z"/>
	<path id="_x31__13_" fill="#FFFFFF" stroke="#CCCCCC" stroke-miterlimit="10" d="M637.938,214.072
		c-0.924,1.202-0.699,2.926,0.503,3.85l0,0c1.202,0.924,2.926,0.699,3.85-0.503l6.259-8.14c0.924-1.202,0.699-2.926-0.503-3.85l0,0
		c-1.202-0.924-2.926-0.699-3.85,0.503L637.938,214.072z"/>
</g>
<path fill="#FFFFFF" stroke="#CCCCCC" stroke-miterlimit="10" d="M593.621,180.049c-1.953,1.953-5.118,1.953-7.071,0l-12.728-12.728
	c-1.953-1.953-1.953-5.118,0-7.071l15.556-15.556c1.953-1.953,5.118-1.953,7.071,0l12.728,12.728c1.953,1.953,1.953,5.118,0,7.071
	L593.621,180.049z"/>
<path fill="#FFFFFF" stroke="#CCCCCC" stroke-miterlimit="10" d="M567.893,162.392l-3.414-3.414c-1.953-1.953-1.953-5.118,0-7.071
	l15.556-15.556c1.953-1.953,5.118-1.953,7.071,0l3.414,3.414L567.893,162.392z"/>
<path fill="#FFFFFF" stroke="#CCCCCC" stroke-miterlimit="10" d="M592.015,185.514l3.414,3.414c1.953,1.953,5.118,1.953,7.071,0
	l15.556-15.556c1.953-1.953,1.953-5.118,0-7.071l-3.414-3.414L592.015,185.514z"/>
<path fill="#FFFFFF" stroke="#CCCCCC" stroke-miterlimit="10" d="M516.703,243.295c-1.79,1.79-4.478,2.006-6.003,0.481l-1.104-1.104
	c-1.525-1.525-1.31-4.212,0.481-6.003l44.068-41.084l4.42,4.42L516.703,243.295z"/>
<path fill="#FFFFFF" stroke="#CCCCCC" stroke-miterlimit="10" d="M582.374,180.483l-16.263,16.263c-1.953,1.953-5.118,1.953-7.071,0
	l-1.414-1.414c-1.953-1.953-1.953-5.118,0-7.071l16.263-16.263L582.374,180.483z"/>
<g id="Men_2_">
	<path fill="#FCDBB0" d="M524.03,145.551h-39.449c-7.56,0-13.745-18.419-13.745-25.704v-10.172h-0.825
		c-3.024,0-5.361-2.199-5.361-4.948V92.356c0-2.749,2.474-4.948,5.361-4.948h0.825V70.914c0-7.422,6.185-13.333,13.745-13.333
		h39.449c7.56,0,13.745,6.048,13.745,13.333v61.167C537.775,139.503,531.59,145.551,524.03,145.551z"/>
	<path fill="#C79979" d="M480.732,93.456h-1.375c-1.237,0-2.337,1.1-2.337,2.474v5.086c0,1.375,1.1,2.474,2.337,2.474h1.375v1.1
		c-0.275,0.137-0.412,0.137-0.687,0.137h-7.972c-1.375,0-2.474-1.1-2.474-2.337v-7.697c0-1.375,1.1-2.337,2.474-2.337h7.972
		c0.275,0,0.55,0,0.687,0.137V93.456z M480.732,131.943c0,7.422,6.185,13.608,13.745,13.608h9.759v30.927h-11.134v-30.927h-8.522
		c-7.56,0-13.745-6.048-13.745-13.608v-22.405h9.897V131.943z"/>
	<path fill="#262C34" d="M529.666,63.766h-33.264c-2.062,0-5.086,0.275-5.086,2.749v8.66c0,1.924-8.797,2.749-8.797,9.622v2.612
		h-11.821V53.87c0-6.185,6.735-12.096,13.608-12.096h1.512l0,0h41.786c2.749,0,4.948-2.199,4.948-4.811v-0.687
		c0-2.612-2.199-4.673-4.948-4.811h1.512c7.56,0,13.608,6.048,13.608,13.47v5.498C542.999,57.718,537.088,63.629,529.666,63.766z"/>
	<path fill="#131619" d="M529.666,63.766h-33.264c-2.062,0-4.948,0.962-4.948,3.024v8.385c0,1.924-1.1,4.398-4.124,4.398
		c-2.749,0-4.811,2.612-4.811,5.223v2.612h-11.821V62.392c0-2.612,3.161-5.636,6.735-5.636c0.687,0,1.375,0,2.749,0h55.943
		c2.887,0,5.361-1.649,6.598-4.124C541.762,58.818,536.263,63.629,529.666,63.766z"/>
	<path fill="#B87B6D" d="M529.666,121.909L529.666,121.909c-3.024,2.062-7.285,3.299-12.096,3.299c-4.536,0-8.522-1.1-11.546-3.024
		c-0.55-0.137-0.962-0.687-0.962-1.375c0-0.825,0.687-1.512,1.512-1.512c0.412,0,0.825,0.137,1.1,0.55l0,0
		c2.612,1.512,6.048,2.474,10.034,2.474c3.849,0,7.422-0.962,9.897-2.337c0.275-0.275,0.687-0.55,1.1-0.55
		c0.825,0,1.512,0.687,1.512,1.512C530.078,121.222,529.941,121.634,529.666,121.909z"/>
	<path fill="#DD9760" d="M526.092,107.476h-1.924v-2.887h0.55c0.55,0,0.962-0.412,0.962-0.825v-1.237
		c0-0.412-0.412-0.825-0.962-0.825h-0.55l0,0h-1.924c-1.375,0-2.474-1.1-2.474-2.474v-4.811h2.887v3.436
		c0,0.55,0.412,0.825,0.825,0.825h0.687l0,0h1.924c1.375,0,2.474,1.1,2.474,2.474v3.711
		C528.566,106.377,527.466,107.476,526.092,107.476z"/>
	<path fill="#272C34" d="M507.948,82.46h0.137c1.512,0,2.887,1.375,2.887,3.024v4.261c0,1.649-1.237,3.024-2.887,3.024h-0.137
		c-1.512,0-2.887-1.375-2.887-3.024v-4.261C505.062,83.834,506.299,82.46,507.948,82.46z"/>
	<path fill="#272C34" d="M530.078,82.46h0.137c1.512,0,2.886,1.375,2.886,3.024v4.261c0,1.649-1.237,3.024-2.886,3.024h-0.137
		c-1.512,0-2.887-1.375-2.887-3.024v-4.261C527.192,83.834,528.429,82.46,530.078,82.46z"/>
	<path fill="#FCDBB0" d="M532.716,194.672l0.423,0.282l-16.071,27.773v-17.34h-0.423l7.472-12.829L507.2,163.235l7.895-4.511
		l17.058,29.605c0.987,0.846,1.692,2.115,1.692,3.524C533.703,192.839,533.28,193.826,532.716,194.672z"/>
	<path fill="#00243A" d="M470.836,225.411c0-0.412-0.137-0.962-0.137-1.375v-56.631c0-5.498,4.536-10.034,10.034-10.034h12.096
		l5.91,14.707l5.91-14.707h4.811c3.574,0,6.598,1.787,8.385,4.536l0,0l13.333,23.23l-11.409,6.46l-0.55-0.825v33.264
		c0,0.412-0.137,0.687-0.137,1.1c-7.972,1.924-16.357,3.024-25.016,3.024C486.093,228.16,478.258,227.198,470.836,225.411z"/>
	<path fill="#F77347" d="M483.894,185.412h35.463v11.821h-35.463L483.894,185.412L483.894,185.412z"/>
	<path fill="#02121F" d="M488.292,178.127l1.512,13.195l-5.91,2.337v33.951c-4.536-0.412-8.797-1.237-13.195-2.199
		c0-0.412-0.137-0.962-0.137-1.375v-56.631c0-5.498,4.536-10.034,10.034-10.034h1.787l0,0h10.309l5.91,14.707L488.292,178.127z"/>
	<path fill="#FCDBB0" d="M521.169,218.92c0,0.846-0.705,1.551-1.551,1.551h-1.551c-0.846,0-1.551-0.705-1.551-1.551
		s0.705-1.551,1.551-1.551h-1.551c-0.846,0-1.551-0.705-1.551-1.551s0.705-1.551,1.551-1.551h-1.551
		c-0.846,0-1.551-0.705-1.551-1.551s0.705-1.551,1.551-1.551h4.511c0.846,0,1.551,0.705,1.551,1.551s-0.705,1.551-1.551,1.551
		c0.846,0,1.551,0.705,1.551,1.551s-0.705,1.551-1.551,1.551C520.464,217.369,521.169,218.074,521.169,218.92z M521.169,222.021
		c0,0.846-0.705,1.551-1.551,1.551s-1.551-0.705-1.551-1.551s0.705-1.551,1.551-1.551S521.169,221.175,521.169,222.021z"/>
	<path fill="#FCDBB0" d="M528.455,212.536l4.248-2.533c0.84-0.49,2.036-0.175,2.526,0.665s0.175,2.036-0.665,2.526l-2.29-0.571
		l8.906,2.344c0.798,0.21,1.287,1.049,1.077,1.847c-0.21,0.798-1.049,1.287-1.847,1.077l1.462,0.385
		c0.798,0.21,1.287,1.049,1.077,1.847c-0.007,0.567-0.847,1.056-1.644,0.846l-1.462-0.385c0.798,0.21,1.287,1.049,1.077,1.847
		c-0.21,0.798-1.049,1.287-1.847,1.077l-2.791-0.735c0.798,0.21,1.287,1.049,1.077,1.847c-0.21,0.798-1.049,1.287-1.847,1.077
		l-7.178-1.889l-0.133-0.035c-1.329-0.35-2.519-1.231-3.302-2.575"/>
	<path fill="#FCDBB0" d="M524.9,221.199l-39.219-11.046c-1.237-0.412-1.924-0.687-2.887-1.649c-0.962-0.962-1.237-1.649-1.649-3.161
		l-3.436-13.47l8.66-2.474l3.299,12.646l38.788,10.492l0.111,0.092"/>
</g>
<path opacity="0.9" fill="#FFFFFF" stroke="#CCCCCC" stroke-miterlimit="10" enable-background="new    " d="M750.127,110.325
	H628.22l0.412,0.412l-17.594,17.731l-17.594-17.731l0.412-0.412h-24.192c-7.422,0-13.608-6.048-13.608-13.333V13.833
	c0-7.422,6.048-13.333,13.608-13.333h180.6c7.422,0,13.608,6.048,13.608,13.333v83.159
	C763.735,104.414,757.687,110.325,750.127,110.325z"/>
</svg>
