<?xml version="1.0" encoding="utf-8"?>
<!-- Generator: Adobe Illustrator 17.0.0, SVG Export Plug-In . SVG Version: 6.00 Build 0)  -->
<!DOCTYPE svg PUBLIC "-//W3C//DTD SVG 1.1//EN" "http://www.w3.org/Graphics/SVG/1.1/DTD/svg11.dtd">
<svg version="1.1" id="Слой_1" xmlns="http://www.w3.org/2000/svg" xmlns:xlink="http://www.w3.org/1999/xlink" x="0px" y="0px"
	 width="124.836px" height="127.084px" viewBox="0 0 124.836 127.084" enable-background="new 0 0 124.836 127.084"
	 xml:space="preserve">
<g id="Men1">
	<path fill="#FCDBB0" d="M44.196,109.561l-8.529,14.965l-0.233-9.072l4.032-7.133l-9.305-16.36l4.342-2.559l9.46,16.516
		c0.543,0.465,0.93,1.163,0.93,1.938C44.739,108.553,44.507,109.095,44.196,109.561z M37.063,80.406H14.81
		c-4.265,0-7.754-10.39-7.754-14.5v-5.738H6.591c-1.706,0-3.024-1.241-3.024-2.791v-6.978c0-1.551,1.396-2.791,3.024-2.791h0.465
		v-9.305c0-4.187,3.489-7.521,7.754-7.521h22.253c4.265,0,7.754,3.412,7.754,7.521v34.504
		C44.894,76.995,41.405,80.406,37.063,80.406z M10.313,89.478l4.42,2.481l-9.847,16.36c-0.233,1.396-1.551,2.404-3.024,2.016
		c-0.775-0.155-1.396-0.775-1.628-1.473c-0.31-0.775-0.155-1.551,0.155-2.094L0,106.537L10.313,89.478z"/>
	<path fill="#C79979" d="M12.639,51.02h-0.775c-0.698,0-1.318,0.62-1.318,1.396v2.869c0,0.775,0.62,1.396,1.318,1.396h0.775v0.62
		c-0.155,0.078-0.233,0.078-0.388,0.078H7.754c-0.775,0-1.396-0.62-1.396-1.318v-4.342c0-0.775,0.62-1.318,1.396-1.318h4.497
		c0.155,0,0.31,0,0.388,0.078V51.02z M12.639,72.73c0,4.187,3.489,7.676,7.754,7.676h5.505v17.446h-6.281V80.406H14.81
		c-4.265,0-7.754-3.412-7.754-7.676V60.092h5.583V72.73z"/>
	<path fill="#262C34" d="M40.242,34.272H21.478c-1.163,0-2.869,0.155-2.869,1.551v4.885c0,1.086-4.962,1.551-4.962,5.428v1.473
		H6.978V28.689c0-3.489,3.799-6.823,7.676-6.823h0.853l0,0h23.649c1.551,0,2.791-1.241,2.791-2.714v-0.388
		c0-1.473-1.241-2.636-2.791-2.714h0.853c4.265,0,7.676,3.412,7.676,7.599v3.102C47.841,30.86,44.429,34.194,40.242,34.272z"/>
	<path fill="#131619" d="M40.242,34.272H21.478c-1.163,0-2.791,0.543-2.791,1.706v4.73c0,1.086-0.62,2.481-2.326,2.481
		c-1.551,0-2.714,1.473-2.714,2.946v1.473H6.978V33.496c0-1.473,1.783-3.179,3.799-3.179c0.388,0,0.775,0,1.551,0h31.558
		c1.628,0,3.024-0.93,3.722-2.326C47.065,31.48,44.041,34.194,40.242,34.272z"/>
	<path fill="#B87B6D" d="M40.242,67.07L40.242,67.07c-1.706,1.163-4.109,1.861-6.823,1.861c-2.559,0-4.807-0.62-6.513-1.706
		c-0.31-0.078-0.543-0.388-0.543-0.775c0-0.465,0.388-0.853,0.853-0.853c0.233,0,0.465,0.078,0.62,0.31l0,0
		c1.473,0.853,3.412,1.396,5.66,1.396c2.171,0,4.187-0.543,5.583-1.318c0.155-0.155,0.388-0.31,0.62-0.31
		c0.465,0,0.853,0.388,0.853,0.853C40.552,66.682,40.397,66.915,40.242,67.07z"/>
	<path fill="#DD9760" d="M38.304,58.929h-1.086V57.3h0.31c0.31,0,0.543-0.233,0.543-0.465v-0.698c0-0.233-0.233-0.465-0.543-0.465
		h-0.31l0,0h-1.086c-0.775,0-1.396-0.62-1.396-1.396v-2.714h1.628v1.938c0,0.31,0.233,0.465,0.465,0.465h0.388l0,0h1.086
		c0.775,0,1.396,0.62,1.396,1.396v2.094C39.699,58.308,39.079,58.929,38.304,58.929z"/>
	<path fill="#272C34" d="M27.991,44.817h0.078c0.853,0,1.628,0.775,1.628,1.706v2.404c0,0.93-0.698,1.706-1.628,1.706h-0.078
		c-0.853,0-1.628-0.775-1.628-1.706v-2.404C26.363,45.592,27.138,44.817,27.991,44.817z"/>
	<path fill="#272C34" d="M40.475,44.817h0.078c0.853,0,1.628,0.775,1.628,1.706v2.404c0,0.93-0.698,1.706-1.628,1.706h-0.078
		c-0.853,0-1.628-0.775-1.628-1.706v-2.404C38.924,45.592,39.622,44.817,40.475,44.817z"/>
	<path fill="#FFFFFF" d="M117.159,62.03H69.629c-4.187,0-7.676-3.412-7.676-7.521V41.017l-10.08-10.002l10.08-10.002V7.521
		C61.953,3.334,65.364,0,69.629,0h47.531c4.187,0,7.676,3.412,7.676,7.521v46.91C124.758,58.618,121.346,62.03,117.159,62.03z"/>
	<path fill="#141619" d="M79.398,6.978h26.285c0.93,0,1.706,0.775,1.706,1.706v42.491c0,0.93-0.775,1.706-1.706,1.706H79.398
		c-0.93,0-1.706-0.775-1.706-1.706V8.762C77.77,7.754,78.468,6.978,79.398,6.978z"/>
	<path fill="#706771" d="M92.968,45.825c1.396,0,2.481,1.086,2.481,2.481c0,1.396-1.086,2.481-2.481,2.481
		c-1.396,0-2.481-1.086-2.481-2.481C90.486,46.988,91.572,45.825,92.968,45.825z"/>
	<path fill="#006666" d="M81.027,10.468h23.106v34.039H81.027V10.468z"/>
	<path fill="#009999" d="M81.027,10.468h23.106L81.027,44.507V10.468z"/>
	<path fill="#00243A" d="M8.762,125.533c0-0.233-0.078-0.543-0.078-0.775V92.812c0-3.102,2.559-5.66,5.66-5.66h5.195l3.334,8.297
		l3.334-8.297h4.342c2.016,0,3.722,1.008,4.73,2.559l0,0l7.521,13.104l-6.436,3.644l-0.31-0.078v18.376
		c0,0.233-0.078,0.388-0.078,0.62c-4.497,1.086-9.227,1.706-14.112,1.706C17.446,127.084,13.026,126.541,8.762,125.533z"/>
	<path fill="#02121F" d="M16.205,126.774c-2.559-0.233-4.962-0.698-7.444-1.241c0-0.233-0.078-0.543-0.078-0.775v-15.12v-3.411
		v0.078l-6.436-3.877l7.366-12.561c1.008-1.551,2.714-2.559,4.73-2.559h1.008l0,0h4.187l3.334,8.297l-6.668,7.444v3.979v2.612
		L16.205,126.774L16.205,126.774z"/>
	<path fill="#CC6633" d="M11.724,107.832l4.481-4.862v6.668H8.684v-3.334L11.724,107.832z"/>
	<path fill="#FF6633" d="M16.205,102.97H36.21v6.668H16.205V102.97z"/>
	<path fill="#FCDBB0" d="M7.676,82.578L5.35,86.92c-0.078,0.155-0.233,0.233-0.31,0.388V107.7H2.249l-2.094,0.698V89.711v-1.783l0,0
		v-1.706v-2.326l0,0v-1.938c0-0.465,0.388-0.853,0.853-0.853s0.853,0.388,0.853,0.853v1.241l0,0v-1.938
		c0-0.465,0.388-0.853,0.853-0.853s0.853,0.388,0.853,0.853V77.77c0-0.465,0.31-0.853,0.698-0.853c0.388,0,0.698,0.388,0.698,0.853
		v5.815l1.086-1.938c0.233-0.465,0.853-0.62,1.241-0.388C7.754,81.492,7.909,82.112,7.676,82.578z"/>
</g>
</svg>
