<?xml version="1.0" encoding="utf-8"?>
<!-- Generator: Adobe Illustrator 17.0.0, SVG Export Plug-In . SVG Version: 6.00 Build 0)  -->
<!DOCTYPE svg PUBLIC "-//W3C//DTD SVG 1.1//EN" "http://www.w3.org/Graphics/SVG/1.1/DTD/svg11.dtd">
<svg version="1.1" id="Слой_1" xmlns="http://www.w3.org/2000/svg" xmlns:xlink="http://www.w3.org/1999/xlink" x="0px" y="0px"
	 width="113.67px" height="127.937px" viewBox="0 0 113.67 127.937" enable-background="new 0 0 113.67 127.937"
	 xml:space="preserve">
<g id="Men2">
	<path fill="#141619" d="M24.967,127.859L24.967,127.859c-0.93,0-1.628-0.775-1.628-1.628c0-0.93,0.775-1.628,1.628-1.628l0,0
		h35.822v3.334H24.967V127.859z"/>
	<path fill="#FFFFFF" d="M105.916,61.953H92.27l0.233,0.233l-9.925,10.002l-9.925-10.002l0.233-0.233H59.239
		c-4.187,0-7.676-3.412-7.676-7.521V7.521C51.563,3.334,54.974,0,59.239,0h46.755c4.187,0,7.676,3.412,7.676,7.521v46.91
		C113.593,58.618,110.181,61.953,105.916,61.953z"/>
	<path fill="#FCDBB0" d="M33.496,81.259H11.243c-4.265,0-7.754-10.39-7.754-14.5v-5.738H3.024C1.318,61.022,0,59.781,0,58.231
		v-6.978c0-1.551,1.396-2.791,3.024-2.791h0.465v-9.305c0-4.187,3.489-7.521,7.754-7.521h22.253c4.265,0,7.754,3.412,7.754,7.521
		v34.504C41.25,77.848,37.761,81.259,33.496,81.259z"/>
	<path fill="#C79979" d="M9.072,51.873H8.297c-0.698,0-1.318,0.62-1.318,1.396v2.869c0,0.775,0.62,1.396,1.318,1.396h0.775v0.62
		c-0.155,0.078-0.233,0.078-0.388,0.078H4.187c-0.775,0-1.396-0.62-1.396-1.318V52.57c0-0.775,0.62-1.318,1.396-1.318h4.497
		c0.155,0,0.31,0,0.388,0.078V51.873z M9.072,73.583c0,4.187,3.489,7.676,7.754,7.676h5.505v17.446H16.05V81.259h-4.807
		c-4.265,0-7.754-3.412-7.754-7.676V60.945h5.583V73.583z"/>
	<path fill="#262C34" d="M36.675,35.125H17.911c-1.163,0-2.869,0.155-2.869,1.551v4.885c0,1.086-4.962,1.551-4.962,5.428v1.473
		H3.412V29.542c0-3.489,3.799-6.823,7.676-6.823h0.853l0,0h23.571c1.551,0,2.791-1.241,2.791-2.714v-0.388
		c0-1.473-1.241-2.636-2.791-2.714h0.853c4.265,0,7.676,3.412,7.676,7.599v3.102C44.196,31.713,40.862,35.047,36.675,35.125z"/>
	<path fill="#131619" d="M36.675,35.125H17.911c-1.163,0-2.791,0.543-2.791,1.706v4.73c0,1.086-0.62,2.481-2.326,2.481
		c-1.551,0-2.714,1.473-2.714,2.946v1.473H3.412V34.349c0-1.473,1.783-3.179,3.799-3.179c0.388,0,0.775,0,1.551,0H40.32
		c1.628,0,3.024-0.93,3.722-2.326C43.499,32.333,40.397,35.047,36.675,35.125z"/>
	<path fill="#B87B6D" d="M36.675,67.923L36.675,67.923c-1.706,1.163-4.109,1.861-6.823,1.861c-2.559,0-4.807-0.62-6.513-1.706
		c-0.31-0.078-0.543-0.388-0.543-0.775c0-0.465,0.388-0.853,0.853-0.853c0.233,0,0.465,0.078,0.62,0.31l0,0
		c1.473,0.853,3.412,1.396,5.66,1.396c2.171,0,4.187-0.543,5.583-1.318c0.155-0.155,0.388-0.31,0.62-0.31
		c0.465,0,0.853,0.388,0.853,0.853C36.908,67.535,36.83,67.768,36.675,67.923z"/>
	<path fill="#DD9760" d="M34.659,59.781h-1.086v-1.628h0.31c0.31,0,0.543-0.233,0.543-0.465V56.99c0-0.233-0.233-0.465-0.543-0.465
		h-0.31l0,0h-1.086c-0.775,0-1.396-0.62-1.396-1.396v-2.714h1.628v1.938c0,0.31,0.233,0.465,0.465,0.465h0.388l0,0h1.086
		c0.775,0,1.396,0.62,1.396,1.396v2.094C36.055,59.161,35.435,59.781,34.659,59.781z"/>
	<path fill="#272C34" d="M24.424,45.67h0.078c0.853,0,1.628,0.775,1.628,1.706v2.404c0,0.93-0.698,1.706-1.628,1.706h-0.078
		c-0.853,0-1.628-0.775-1.628-1.706v-2.404C22.796,46.445,23.494,45.67,24.424,45.67z"/>
	<path fill="#272C34" d="M36.908,45.67h0.078c0.853,0,1.628,0.775,1.628,1.706v2.404c0,0.93-0.698,1.706-1.628,1.706h-0.078
		c-0.853,0-1.628-0.775-1.628-1.706v-2.404C35.28,46.445,35.977,45.67,36.908,45.67z"/>
	<path fill="#706771" d="M77.383,12.173h1.783V11.01h-5.04v1.163h1.783v5.35h1.396v-5.35H77.383z"/>
	<path fill="#706771" d="M84.283,17.523v-3.334c0-0.62-0.155-1.008-0.543-1.318c-0.388-0.31-0.853-0.465-1.551-0.465
		c-0.698,0-1.396,0.155-1.938,0.465l0.465,0.93c0.543-0.233,1.008-0.388,1.396-0.388c0.543,0,0.775,0.233,0.775,0.775v0.233h-0.853
		c-0.775,0-1.318,0.155-1.706,0.388c-0.388,0.233-0.543,0.62-0.543,1.163c0,0.543,0.155,0.93,0.388,1.163
		c0.31,0.31,0.698,0.388,1.163,0.388c0.388,0,0.698-0.078,0.93-0.155c0.233-0.078,0.465-0.31,0.698-0.62l0,0l0.233,0.698h1.086
		V17.523z M82.888,15.663c0,0.31-0.078,0.543-0.31,0.698c-0.155,0.155-0.465,0.31-0.775,0.31c-0.465,0-0.698-0.155-0.698-0.543
		c0-0.233,0.078-0.465,0.31-0.62c0.233-0.155,0.465-0.233,0.93-0.233h0.543V15.663z"/>
	<path fill="#706771" d="M87.075,13.181L87.075,13.181c0-0.465,0-0.775,0-1.008v-1.628h-1.396v6.978h1.086l0.233-0.543h0.078
		c0.31,0.388,0.775,0.62,1.396,0.62s1.086-0.233,1.396-0.698c0.31-0.465,0.543-1.086,0.543-1.938c0-0.775-0.155-1.396-0.543-1.861
		c-0.31-0.465-0.775-0.698-1.396-0.698C87.928,12.484,87.462,12.716,87.075,13.181L87.075,13.181z M88.781,13.879
		c0.155,0.233,0.233,0.62,0.233,1.086c0,0.465-0.078,0.853-0.233,1.086c-0.155,0.233-0.388,0.388-0.698,0.388
		c-0.388,0-0.62-0.078-0.775-0.31c-0.155-0.233-0.233-0.62-0.233-1.163V14.81c0-0.465,0.078-0.853,0.233-1.008
		c0.155-0.233,0.388-0.31,0.775-0.31C88.393,13.569,88.625,13.647,88.781,13.879z"/>
	<path fill="#009999" d="M66.45,26.983h0.853c0.465,0,0.853,0.078,1.086,0.31c0.233,0.233,0.31,0.543,0.31,0.93
		s-0.155,0.698-0.388,0.93c-0.31,0.233-0.698,0.31-1.241,0.31h-0.62V26.983z M69.706,26.13c-0.543-0.465-1.318-0.62-2.404-0.62
		h-2.714v8.374h1.783V30.86h0.775c1.086,0,1.861-0.233,2.481-0.698c0.543-0.465,0.853-1.163,0.853-2.094
		C70.482,27.216,70.249,26.595,69.706,26.13z"/>
	<path fill="#009999" d="M78.003,29.697c0-0.775-0.233-1.318-0.62-1.783c-0.388-0.388-1.008-0.62-1.783-0.62
		c-0.853,0-1.473,0.31-1.861,0.93h-0.078l0.078-0.543c0-0.543,0.078-0.853,0.078-1.008V24.89h-1.783v8.917h1.783v-3.024
		c0-0.775,0.078-1.318,0.31-1.628c0.233-0.31,0.62-0.465,1.086-0.465c0.698,0,1.086,0.465,1.086,1.396v3.722h1.783v-4.109H78.003z"
		/>
	<path fill="#009999" d="M81.647,29.232c0.233-0.31,0.543-0.465,1.008-0.465c0.465,0,0.853,0.155,1.008,0.465
		c0.233,0.31,0.31,0.775,0.31,1.396c0,0.62-0.078,1.086-0.31,1.473c-0.233,0.31-0.543,0.465-1.008,0.465
		c-0.465,0-0.853-0.155-1.008-0.465c-0.233-0.31-0.31-0.775-0.31-1.473C81.259,30.007,81.414,29.542,81.647,29.232z M85.446,28.922
		c-0.233-0.465-0.62-0.853-1.086-1.163c-0.465-0.233-1.008-0.388-1.628-0.388c-1.008,0-1.783,0.31-2.326,0.853
		c-0.543,0.62-0.853,1.396-0.853,2.481c0,0.698,0.155,1.241,0.388,1.783c0.233,0.543,0.62,0.93,1.086,1.163
		c0.465,0.233,1.008,0.388,1.628,0.388c1.008,0,1.783-0.31,2.326-0.853c0.543-0.62,0.853-1.396,0.853-2.481
		C85.834,30.007,85.679,29.387,85.446,28.922z"/>
	<path fill="#009999" d="M93.355,29.697c0-0.775-0.233-1.318-0.62-1.783c-0.388-0.388-1.008-0.62-1.706-0.62
		c-0.465,0-0.853,0.078-1.163,0.233c-0.388,0.155-0.62,0.388-0.853,0.698h-0.078l-0.233-0.853h-1.396v6.436h1.783v-3.024
		c0-0.775,0.078-1.318,0.31-1.628c0.233-0.31,0.62-0.465,1.086-0.465c0.388,0,0.62,0.078,0.775,0.31
		c0.155,0.233,0.233,0.543,0.233,1.008v3.722h1.783v-4.032H93.355z"/>
	<path fill="#009999" d="M98.783,28.922c0.233,0.233,0.31,0.543,0.31,1.008h-2.481c0-0.465,0.155-0.775,0.388-1.008
		s0.543-0.388,0.853-0.388C98.24,28.611,98.55,28.689,98.783,28.922z M99.403,33.884c0.388-0.078,0.698-0.155,1.008-0.31v-1.318
		c-0.388,0.155-0.775,0.31-1.086,0.388c-0.388,0.078-0.698,0.155-1.086,0.155c-0.543,0-0.93-0.155-1.163-0.388
		c-0.31-0.31-0.465-0.698-0.465-1.163h4.187v-0.853c0-0.93-0.233-1.628-0.775-2.171c-0.543-0.543-1.241-0.775-2.171-0.775
		s-1.706,0.31-2.249,0.853c-0.543,0.62-0.853,1.396-0.853,2.481c0,1.008,0.31,1.861,0.853,2.404c0.62,0.543,1.396,0.853,2.481,0.853
		C98.628,34.039,99.093,33.961,99.403,33.884z"/>
	<path fill="#706771" d="M66.14,43.731h-1.241v3.102c0,0.388,0,0.93,0.078,1.783l0,0l-2.869-4.885h-1.783v6.513h1.241v-3.102
		c0-0.388,0-1.008-0.078-1.861h0.078l2.869,4.962h1.783v-6.513H66.14z"/>
	<path fill="#706771" d="M69.008,46.678c0.155-0.233,0.465-0.388,0.775-0.388c0.388,0,0.62,0.155,0.775,0.388
		c0.155,0.233,0.233,0.62,0.233,1.086c0,0.465-0.078,0.853-0.233,1.086c-0.155,0.233-0.465,0.388-0.775,0.388
		c-0.388,0-0.62-0.155-0.775-0.388c-0.155-0.233-0.233-0.62-0.233-1.086C68.776,47.298,68.853,46.91,69.008,46.678z M71.955,46.367
		c-0.233-0.388-0.465-0.698-0.853-0.93c-0.388-0.233-0.775-0.31-1.318-0.31c-0.775,0-1.396,0.233-1.861,0.698
		c-0.465,0.465-0.62,1.086-0.62,1.938c0,0.543,0.078,1.008,0.31,1.396c0.233,0.388,0.465,0.698,0.853,0.93
		c0.388,0.233,0.775,0.31,1.318,0.31c0.775,0,1.396-0.233,1.861-0.698c0.465-0.465,0.62-1.086,0.62-1.938
		C72.265,47.22,72.187,46.755,71.955,46.367z"/>
	<path fill="#706771" d="M75.134,49.159c-0.078-0.078-0.155-0.233-0.155-0.465V46.29h1.396v-1.008h-1.396v-1.086h-0.853
		l-0.388,1.086l-0.775,0.465v0.543h0.698v2.404c0,0.543,0.155,0.93,0.388,1.241c0.233,0.31,0.62,0.388,1.241,0.388
		c0.465,0,0.93-0.078,1.241-0.233v-1.008c-0.31,0.078-0.62,0.155-0.853,0.155C75.367,49.236,75.289,49.236,75.134,49.159z"/>
	<path fill="#706771" d="M80.329,46.445c0.155,0.155,0.233,0.465,0.233,0.775h-1.938c0-0.31,0.155-0.62,0.31-0.775
		c0.155-0.155,0.388-0.31,0.698-0.31C79.864,46.135,80.096,46.212,80.329,46.445z M80.794,50.244
		c0.31-0.078,0.543-0.155,0.775-0.233v-1.086c-0.31,0.155-0.62,0.233-0.853,0.31c-0.31,0.078-0.543,0.078-0.853,0.078
		c-0.388,0-0.698-0.078-0.93-0.31c-0.233-0.233-0.31-0.543-0.388-0.93h3.257v-0.698c0-0.698-0.233-1.241-0.62-1.628
		s-0.93-0.62-1.706-0.62s-1.318,0.233-1.783,0.698c-0.388,0.465-0.62,1.086-0.62,1.938c0,0.775,0.233,1.473,0.698,1.861
		c0.465,0.465,1.086,0.698,1.938,0.698C80.174,50.322,80.484,50.322,80.794,50.244z"/>
	<path fill="#706771" d="M84.361,45.902L84.361,45.902c0-0.465,0-0.775,0-1.008v-1.628h-1.396v6.978h1.086l0.233-0.543h0.078
		c0.31,0.388,0.775,0.62,1.396,0.62c0.62,0,1.086-0.233,1.396-0.698c0.388-0.465,0.543-1.086,0.543-1.938
		c0-0.775-0.155-1.396-0.543-1.861c-0.31-0.465-0.775-0.698-1.396-0.698C85.214,45.204,84.671,45.437,84.361,45.902L84.361,45.902z
		 M86.067,46.6c0.155,0.233,0.233,0.62,0.233,1.086c0,0.465-0.078,0.853-0.233,1.086c-0.155,0.233-0.388,0.388-0.698,0.388
		c-0.388,0-0.62-0.078-0.775-0.31c-0.155-0.233-0.233-0.62-0.233-1.163v-0.155c0-0.465,0.078-0.853,0.233-1.008
		c0.155-0.233,0.388-0.31,0.775-0.31C85.679,46.29,85.912,46.367,86.067,46.6z"/>
	<path fill="#706771" d="M90.254,46.678c0.155-0.233,0.465-0.388,0.775-0.388c0.388,0,0.62,0.155,0.775,0.388
		s0.233,0.62,0.233,1.086c0,0.465-0.078,0.853-0.233,1.086s-0.465,0.388-0.775,0.388c-0.388,0-0.62-0.155-0.775-0.388
		s-0.233-0.62-0.233-1.086C90.021,47.298,90.099,46.91,90.254,46.678z M93.2,46.367c-0.233-0.388-0.465-0.698-0.853-0.93
		c-0.388-0.233-0.775-0.31-1.318-0.31c-0.775,0-1.396,0.233-1.861,0.698c-0.465,0.465-0.62,1.086-0.62,1.938
		c0,0.543,0.078,1.008,0.31,1.396c0.233,0.388,0.465,0.698,0.853,0.93c0.388,0.233,0.775,0.31,1.318,0.31
		c0.775,0,1.396-0.233,1.861-0.698c0.465-0.465,0.62-1.086,0.62-1.938C93.51,47.22,93.433,46.755,93.2,46.367z"/>
	<path fill="#706771" d="M95.992,46.678c0.155-0.233,0.465-0.388,0.775-0.388c0.388,0,0.62,0.155,0.775,0.388
		c0.155,0.233,0.233,0.62,0.233,1.086c0,0.465-0.078,0.853-0.233,1.086c-0.155,0.233-0.465,0.388-0.775,0.388
		c-0.388,0-0.62-0.155-0.775-0.388c-0.155-0.233-0.233-0.62-0.233-1.086C95.759,47.298,95.836,46.91,95.992,46.678z M99.016,46.367
		c-0.233-0.388-0.465-0.698-0.853-0.93c-0.388-0.233-0.775-0.31-1.318-0.31c-0.775,0-1.396,0.233-1.861,0.698
		c-0.465,0.465-0.62,1.086-0.62,1.938c0,0.543,0.078,1.008,0.31,1.396c0.233,0.388,0.465,0.698,0.853,0.93
		c0.388,0.233,0.775,0.31,1.318,0.31c0.775,0,1.396-0.233,1.861-0.698c0.465-0.465,0.62-1.086,0.62-1.938
		C99.248,47.22,99.171,46.755,99.016,46.367z"/>
	<path fill="#706771" d="M101.729,47.531l0.078-1.163v-3.102h-1.396v6.978h1.396v-1.551l0.62-0.465l1.473,2.016h1.628l-2.171-2.791
		l2.016-2.171h-1.551l-1.396,1.551L101.729,47.531L101.729,47.531z"/>
	<path fill="#FF6633" d="M89.013,40.32l3.412,5.97l-2.171,1.241l-3.489-5.97l-3.024,3.024l-1.086-12.716L93.2,39.234L89.013,40.32z"
		/>
	<path fill="#FCDBB0" d="M40.009,108.708c0,1.396-1.086,2.481-2.481,2.481c-0.853,0-1.551-0.388-2.016-1.008L25.355,93.045
		l4.342-2.481l9.382,16.283C39.622,107.312,40.009,107.932,40.009,108.708z"/>
	<path fill="#CC6633" d="M91.339,46.988l-1.008,0.62l-3.489-5.97l-3.024,3.024l-1.163-12.639L91.339,46.988z"/>
	<path fill="#00243A" d="M3.489,126.309c0-0.233-0.078-0.543-0.078-0.775V93.588c0-3.102,2.559-5.66,5.66-5.66h6.823l3.334,8.297
		l3.334-8.297h2.714c2.016,0,3.722,1.008,4.73,2.559l0,0l7.521,13.104l-6.436,3.644l-0.31-0.465v18.764
		c0,0.233-0.078,0.388-0.078,0.62c-4.497,1.086-9.227,1.706-14.112,1.706C12.096,127.859,7.676,127.317,3.489,126.309z"/>
	<path fill="#FF6633" d="M10.855,103.745H30.86v6.668H10.855V103.745z"/>
	<path fill="#02121F" d="M13.336,99.636l0.853,7.444l-3.334,1.318v19.152c-2.559-0.233-4.962-0.698-7.444-1.241
		c0-0.233-0.078-0.543-0.078-0.775V93.588c0-3.102,2.559-5.66,5.66-5.66h1.008l0,0h5.815l3.334,8.297L13.336,99.636z"/>
	<path fill="#FCDBB0" d="M61.953,124.836c-0.388,0.233-0.93,0.078-1.163-0.31l-1.628-2.869c0.233,0.388,0.078,0.93-0.31,1.163
		c-0.388,0.233-0.93,0.078-1.163-0.31l-0.62-1.086l0,0l0.155,0.31c0.233,0.388,0.078,0.93-0.31,1.086
		c-0.388,0.233-0.853,0.078-1.086-0.31l-0.31-0.543L36.21,110.801l2.481-4.265l20.237,11.631l0,0
		c0.155,0.078,0.31,0.155,0.465,0.388l2.946,5.04C62.495,124.138,62.34,124.603,61.953,124.836z M36.055,119.098
		c0.155,0,0.388,0.078,0.543,0.233l4.109,4.109c0.31,0.31,0.31,0.853,0,1.163c-0.31,0.31-0.853,0.31-1.163,0l-2.326-2.326
		c0.31,0.31,0.31,0.853,0,1.163c-0.31,0.31-0.853,0.31-1.163,0l-0.853-0.853l0,0l0.233,0.233c0.31,0.31,0.31,0.853,0,1.163
		c-0.31,0.31-0.853,0.31-1.163,0l-0.388-0.388l-22.021-5.893c-0.698-0.233-1.086-0.388-1.628-0.93
		c-0.543-0.543-0.698-0.93-0.93-1.783l-1.938-7.599l4.885-1.396l1.861,7.133L36.055,119.098L36.055,119.098z"/>
	<path fill="#141619" d="M59.161,90.486h43.188c0.93,0,1.706,0.775,1.706,1.706l-8.297,33.961c0,0.93-0.775,1.706-1.706,1.706
		H50.865c-0.93,0-1.706-0.775-1.706-1.706l8.297-33.961C57.455,91.262,58.231,90.486,59.161,90.486z"/>
	<path fill="#453E46" d="M61.642,90.486h43.188c0.93,0,1.706,0.775,1.706,1.706l-8.297,33.961c0,0.93-0.775,1.706-1.706,1.706
		H53.346c-0.93,0-1.706-0.775-1.706-1.706l8.297-33.961C59.937,91.262,60.712,90.486,61.642,90.486z"/>
	<path fill="#706771" d="M78.468,107.932h4.575c0.078,0,0.155,0.078,0.155,0.155l-0.853,3.799c0,0.078-0.078,0.155-0.155,0.155
		h-4.575c-0.078,0-0.155-0.078-0.155-0.155l0.853-3.799C78.313,108.01,78.39,107.932,78.468,107.932z"/>
</g>
</svg>
