<?xml version="1.0" encoding="utf-8"?>
<!-- Generator: Adobe Illustrator 17.0.0, SVG Export Plug-In . SVG Version: 6.00 Build 0)  -->
<!DOCTYPE svg PUBLIC "-//W3C//DTD SVG 1.1//EN" "http://www.w3.org/Graphics/SVG/1.1/DTD/svg11.dtd">
<svg version="1.1" id="Слой_1" xmlns="http://www.w3.org/2000/svg" xmlns:xlink="http://www.w3.org/1999/xlink" x="0px" y="0px"
	 width="204.489px" height="128.015px" viewBox="0 0 204.489 128.015" enable-background="new 0 0 204.489 128.015"
	 xml:space="preserve">
<g id="Men3">
	<path fill="#FCDBB0" d="M39.766,81.53H17.513c-4.265,0-7.754-10.39-7.754-14.5v-5.738H9.294c-1.706,0-3.024-1.241-3.024-2.791
		v-6.978c0-1.551,1.396-2.791,3.024-2.791h0.465v-9.305c0-4.187,3.489-7.521,7.754-7.521h22.253c4.265,0,7.754,3.412,7.754,7.521
		v34.504C47.598,78.118,44.108,81.53,39.766,81.53z"/>
	<path fill="#C79979" d="M15.342,52.143h-0.775c-0.698,0-1.318,0.62-1.318,1.396v2.869c0,0.775,0.62,1.396,1.318,1.396h0.775v0.62
		c-0.155,0.078-0.233,0.078-0.388,0.078h-4.497c-0.775,0-1.396-0.62-1.396-1.318v-4.342c0-0.775,0.62-1.318,1.396-1.318h4.497
		c0.155,0,0.31,0,0.388,0.078V52.143z M15.342,73.853c0,4.187,3.489,7.676,7.754,7.676h5.505v17.446H22.32V81.53h-4.807
		c-4.265,0-7.754-3.412-7.754-7.676V61.215h5.583V73.853z"/>
	<path fill="#262C34" d="M42.945,35.395H24.181c-1.163,0-2.869,0.155-2.869,1.551v4.885c0,1.086-4.962,1.551-4.962,5.428v1.473
		H9.759V29.812c0-3.489,3.799-6.823,7.676-6.823h0.853l0,0H41.86c1.551,0,2.791-1.241,2.791-2.714v-0.388
		c0-1.473-1.241-2.636-2.791-2.714h0.853c4.265,0,7.676,3.412,7.676,7.599v3.102C50.466,31.983,47.132,35.317,42.945,35.395z"/>
	<path fill="#131619" d="M42.945,35.395H24.181c-1.163,0-2.791,0.543-2.791,1.706v4.73c0,1.086-0.62,2.481-2.326,2.481
		c-1.551,0-2.714,1.473-2.714,2.946v1.473H9.759V34.619c0-1.473,1.783-3.179,3.799-3.179c0.388,0,0.775,0,1.551,0h31.558
		c1.628,0,3.024-0.93,3.722-2.326C49.769,32.603,46.745,35.317,42.945,35.395z"/>
	<path fill="#B87B6D" d="M42.945,68.193L42.945,68.193c-1.706,1.163-4.109,1.861-6.823,1.861c-2.559,0-4.807-0.62-6.513-1.706
		c-0.31-0.078-0.543-0.388-0.543-0.775c0-0.465,0.388-0.853,0.853-0.853c0.233,0,0.465,0.078,0.62,0.31l0,0
		c1.473,0.853,3.412,1.396,5.66,1.396c2.171,0,4.187-0.543,5.583-1.318c0.155-0.155,0.388-0.31,0.62-0.31
		c0.465,0,0.853,0.388,0.853,0.853C43.255,67.805,43.1,68.038,42.945,68.193z"/>
	<path fill="#DD9760" d="M41.007,60.052h-1.086v-1.628h0.31c0.31,0,0.543-0.233,0.543-0.465V57.26c0-0.233-0.233-0.465-0.543-0.465
		h-0.31l0,0h-1.086c-0.775,0-1.396-0.62-1.396-1.396v-2.714h1.628v1.938c0,0.31,0.233,0.465,0.465,0.465h0.388l0,0h1.086
		c0.775,0,1.396,0.62,1.396,1.396v2.094C42.402,59.431,41.782,60.052,41.007,60.052z"/>
	<path fill="#272C34" d="M30.694,45.94h0.078c0.853,0,1.628,0.775,1.628,1.706v2.404c0,0.93-0.698,1.706-1.628,1.706h-0.078
		c-0.853,0-1.628-0.775-1.628-1.706v-2.404C29.066,46.715,29.841,45.94,30.694,45.94z"/>
	<path fill="#272C34" d="M43.178,45.94h0.078c0.853,0,1.628,0.775,1.628,1.706v2.404c0,0.93-0.698,1.706-1.628,1.706h-0.078
		c-0.853,0-1.628-0.775-1.628-1.706v-2.404C41.55,46.715,42.325,45.94,43.178,45.94z"/>
	<path fill="#FCDBB0" d="M45.349,110.606l0.233,0.155l-8.839,15.275v-9.537H36.51l4.109-7.056l-9.305-16.128l4.342-2.481
		l9.382,16.283c0.543,0.465,0.93,1.163,0.93,1.938C45.892,109.598,45.659,110.141,45.349,110.606z"/>
	<path fill="#00243A" d="M37.75,107.505l-0.31-0.078v18.376c0,0.233-0.078,0.388-0.078,0.62c-4.497,1.086-9.227,1.706-14.112,1.706
		c-4.575,0-8.994-0.543-13.259-1.473c0-0.233-0.078-0.543-0.078-0.775V93.936c0-3.102,2.559-5.66,5.66-5.66h6.823l3.334,8.297
		l3.334-8.297h2.714c2.016,0,3.722,1.008,4.73,2.559l0,0l7.521,13.104L37.75,107.505z"/>
	<path fill="#FF6633" d="M17.513,104.016h20.005v6.668H17.513V104.016z"/>
	<path fill="#02121F" d="M17.513,104.016v23.804c-2.559-0.233-4.962-0.698-7.444-1.241c0-0.233-0.078-0.543-0.078-0.775V93.858
		c0-3.102,2.559-5.66,5.66-5.66h1.008l0,0h5.815l3.334,8.297L17.513,104.016z"/>
	<path fill="#FCDBB0" d="M38.448,123.943c0,0.465-0.388,0.853-0.853,0.853h-0.853c-0.465,0-0.853-0.388-0.853-0.853
		c0-0.465,0.388-0.853,0.853-0.853h-0.853c-0.465,0-0.853-0.388-0.853-0.853s0.388-0.853,0.853-0.853h-0.853
		c-0.465,0-0.853-0.388-0.853-0.853c0-0.465,0.388-0.853,0.853-0.853h2.481c0.465,0,0.853,0.388,0.853,0.853
		c0,0.465-0.388,0.853-0.853,0.853c0.465,0,0.853,0.388,0.853,0.853s-0.388,0.853-0.853,0.853
		C38.06,123.09,38.448,123.477,38.448,123.943z M38.448,125.648c0,0.465-0.388,0.853-0.853,0.853c-0.465,0-0.853-0.388-0.853-0.853
		s0.388-0.853,0.853-0.853C38.06,124.796,38.448,125.183,38.448,125.648z M19.296,124.796h-0.853c0.465,0,0.853,0.388,0.853,0.853
		s-0.388,0.853-0.853,0.853h-1.628c0.465,0,0.853,0.388,0.853,0.853c0,0.465-0.388,0.853-0.853,0.853h-4.187h-0.078
		c-0.775,0-1.551-0.31-2.171-0.93L0.997,112.39c0,0-0.078,0-0.078-0.078c-0.93-0.93-1.008-2.326-0.31-3.257l-0.078-0.078
		l9.305-15.663l4.42,2.481l-8.607,14.5l5.815,10.002l1.783-1.783c0.388-0.388,1.086-0.388,1.473,0c0.388,0.388,0.388,1.086,0,1.473
		l-1.551,1.551h5.195c0.465,0,0.853,0.388,0.853,0.853s-0.388,0.853-0.853,0.853h0.853c0.465,0,0.853,0.388,0.853,0.853
		C20.149,124.408,19.762,124.796,19.296,124.796z"/>
	<g>
		<g>
			<path fill="#453E46" d="M171.469,126.861c0-3.876,0-12.191,0-12.191c0-2.249,1.861-4.032,4.109-4.032h11.708
				c2.249,0,4.109,1.783,4.109,4.032V128C191.396,128,173.656,128.496,171.469,126.861z"/>
			<path fill="#453E46" d="M197.035,101.829h-8.994l-6.668,6.591l-6.668-6.591h-9.77c-4.265,0-7.676-3.412-7.676-7.599V71.977
				c0-4.187,3.412-7.599,7.676-7.599h32.023c4.265,0,7.676,3.412,7.676,7.599v22.253
				C204.711,98.418,201.222,101.829,197.035,101.829z"/>
			<path fill="#453E46" d="M137.994,127.223c0.767-1.285,1.344-2.251,1.344-2.251c0.388-1.163,1.473-1.938,2.791-1.938h2.714v-3.954
				h-4.265c-2.249,0-4.109-1.783-4.109-4.032V96.67c0-2.249,1.861-4.032,4.109-4.032h11.708c2.249,0,4.109,1.783,4.109,4.032v18.376
				c0,2.249-1.861,4.032-4.109,4.032h-4.265v3.954h2.326v0c1.628,0,3.024,1.318,3.024,2.946V128
				C153.372,128,137.228,128.507,137.994,127.223z M133.678,126.886c0-1.339,0-3.466,0-3.466v-2.171v-0.853
				c0-0.233,0.155-0.465,0.465-0.465c0.233,0,0.465,0.233,0.465,0.465v0.853l0,0v-1.318c0-0.233,0.233-0.465,0.465-0.465
				s0.465,0.233,0.465,0.465v-1.783c0-0.233,0.233-0.465,0.465-0.465c0.233,0,0.465,0.233,0.465,0.465v3.102v0.698l0.853-1.396
				c0.155-0.233,0.465-0.31,0.698-0.155c0.233,0.155,0.31,0.465,0.155,0.698l-1.318,2.249c-0.078,0.155-0.233,0.233-0.388,0.233V128
				C136.469,128,133.678,128.225,133.678,126.886z"/>
			<path fill="#453E46" d="M166.559,83.308h-13.957l-6.668,6.591l-6.668-6.591h-13.104c-4.265,0-7.676-3.412-7.676-7.599V53.534
				c0-4.187,3.412-7.599,7.676-7.599h40.32c4.265,0,7.676,3.412,7.676,7.599v22.253C174.313,79.974,170.824,83.308,166.559,83.308z"
				/>
		</g>
		<g>
			<path fill="#009999" d="M172.3,86.71v-2.636h-5.738v2.636H172.3z"/>
			<path fill="#009999" d="M177.96,81.437l-0.388,0.078l0.31-3.024h5.583v-2.791h-8.529l-0.62,7.831l1.318,0.698
				c0.31-0.078,0.62-0.155,1.086-0.233c0.465-0.078,0.853-0.078,1.241-0.078c2.094,0,3.179,0.775,3.179,2.326
				c0,1.628-1.008,2.481-3.024,2.481c-0.698,0-1.396-0.078-2.171-0.31c-0.775-0.155-1.396-0.465-1.938-0.698v2.791
				c1.086,0.543,2.481,0.853,4.265,0.853c2.016,0,3.567-0.465,4.652-1.396c1.086-0.93,1.628-2.249,1.628-3.954
				c0-1.473-0.465-2.636-1.318-3.412c-0.93-0.853-2.094-1.241-3.644-1.241C178.891,81.359,178.348,81.359,177.96,81.437
				L177.96,81.437z"/>
			<path fill="#009999" d="M187.885,82.755c0.078-0.31,0.31-0.465,0.543-0.465c0.465,0,0.698,0.543,0.698,1.706
				s-0.233,1.783-0.698,1.783c-0.233,0-0.388-0.155-0.543-0.465c-0.078-0.31-0.155-0.698-0.155-1.318
				C187.73,83.453,187.808,82.988,187.885,82.755z M190.211,81.67c-0.465-0.543-1.008-0.853-1.861-0.853
				c-1.628,0-2.481,1.086-2.481,3.179c0,1.008,0.233,1.861,0.62,2.404c0.388,0.543,1.008,0.853,1.783,0.853s1.396-0.233,1.861-0.775
				c0.388-0.543,0.62-1.318,0.62-2.404C190.909,82.988,190.676,82.212,190.211,81.67z M194.088,80.972l-5.738,10.157h1.706
				l5.738-10.157H194.088z M195.174,86.787c0.078-0.31,0.31-0.465,0.543-0.465c0.465,0,0.698,0.543,0.698,1.706
				s-0.233,1.783-0.698,1.783c-0.233,0-0.388-0.155-0.543-0.465c-0.078-0.31-0.155-0.698-0.155-1.318
				C195.019,87.485,195.019,87.097,195.174,86.787z M197.5,85.702c-0.465-0.543-1.008-0.853-1.861-0.853
				c-1.628,0-2.481,1.086-2.481,3.179c0,1.008,0.233,1.861,0.62,2.404c0.388,0.543,1.008,0.853,1.783,0.853s1.396-0.233,1.861-0.775
				c0.388-0.543,0.62-1.318,0.62-2.404C198.12,87.097,197.965,86.322,197.5,85.702z"/>
			<path fill="#009999" d="M130.66,68.188v-2.636h-5.738v2.636H130.66z"/>
			<path fill="#009999" d="M140.352,57.256h-2.714l-5.04,3.954l1.628,1.938l1.783-1.396c0.233-0.155,0.62-0.543,1.163-1.086
				l-0.078,1.628v1.473v8.917h3.334v-15.43H140.352z"/>
			<path fill="#009999" d="M154.231,59.039c-0.93-1.318-2.326-2.016-4.109-2.016c-1.861,0-3.257,0.62-4.109,1.938
				c-0.93,1.318-1.318,3.257-1.318,6.048c0,2.636,0.465,4.575,1.396,5.893c0.93,1.318,2.249,2.016,4.109,2.016
				s3.257-0.62,4.109-1.938c0.93-1.318,1.318-3.257,1.318-5.97C155.627,62.373,155.161,60.435,154.231,59.039z M148.416,60.9
				c0.31-0.853,0.93-1.241,1.706-1.241s1.318,0.388,1.706,1.241c0.31,0.853,0.543,2.171,0.543,4.109
				c0,1.861-0.155,3.179-0.543,4.032c-0.31,0.853-0.93,1.241-1.706,1.241s-1.318-0.388-1.706-1.241
				c-0.31-0.853-0.465-2.171-0.465-4.032C147.95,63.071,148.105,61.753,148.416,60.9z"/>
			<path fill="#009999" d="M158.806,64.234c0.078-0.31,0.31-0.465,0.543-0.465c0.465,0,0.698,0.543,0.698,1.706
				c0,1.163-0.233,1.783-0.698,1.783c-0.233,0-0.388-0.155-0.543-0.465c-0.078-0.31-0.155-0.698-0.155-1.318
				C158.573,65.009,158.651,64.544,158.806,64.234z M161.132,63.226c-0.465-0.543-1.008-0.853-1.861-0.853
				c-1.628,0-2.481,1.086-2.481,3.179c0,1.008,0.233,1.861,0.62,2.404c0.388,0.543,1.008,0.853,1.783,0.853s1.396-0.233,1.861-0.775
				c0.388-0.543,0.62-1.318,0.62-2.404C161.752,64.544,161.52,63.769,161.132,63.226z M164.931,62.528l-5.738,10.157h1.706
				l5.738-10.157H164.931z M166.017,68.344c0.078-0.31,0.31-0.465,0.543-0.465c0.465,0,0.698,0.543,0.698,1.706
				s-0.233,1.783-0.698,1.783c-0.233,0-0.388-0.155-0.543-0.465c-0.078-0.31-0.155-0.698-0.155-1.318
				C165.862,69.041,165.939,68.576,166.017,68.344z M168.343,67.258c-0.465-0.543-1.008-0.853-1.861-0.853
				c-1.628,0-2.481,1.086-2.481,3.179c0,1.008,0.233,1.861,0.62,2.404c0.388,0.543,1.008,0.853,1.783,0.853s1.396-0.233,1.861-0.775
				c0.388-0.543,0.62-1.318,0.62-2.404C169.041,68.576,168.808,67.801,168.343,67.258z"/>
		</g>
		<path fill="#333333" d="M106.348,110.033c1.628,0,3.024,1.318,3.024,2.946V128c0,0-14.5,0.579-14.5-0.741s0-5.596,0-5.596
			l-1.783-1.008l-0.93,1.628l-0.078-0.078c-0.233,0.31-0.62,0.543-1.086,0.543c-0.775,0-1.318-0.62-1.318-1.318
			c0-0.155,0.078-0.31,0.078-0.465h-0.078V110.42v-2.171v-0.853c0-0.233,0.155-0.465,0.465-0.465c0.233,0,0.465,0.233,0.465,0.465
			v0.853l0,0v-1.318c0-0.233,0.233-0.465,0.465-0.465c0.233,0,0.465,0.233,0.465,0.465v-1.783c0-0.233,0.233-0.465,0.465-0.465
			s0.465,0.233,0.465,0.465v3.102v0.698l0.853-1.396c0.155-0.233,0.465-0.31,0.698-0.155c0.233,0.155,0.31,0.465,0.155,0.698
			l-1.318,2.249c-0.078,0.155-0.233,0.233-0.388,0.233v6.203l2.869-4.807c0.388-1.163,1.473-1.938,2.791-1.938h2.714v-3.954h-4.265
			c-2.249,0-4.109-1.783-4.109-4.032V83.67c0-2.249,1.861-4.032,4.109-4.032h11.708c2.249,0,4.109,1.783,4.109,4.032v18.376
			c0,2.249-1.861,4.032-4.109,4.032h-4.265v3.954L106.348,110.033L106.348,110.033z"/>
	</g>
	<path fill="#FFFFFF" d="M126.298,63.308h-13.569l-9.925,10.002l-9.925-9.925H79.31c-4.265,0-7.676-3.412-7.676-7.599V7.791
		c0-4.187,3.412-7.599,7.676-7.599h46.988c4.265,0,7.676,3.412,7.676,7.599v47.996C133.974,59.974,130.563,63.308,126.298,63.308z"
		/>
	<path fill="#009999" d="M84.04,37.411v-3.102h-6.668v3.102H84.04z"/>
	<path fill="#009999" d="M95.283,24.617h-3.179l-5.893,4.652l1.861,2.326l2.094-1.628c0.233-0.233,0.698-0.62,1.318-1.241
		l-0.078,1.861v1.706v10.468h3.877L95.283,24.617L95.283,24.617z"/>
	<path fill="#009999" d="M105.053,31.285l-0.465,0.078l0.31-3.567h6.513v-3.257h-9.847l-0.698,9.227l1.551,0.853
		c0.31-0.078,0.775-0.155,1.318-0.31c0.543-0.078,1.008-0.155,1.473-0.155c2.404,0,3.644,0.93,3.644,2.714
		c0,1.938-1.163,2.869-3.489,2.869c-0.775,0-1.628-0.078-2.481-0.31c-0.853-0.233-1.628-0.465-2.326-0.853v3.334
		c1.241,0.62,2.869,1.008,4.885,1.008c2.326,0,4.109-0.543,5.35-1.628c1.241-1.086,1.861-2.636,1.861-4.652
		c0-1.706-0.543-3.024-1.551-4.032c-1.008-1.008-2.404-1.473-4.187-1.473C106.216,31.13,105.596,31.13,105.053,31.285
		L105.053,31.285z"/>
	<path fill="#009999" d="M116.606,32.758c0.155-0.31,0.31-0.465,0.62-0.465c0.543,0,0.775,0.698,0.775,2.016
		c0,1.396-0.233,2.016-0.775,2.016c-0.31,0-0.465-0.155-0.62-0.543c-0.155-0.31-0.155-0.853-0.155-1.551
		C116.451,33.611,116.528,33.069,116.606,32.758z M119.32,31.518c-0.465-0.62-1.241-0.93-2.094-0.93
		c-1.861,0-2.869,1.241-2.869,3.722c0,1.241,0.233,2.171,0.775,2.791c0.465,0.62,1.163,0.93,2.094,0.93s1.628-0.31,2.171-0.93
		c0.465-0.62,0.698-1.551,0.698-2.791C120.095,33.069,119.863,32.138,119.32,31.518z M123.739,30.742l-6.668,11.941h1.938
		l6.668-11.941L123.739,30.742L123.739,30.742z M125.058,37.488c0.155-0.31,0.31-0.465,0.62-0.465c0.543,0,0.775,0.698,0.775,2.016
		c0,1.396-0.233,2.016-0.775,2.016c-0.31,0-0.465-0.155-0.62-0.543c-0.155-0.31-0.155-0.853-0.155-1.551
		C124.825,38.341,124.902,37.876,125.058,37.488z M127.771,36.248c-0.465-0.62-1.241-0.93-2.094-0.93
		c-1.861,0-2.869,1.241-2.869,3.722c0,1.241,0.233,2.171,0.775,2.791c0.465,0.62,1.163,0.93,2.094,0.93
		c0.93,0,1.628-0.31,2.171-0.93c0.465-0.62,0.698-1.551,0.698-2.791C128.469,37.798,128.237,36.945,127.771,36.248z"/>
	<path fill="#CC6633" d="M9.992,104.016h7.521v6.668H9.992V104.016z"/>
	<path fill="#02121F" d="M11.465,108.203l7.831-13.336l-8.374-4.109l-7.444,13.026L11.465,108.203z"/>
</g>
</svg>
