<?xml version="1.0" encoding="utf-8"?>
<!-- Generator: Adobe Illustrator 17.0.0, SVG Export Plug-In . SVG Version: 6.00 Build 0)  -->
<!DOCTYPE svg PUBLIC "-//W3C//DTD SVG 1.1//EN" "http://www.w3.org/Graphics/SVG/1.1/DTD/svg11.dtd">
<svg version="1.1" id="Слой_1" xmlns="http://www.w3.org/2000/svg" xmlns:xlink="http://www.w3.org/1999/xlink" x="0px" y="0px"
	 width="2.236px" height="14px" viewBox="0 0 2.236 14" enable-background="new 0 0 2.236 14" xml:space="preserve">
<path fill="#EF3B39" d="M1.306,10.171H0.93L0.059,2.157C0.02,1.807,0,1.547,0,1.375C0,0.96,0.11,0.627,0.331,0.376
	C0.552,0.126,0.818,0,1.128,0C1.438,0,1.7,0.126,1.914,0.376c0.214,0.251,0.322,0.623,0.322,1.118c0,0.158-0.013,0.379-0.04,0.663
	L1.306,10.171z M1.108,11.813c0.303,0,0.562,0.107,0.777,0.321c0.214,0.215,0.321,0.47,0.321,0.767c0,0.304-0.107,0.563-0.321,0.777
	C1.67,13.893,1.411,14,1.108,14c-0.304,0-0.563-0.107-0.777-0.322c-0.214-0.214-0.321-0.473-0.321-0.777
	c0-0.297,0.107-0.552,0.321-0.767C0.546,11.921,0.805,11.813,1.108,11.813z"/>
</svg>
