<?xml version="1.0" encoding="utf-8"?>
<!-- Generator: Adobe Illustrator 17.0.0, SVG Export Plug-In . SVG Version: 6.00 Build 0)  -->
<!DOCTYPE svg PUBLIC "-//W3C//DTD SVG 1.1//EN" "http://www.w3.org/Graphics/SVG/1.1/DTD/svg11.dtd">
<svg version="1.1" id="Слой_1" xmlns="http://www.w3.org/2000/svg" xmlns:xlink="http://www.w3.org/1999/xlink" x="0px" y="0px"
	 width="29.589px" height="25px" viewBox="0 0 29.589 25" enable-background="new 0 0 29.589 25" xml:space="preserve">
<g id="Google_x2B__1_">
	<polygon id="_x2B__2_" fill="#FFFFFF" points="29.589,5.01 24.579,5.01 24.579,0 23.327,0 23.327,5.01 18.317,5.01 18.317,6.262 
		23.327,6.262 23.327,11.272 24.579,11.272 24.579,6.262 29.589,6.262 29.589,5.01 	"/>
	<path id="g_1_" fill="#FFFFFF" d="M12.828,14.391c-0.7-0.495-2.038-1.7-2.038-2.408c0-0.83,0.237-1.239,1.486-2.215
		c1.28-1.001,2.187-2.407,2.187-4.043c0-1.947-0.867-3.846-2.496-4.472h2.455L16.155,0c0,0-5.807,0-7.742,0
		C4.941,0,1.675,2.63,1.675,5.676c0,3.113,2.366,5.625,5.897,5.625c0.245,0,0.484-0.005,0.718-0.022
		c-0.229,0.439-0.393,0.933-0.393,1.446c0,0.865,0.465,1.567,1.054,2.139c-0.445,0-0.874,0.013-1.342,0.013
		C3.309,14.877,0,17.615,0,20.454C0,23.251,3.628,25,7.927,25c4.901,0,7.608-2.781,7.608-5.578
		C15.535,17.18,14.874,15.837,12.828,14.391L12.828,14.391z M8.692,10.512L8.692,10.512c-1.995-0.06-3.89-2.232-4.235-4.851
		c-0.344-2.62,0.993-4.624,2.988-4.565c1.994,0.06,3.891,2.162,4.235,4.781C12.024,8.497,10.686,10.571,8.692,10.512L8.692,10.512z
		 M7.911,23.764L7.911,23.764c-2.972,0-5.118-1.881-5.118-4.141c0-2.215,2.662-4.058,5.634-4.026
		c0.694,0.007,1.34,0.119,1.927,0.309c1.613,1.122,2.77,1.756,3.097,3.034c0.061,0.259,0.095,0.526,0.095,0.798
		C13.545,21.998,12.089,23.764,7.911,23.764L7.911,23.764z"/>
</g>
</svg>
