<?xml version="1.0" encoding="utf-8"?>
<!-- Generator: Adobe Illustrator 17.0.0, SVG Export Plug-In . SVG Version: 6.00 Build 0)  -->
<!DOCTYPE svg PUBLIC "-//W3C//DTD SVG 1.1//EN" "http://www.w3.org/Graphics/SVG/1.1/DTD/svg11.dtd">
<svg version="1.1" id="Слой_1" xmlns="http://www.w3.org/2000/svg" xmlns:xlink="http://www.w3.org/1999/xlink" x="0px" y="0px"
	 width="36px" height="25px" viewBox="0 0 36 25" enable-background="new 0 0 36 25" xml:space="preserve">
<g>
	<polygon display="none" fill="#FFFFFF" points="27.962,13 13,13 13,12 27.936,12 23.499,9.634 23.499,8.5 30.999,12.5 23.499,16.5 
		23.499,15.38 	"/>
	<path display="none" fill="#1A7676" d="M18,23.5c0,0.828-0.672,1.5-1.5,1.5h-15C0.672,25,0,24.328,0,23.5v-22
		C0,0.672,0.672,0,1.5,0h15C17.328,0,18,0.672,18,1.5V23.5z"/>
	<path fill="#FFFFFF" d="M18,16.501V23.5c0,0.827-0.673,1.5-1.5,1.5h-15C0.673,25,0,24.327,0,23.5v-22C0,0.673,0.672,0,1.5,0h15
		C17.327,0,18,0.673,18,1.5v7.001h-1V1.5C17,1.224,16.776,1,16.5,1h-15C1.224,1,1,1.224,1,1.5v22C1,23.775,1.225,24,1.5,24h15
		c0.276,0,0.5-0.225,0.5-0.5v-6.999H18z"/>
</g>
</svg>
