<?xml version="1.0" encoding="utf-8"?>
<!-- Generator: Adobe Illustrator 17.0.0, SVG Export Plug-In . SVG Version: 6.00 Build 0)  -->
<!DOCTYPE svg PUBLIC "-//W3C//DTD SVG 1.1//EN" "http://www.w3.org/Graphics/SVG/1.1/DTD/svg11.dtd">
<svg version="1.1" id="Слой_1" xmlns="http://www.w3.org/2000/svg" xmlns:xlink="http://www.w3.org/1999/xlink" x="0px" y="0px"
	 width="36px" height="25px" viewBox="0 0 36 25" enable-background="new 0 0 36 25" xml:space="preserve">
<g>
	<polygon display="none" fill="#99CCCC" points="27.962,13 13,13 13,12 27.936,12 23.499,9.634 23.499,8.5 30.999,12.5 23.499,16.5 
		23.499,15.38 	"/>
	<path fill="#99CCCC" d="M19,16.501V23.5c0,0.275,0.224,0.5,0.5,0.5h15c0.275,0,0.5-0.225,0.5-0.5v-22C35,1.224,34.776,1,34.5,1h-15
		C19.224,1,19,1.224,19,1.5v7.001h-1V1.5C18,0.673,18.673,0,19.5,0h15C35.328,0,36,0.673,36,1.5v22c0,0.827-0.673,1.5-1.5,1.5h-15
		c-0.827,0-1.5-0.673-1.5-1.5v-6.999H19z"/>
</g>
</svg>
