<?xml version="1.0" encoding="utf-8"?>
<!-- Generator: Adobe Illustrator 17.0.0, SVG Export Plug-In . SVG Version: 6.00 Build 0)  -->
<!DOCTYPE svg PUBLIC "-//W3C//DTD SVG 1.1//EN" "http://www.w3.org/Graphics/SVG/1.1/DTD/svg11.dtd">
<svg version="1.1" id="Слой_2" xmlns="http://www.w3.org/2000/svg" xmlns:xlink="http://www.w3.org/1999/xlink" x="0px" y="0px"
	 width="25px" height="25px" viewBox="6.083 6 25 25" enable-background="new 6.083 6 25 25" xml:space="preserve">
<g id="Eng" display="none">
	<path display="inline" fill="#FFFFFF" d="M18.583,31c-6.892,0-12.5-5.607-12.5-12.5S11.691,6,18.583,6
		c6.893,0,12.5,5.607,12.5,12.5S25.476,31,18.583,31z"/>
	<path display="inline" fill="#CF142B" d="M17.083,20l0.032,10.914C17.597,30.971,18.087,31,18.583,31c0.508,0,1.008-0.03,1.5-0.089
		l0-10.911l10.91,0.002c0.059-0.493,0.09-0.994,0.09-1.502c0-0.515-0.031-1.023-0.092-1.522L20.083,17l0.005-10.91
		C19.595,6.031,19.092,6,18.583,6c-0.496,0-0.986,0.029-1.468,0.086L17.083,17L6.168,17.041C6.112,17.52,6.083,18.007,6.083,18.5
		c0,0.522,0.032,1.038,0.095,1.543L17.083,20z"/>
	<path display="inline" fill="#CF142B" d="M21.309,21.031l1.747,0l6.041,4.224c-0.181,0.281-0.373,0.554-0.576,0.819L21.309,21.031z
		"/>
	<path display="inline" fill="#CF142B" d="M8.643,26.071c-0.202-0.264-0.393-0.536-0.573-0.816l6.043-4.223l1.745,0L8.643,26.071z"
		/>
	<path display="inline" fill="#CF142B" d="M15.85,16l-1.744,0l-6.05-4.234c0.18-0.281,0.372-0.554,0.573-0.819L15.85,16z"/>
	<path display="inline" fill="#CF142B" d="M28.538,10.948c0.202,0.265,0.393,0.538,0.573,0.819L23.055,16l-1.746,0L28.538,10.948z"
		/>
	<path display="inline" fill="#00247D" d="M16.083,22.086l0.001,8.663c-2.676-0.545-5.044-1.949-6.803-3.909L16.083,22.086z
		 M7.322,23.924c-0.439-0.909-0.772-1.879-0.982-2.893l5.121,0L7.322,23.924z M24.762,21.031l6.064,0
		c-0.247,1.197-0.666,2.333-1.23,3.379L24.762,21.031z M27.538,27.212c-1.714,1.762-3.942,3.021-6.439,3.533l-0.013-8.045
		L27.538,27.212z M12.355,15.995l-6.02,0.004c0.243-1.191,0.656-2.321,1.212-3.364L12.355,15.995z M9.603,9.814
		c1.718-1.775,3.955-3.045,6.465-3.559l0.01,8.085L9.603,9.814z M21.064,14.947l0.019-8.695c2.681,0.546,5.053,1.954,6.813,3.92
		L21.064,14.947z M29.846,13.08c0.441,0.912,0.774,1.885,0.983,2.904l-5.139,0.003L29.846,13.08z"/>
</g>
<g id="Рус" display="none">
	<path display="inline" fill="#D52B1E" d="M30.371,22.66C28.654,27.514,24.018,31,18.583,31c-5.435,0-10.071-3.487-11.788-8.341
		L30.371,22.66z"/>
	<path display="inline" fill="#0039A6" d="M6.795,22.659c-0.46-1.302-0.711-2.701-0.711-4.159c0-1.462,0.252-2.866,0.715-4.17
		l23.569,0.001c0.463,1.305,0.715,2.708,0.715,4.17c0,1.458-0.251,2.858-0.712,4.16L6.795,22.659z"/>
	<path display="inline" fill="#FFFFFF" d="M6.799,14.33C8.52,9.481,13.153,6,18.583,6c5.431,0,10.064,3.482,11.785,8.33L6.799,14.33
		z"/>
</g>
<g id="Укр" display="none">
	<path display="inline" fill="#FFD500" d="M31.083,18.5c0,6.893-5.607,12.5-12.5,12.5c-6.892,0-12.5-5.607-12.5-12.5H31.083z"/>
	<path display="inline" fill="#005BBB" d="M6.083,18.5c0-6.893,5.607-12.5,12.5-12.5c6.893,0,12.5,5.607,12.5,12.5H6.083z"/>
</g>
<path display="none" fill="#006666" d="M18.583,31c-6.892,0-12.5-5.607-12.5-12.5S11.691,6,18.583,6c6.893,0,12.5,5.607,12.5,12.5
	S25.476,31,18.583,31z"/>
<path fill="#99CCCC" d="M18.583,31c-6.892,0-12.5-5.607-12.5-12.5S11.691,6,18.583,6c6.893,0,12.5,5.607,12.5,12.5
	S25.476,31,18.583,31z M23.694,22.502c-0.776,3.811-2.545,6.195-3.713,7.414l-0.001,0c4.322-0.526,7.913-3.46,9.385-7.415
	L23.694,22.502z M14.502,22.503c0.952,4.337,3.264,6.652,4.079,7.354l0.001,0.002c0.811-0.703,3.125-3.028,4.081-7.357
	L14.502,22.503z M23.87,21.5l5.816,0c0.259-0.957,0.397-1.962,0.397-3c0-1.038-0.138-2.044-0.397-3.001l-5.816,0l0,0
	c0.136,0.924,0.213,1.923,0.213,3C24.083,19.577,24.006,20.576,23.87,21.5z M23.695,14.5h5.67c-1.472-3.956-5.062-6.89-9.384-7.416
	L19.977,7.08C21.145,8.298,22.918,10.684,23.695,14.5z M14.314,15.499c-0.146,0.919-0.231,1.918-0.231,3.001
	c0,1.083,0.084,2.082,0.229,3l8.54,0c0.146-0.919,0.231-1.918,0.231-3.001c0-1.083-0.084-2.082-0.229-3.001L14.314,15.499z
	 M22.666,14.5c-0.953-4.346-3.271-6.662-4.083-7.36l0.001,0.002c-0.812,0.704-3.126,3.029-4.08,7.358L22.666,14.5z M13.472,14.501
	c0.778-3.82,2.553-6.207,3.721-7.424l0.001,0.007c-4.326,0.523-7.92,3.458-9.393,7.417L13.472,14.501L13.472,14.501z M13.297,21.499
	c-0.136-0.924-0.213-1.922-0.213-2.999c0-1.077,0.077-2.076,0.213-3l0,0l-5.816,0c-0.259,0.957-0.397,1.962-0.397,3
	c0,1.037,0.138,2.043,0.397,2.999C7.48,21.499,13.297,21.499,13.297,21.499z M7.803,22.504c1.473,3.953,5.062,6.885,9.383,7.411
	l0.001,0.001c-1.168-1.219-2.937-3.602-3.714-7.413L7.803,22.504z"/>
</svg>
