<?xml version="1.0" encoding="utf-8"?>
<!-- Generator: Adobe Illustrator 17.0.0, SVG Export Plug-In . SVG Version: 6.00 Build 0)  -->
<!DOCTYPE svg PUBLIC "-//W3C//DTD SVG 1.1//EN" "http://www.w3.org/Graphics/SVG/1.1/DTD/svg11.dtd">
<svg version="1.1" id="Слой_1" xmlns="http://www.w3.org/2000/svg" xmlns:xlink="http://www.w3.org/1999/xlink" x="0px" y="0px"
	 width="22.094px" height="22.449px" viewBox="0 0 22.094 22.449" enable-background="new 0 0 22.094 22.449" xml:space="preserve">
<path id="Icon_x40_" fill="#99CCCC" d="M13.563,14.137h-0.068c-0.666,2.169-1.974,3.254-3.924,3.254
	c-1.249,0-2.254-0.46-3.015-1.381c-0.761-0.921-1.142-2.16-1.142-3.719c0-2.06,0.526-3.771,1.579-5.134s2.436-2.044,4.149-2.044
	c0.656,0,1.242,0.169,1.757,0.506c0.515,0.337,0.845,0.761,0.991,1.271h0.055c0.018-0.255,0.063-0.779,0.137-1.572h1.709
	c-0.429,5.022-0.643,7.579-0.643,7.67c0,1.887,0.542,2.83,1.627,2.83c0.984,0,1.802-0.533,2.454-1.6
	c0.651-1.066,0.978-2.447,0.978-4.143c0-2.507-0.793-4.553-2.379-6.139s-3.783-2.379-6.59-2.379c-2.707,0-4.945,0.948-6.713,2.844
	c-1.769,1.896-2.652,4.266-2.652,7.109c0,2.798,0.841,5.057,2.522,6.774s3.949,2.577,6.802,2.577c2.251,0,4.174-0.374,5.77-1.121
	v1.695c-1.577,0.675-3.546,1.012-5.906,1.012c-3.318,0-5.991-1-8.019-3.001C1.014,17.447,0,14.829,0,11.594
	c0-3.336,1.064-6.103,3.192-8.299C5.32,1.099,8.039,0,11.348,0c3.099,0,5.665,0.921,7.697,2.762
	c2.032,1.841,3.049,4.243,3.049,7.205c0,2.169-0.536,3.949-1.606,5.339c-1.071,1.39-2.377,2.085-3.917,2.085
	C14.574,17.391,13.571,16.306,13.563,14.137z M11.115,6.699c-1.13,0-2.044,0.538-2.741,1.613s-1.046,2.411-1.046,4.006
	c0,1.075,0.234,1.923,0.704,2.543c0.469,0.62,1.096,0.93,1.88,0.93c1.13,0,2.025-0.563,2.687-1.688
	c0.661-1.126,0.991-2.618,0.991-4.478C13.59,7.675,12.765,6.699,11.115,6.699z"/>
</svg>
