<?xml version="1.0" encoding="utf-8"?>
<!-- Generator: Adobe Illustrator 17.0.0, SVG Export Plug-In . SVG Version: 6.00 Build 0)  -->
<!DOCTYPE svg PUBLIC "-//W3C//DTD SVG 1.1//EN" "http://www.w3.org/Graphics/SVG/1.1/DTD/svg11.dtd">
<svg version="1.1" id="Слой_1" xmlns="http://www.w3.org/2000/svg" xmlns:xlink="http://www.w3.org/1999/xlink" x="0px" y="0px"
	 width="242.259px" height="241.746px" viewBox="0 0 242.259 241.746" enable-background="new 0 0 242.259 241.746"
	 xml:space="preserve">
<g>
	<path fill="#707070" d="M162.34,202.848c2.63,0,4.618-1.283,5.965-3.271c0.641-1.988,1.283-4.554,0-6.542
		c-9.878-18.28-28.158-29.441-48.49-29.441s-39.318,11.096-48.49,29.441c-1.283,1.988-1.283,4.554,0,6.542
		c1.347,1.988,3.913,3.271,5.901,3.271l13.085-13.085c7.889-8.531,18.344-13.085,30.146-13.085c11.096,0,22.257,4.554,29.441,13.085
		L162.34,202.848z"/>
	<circle fill="#707070" cx="77.225" cy="82.334" r="15.073"/>
	<circle fill="#707070" cx="167.599" cy="82.334" r="15.073"/>
	<path fill="#707070" d="M235.717,82.549C219.361,34.764,174.142,0,121.098,0C66.77,0,20.268,36.047,5.195,85.82
		c-0.641,0.641-0.641,1.283-0.641,1.988C1.283,98.263,0,109.424,0,120.584c0,66.77,54.327,121.162,121.162,121.162
		s121.097-54.391,121.097-121.226c0-9.172-1.283-17.703-2.63-25.528L235.717,82.549z M150.538,17.703
		c32.776,9.172,58.945,33.417,71.389,64.846l3.913,13.79c1.988,7.825,3.335,16.356,3.335,25.528
		c0,59.587-48.49,108.077-108.077,108.077S13.021,181.454,13.021,121.867c0-9.172,1.283-17.703,3.271-25.528l3.913-13.79
		C32.648,51.12,58.881,26.875,91.593,17.703C88.136,22.172,153.74,21.844,150.538,17.703z"/>
</g>
</svg>
