<?xml version="1.0" encoding="utf-8"?>
<!-- Generator: Adobe Illustrator 17.0.0, SVG Export Plug-In . SVG Version: 6.00 Build 0)  -->
<!DOCTYPE svg PUBLIC "-//W3C//DTD SVG 1.1//EN" "http://www.w3.org/Graphics/SVG/1.1/DTD/svg11.dtd">
<svg version="1.1" id="Слой_1" xmlns="http://www.w3.org/2000/svg" xmlns:xlink="http://www.w3.org/1999/xlink" x="0px" y="0px"
	 width="18.339px" height="18.339px" viewBox="17.594 0.704 18.339 18.339" enable-background="new 17.594 0.704 18.339 18.339"
	 xml:space="preserve">
<path id="Search_1_" fill="#FFFFFF" d="M28.669,13.02c-2.695,2.083-6.594,1.889-9.064-0.581c-2.681-2.681-2.681-7.043,0-9.724
	s7.043-2.68,9.724,0c2.471,2.471,2.664,6.37,0.581,9.064 M27.914,4.129c-1.901-1.901-4.994-1.901-6.895,0
	c-1.901,1.901-1.901,4.995,0,6.896c1.901,1.901,4.995,1.901,6.896,0S29.815,6.03,27.914,4.129z M28.669,13.019l6.024,6.024
	l1.241-1.241l-6.024-6.024"/>
</svg>
